<mxfile host="app.diagrams.net" modified="2023-06-05T06:58:19.859Z" agent="Mozilla/5.0 (Windows NT 10.0; Win64; x64) AppleWebKit/537.36 (KHTML, like Gecko) Chrome/113.0.0.0 Safari/537.36 Edg/113.0.1774.57" etag="Xyin_G7iY4OIQSrHvQU2" version="21.3.2" type="device">
  <diagram name="第 1 页" id="sKGTqYku7RLBREdcr3ts">
    <mxGraphModel dx="2836" dy="1381" grid="0" gridSize="10" guides="1" tooltips="1" connect="1" arrows="1" fold="1" page="0" pageScale="1" pageWidth="827" pageHeight="1169" math="0" shadow="0">
      <root>
        <mxCell id="0" />
        <mxCell id="1" parent="0" />
        <UserObject label="" plantUmlData="{&#xa;  &quot;data&quot;: &quot;@startuml\n\nclass User {\n    -id: int\n    -username: string\n    -password: string\n    -email: string\n    -type: UserType\n    +getFullName(): string\n}\n\nclass Student {\n    -major: string\n    -GPA: float\n    -resume: string\n    -internships: List&lt;Internship&gt;\n    +applyToInternship(internship: Internship): Application\n}\n\nclass Employer {\n    -companyName: string\n    -companyDescription: string\n    -internships: List&lt;Internship&gt;\n    +postInternship(internship: Internship): Internship\n}\n\nclass Admin {\n    +verifyInternship(internship: Internship)\n    +deleteInternship(internship: Internship)\n}\n\nclass Internship {\n    -id: int\n    -title: string\n    -description: string\n    -location: string\n    -salary: float\n    -requirements: List&lt;Skill&gt;\n    -categories: List&lt;Category&gt;\n    -applications: List&lt;Application&gt;\n    -reviews: List&lt;Review&gt;\n    -company: Company\n    -rankingSystem: RankingSystem\n    +updateRanking()\n}\n\nclass Category {\n    -name: string\n    -description: string\n    -internships: List&lt;Internship&gt;\n}\n\nclass Skill {\n    -name: string\n    -description: string\n    -internships: List&lt;Internship&gt;\n}\n\nclass Application {\n    -id: int\n    -status: ApplicationStatus\n    -student: Student\n    -internship: Internship\n    +accept()\n    +reject()\n}\n\nclass RecommendationSystem {\n    -student: Student\n    -recommendedInternships: List&lt;Internship&gt;\n    +getRecommendations(): List&lt;Internship&gt;\n}\n\nclass CommunicationSystem {\n    -users: List&lt;User&gt;\n    -messages: List&lt;Message&gt;\n    +sendMessage(from: User, to: User, message: string)\n    +getMessages(user: User): List&lt;Message&gt;\n}\n\nclass RankingSystem {\n    -internship: Internship\n    -scores: List&lt;Score&gt;\n    +getRanking(): List&lt;Internship&gt;\n}\n\nclass Notification {\n    -id: int\n    -message: string\n    -user: User\n}\n\nclass Review {\n    -id: int\n    -text: string\n    -rating: int\n    -internship: Internship\n}\n\nclass Company {\n    -id: int\n    -name: string\n    -description: string\n    -logo: string\n    -website: string\n    -internships: List&lt;Internship&gt;\n}\n\nclass Message {\n    -id: int\n    -text: string\n    -sender: User\n    -receiver: User\n}\n\nclass Conversation {\n    -id: int\n    -users: List&lt;User&gt;\n    -messages: List&lt;Message&gt;\n}\n\nclass Event {\n    -id: int\n    -name: string\n    -description: string\n    -start: datetime\n    -end: datetime\n    -users: List&lt;User&gt;\n}\n\nclass Group {\n    -id: int\n    -name: string\n    -description: string\n    -users: List&lt;User&gt;\n}\n\nclass Bookmark {\n    -id: int\n    -user: User\n    -internship: Internship\n}\n\nclass Tag {\n    -name: string\n    -description: string\n    -internships: List&lt;Internship&gt;\n}\n\nenum UserType {\n    STUDENT\n    EMPLOYER\n    ADMIN\n}\n\nenum ApplicationStatus {\n    PENDING\n    ACCEPTED\n    REJECTED\n}\n\n\n@enduml&quot;,&#xa;  &quot;format&quot;: &quot;svg&quot;&#xa;}" id="RT3UxA-Sgz-yJJKTgSwy-3">
          <mxCell style="shape=image;noLabel=1;verticalAlign=top;aspect=fixed;imageAspect=0;image=data:image/svg+xml,PD94bWwgdmVyc2lvbj0iMS4wIiBlbmNvZGluZz0idXMtYXNjaWkiIHN0YW5kYWxvbmU9Im5vIj8+PHN2ZyB4bWxucz0iaHR0cDovL3d3dy53My5vcmcvMjAwMC9zdmciIHhtbG5zOnhsaW5rPSJodHRwOi8vd3d3LnczLm9yZy8xOTk5L3hsaW5rIiBjb250ZW50U3R5bGVUeXBlPSJ0ZXh0L2NzcyIgaGVpZ2h0PSI5ODhweCIgcHJlc2VydmVBc3BlY3RSYXRpbz0ibm9uZSIgc3R5bGU9IndpZHRoOjE2OTZweDtoZWlnaHQ6OTg4cHg7YmFja2dyb3VuZDojRkZGRkZGOyIgdmVyc2lvbj0iMS4xIiB2aWV3Qm94PSIwIDAgMTY5NiA5ODgiIHdpZHRoPSIxNjk2cHgiIHpvb21BbmRQYW49Im1hZ25pZnkiPjxkZWZzLz48Zz48IS0tY2xhc3MgVXNlci0tPjxnIGlkPSJlbGVtX1VzZXIiPjxyZWN0IGNvZGVMaW5lPSIxIiBmaWxsPSIjRjFGMUYxIiBoZWlnaHQ9IjEzNy45MDYzIiBpZD0iVXNlciIgcng9IjIuNSIgcnk9IjIuNSIgc3R5bGU9InN0cm9rZTojMTgxODE4O3N0cm9rZS13aWR0aDowLjU7IiB3aWR0aD0iMTc2IiB4PSIzOCIgeT0iNTIiLz48ZWxsaXBzZSBjeD0iMTA3Ljc1IiBjeT0iNjgiIGZpbGw9IiNBREQxQjIiIHJ4PSIxMSIgcnk9IjExIiBzdHlsZT0ic3Ryb2tlOiMxODE4MTg7c3Ryb2tlLXdpZHRoOjEuMDsiLz48cGF0aCBkPSJNMTA1LjM3NSw3Mi4yNSBMMTA1LjM3NSw3NCBMMTEwLjMxMjUsNzQgTDExMC4zMTI1LDcyLjI1IEwxMDUuMzc1LDcyLjI1IFogTTEwNi4wNjI1LDcyLjkzNzUgUTEwNi4wNjI1LDcyLjkzNzUgMTA2LjA2MjUsNjMuNzUgTDEwNC4zMTI1LDYzLjc1IFExMDQuMzEyNSw2My43NSAxMDQuMzEyNSw3Mi45Mzc1IEwxMDYuMDYyNSw3Mi45Mzc1IFogTTEwOS42MjUsNzIuOTM3NSBMMTExLjM3NSw3Mi45Mzc1IFExMTEuMzc1LDcyLjkzNzUgMTExLjM3NSw3MC4xMjUgTDEwOS42MjUsNzAuMTI1IFExMDkuNjI1LDcwLjEyNSAxMDkuNjI1LDcyLjkzNzUgWiBNMTA5LjYyNSw2My43NSBRMTA5LjYyNSw2My43NSAxMDkuNjI1LDY2LjU2MjUgTDExMS4zNzUsNjYuNTYyNSBRMTExLjM3NSw2Ni41NjI1IDExMS4zNzUsNjMuNzUgTDEwOS42MjUsNjMuNzUgWiBNMTA1LjM3NSw2NC40Mzc1IEwxMTAuMzEyNSw2NC40Mzc1IEwxMTAuMzEyNSw2Mi42ODc1IEwxMDUuMzc1LDYyLjY4NzUgTDEwNS4zNzUsNjQuNDM3NSBaICIgZmlsbD0iIzAwMDAwMCIvPjx0ZXh0IGZpbGw9IiMwMDAwMDAiIGZvbnQtZmFtaWx5PSJzYW5zLXNlcmlmIiBmb250LXNpemU9IjE0IiBsZW5ndGhBZGp1c3Q9InNwYWNpbmciIHRleHRMZW5ndGg9IjI4IiB4PSIxMjguMjUiIHk9IjczLjc0MjIiPlVzZXI8L3RleHQ+PGxpbmUgc3R5bGU9InN0cm9rZTojMTgxODE4O3N0cm9rZS13aWR0aDowLjU7IiB4MT0iMzkiIHgyPSIyMTMiIHkxPSI4NCIgeTI9Ijg0Ii8+PHJlY3QgZmlsbD0ibm9uZSIgaGVpZ2h0PSI2IiBzdHlsZT0ic3Ryb2tlOiNDODI5MzA7c3Ryb2tlLXdpZHRoOjEuMDsiIHdpZHRoPSI2IiB4PSI0NiIgeT0iOTMuOTkyMiIvPjx0ZXh0IGZpbGw9IiMwMDAwMDAiIGZvbnQtZmFtaWx5PSJzYW5zLXNlcmlmIiBmb250LXNpemU9IjE0IiBsZW5ndGhBZGp1c3Q9InNwYWNpbmciIHRleHRMZW5ndGg9IjQ5IiB4PSI1OCIgeT0iMTAxLjIzNDQiPmlkOiBpbnQ8L3RleHQ+PHJlY3QgZmlsbD0ibm9uZSIgaGVpZ2h0PSI2IiBzdHlsZT0ic3Ryb2tlOiNDODI5MzA7c3Ryb2tlLXdpZHRoOjEuMDsiIHdpZHRoPSI2IiB4PSI0NiIgeT0iMTA4Ljk3NjYiLz48dGV4dCBmaWxsPSIjMDAwMDAwIiBmb250LWZhbWlseT0ic2Fucy1zZXJpZiIgZm9udC1zaXplPSIxNCIgbGVuZ3RoQWRqdXN0PSJzcGFjaW5nIiB0ZXh0TGVuZ3RoPSIxMTMiIHg9IjU4IiB5PSIxMTYuMjE4OCI+dXNlcm5hbWU6IHN0cmluZzwvdGV4dD48cmVjdCBmaWxsPSJub25lIiBoZWlnaHQ9IjYiIHN0eWxlPSJzdHJva2U6I0M4MjkzMDtzdHJva2Utd2lkdGg6MS4wOyIgd2lkdGg9IjYiIHg9IjQ2IiB5PSIxMjMuOTYwOSIvPjx0ZXh0IGZpbGw9IiMwMDAwMDAiIGZvbnQtZmFtaWx5PSJzYW5zLXNlcmlmIiBmb250LXNpemU9IjE0IiBsZW5ndGhBZGp1c3Q9InNwYWNpbmciIHRleHRMZW5ndGg9IjExMyIgeD0iNTgiIHk9IjEzMS4yMDMxIj5wYXNzd29yZDogc3RyaW5nPC90ZXh0PjxyZWN0IGZpbGw9Im5vbmUiIGhlaWdodD0iNiIgc3R5bGU9InN0cm9rZTojQzgyOTMwO3N0cm9rZS13aWR0aDoxLjA7IiB3aWR0aD0iNiIgeD0iNDYiIHk9IjEzOC45NDUzIi8+PHRleHQgZmlsbD0iIzAwMDAwMCIgZm9udC1mYW1pbHk9InNhbnMtc2VyaWYiIGZvbnQtc2l6ZT0iMTQiIGxlbmd0aEFkanVzdD0ic3BhY2luZyIgdGV4dExlbmd0aD0iOTIiIHg9IjU4IiB5PSIxNDYuMTg3NSI+ZW1haWw6IHN0cmluZzwvdGV4dD48cmVjdCBmaWxsPSJub25lIiBoZWlnaHQ9IjYiIHN0eWxlPSJzdHJva2U6I0M4MjkzMDtzdHJva2Utd2lkdGg6MS4wOyIgd2lkdGg9IjYiIHg9IjQ2IiB5PSIxNTMuOTI5NyIvPjx0ZXh0IGZpbGw9IiMwMDAwMDAiIGZvbnQtZmFtaWx5PSJzYW5zLXNlcmlmIiBmb250LXNpemU9IjE0IiBsZW5ndGhBZGp1c3Q9InNwYWNpbmciIHRleHRMZW5ndGg9Ijk4IiB4PSI1OCIgeT0iMTYxLjE3MTkiPnR5cGU6IFVzZXJUeXBlPC90ZXh0PjxsaW5lIHN0eWxlPSJzdHJva2U6IzE4MTgxODtzdHJva2Utd2lkdGg6MC41OyIgeDE9IjM5IiB4Mj0iMjEzIiB5MT0iMTY2LjkyMTkiIHkyPSIxNjYuOTIxOSIvPjxlbGxpcHNlIGN4PSI0OSIgY3k9IjE3OS45MTQxIiBmaWxsPSIjODRCRTg0IiByeD0iMyIgcnk9IjMiIHN0eWxlPSJzdHJva2U6IzAzODA0ODtzdHJva2Utd2lkdGg6MS4wOyIvPjx0ZXh0IGZpbGw9IiMwMDAwMDAiIGZvbnQtZmFtaWx5PSJzYW5zLXNlcmlmIiBmb250LXNpemU9IjE0IiBsZW5ndGhBZGp1c3Q9InNwYWNpbmciIHRleHRMZW5ndGg9IjE1MCIgeD0iNTgiIHk9IjE4NC4xNTYzIj5nZXRGdWxsTmFtZSgpOiBzdHJpbmc8L3RleHQ+PC9nPjwhLS1jbGFzcyBTdHVkZW50LS0+PGcgaWQ9ImVsZW1fU3R1ZGVudCI+PHJlY3QgY29kZUxpbmU9IjEwIiBmaWxsPSIjRjFGMUYxIiBoZWlnaHQ9IjEyMi45MjE5IiBpZD0iU3R1ZGVudCIgcng9IjIuNSIgcnk9IjIuNSIgc3R5bGU9InN0cm9rZTojMTgxODE4O3N0cm9rZS13aWR0aDowLjU7IiB3aWR0aD0iNDA2IiB4PSIyNDkiIHk9IjU5LjUiLz48ZWxsaXBzZSBjeD0iNDIzLjI1IiBjeT0iNzUuNSIgZmlsbD0iI0FERDFCMiIgcng9IjExIiByeT0iMTEiIHN0eWxlPSJzdHJva2U6IzE4MTgxODtzdHJva2Utd2lkdGg6MS4wOyIvPjxwYXRoIGQ9Ik00MjAuODc1LDc5Ljc1IEw0MjAuODc1LDgxLjUgTDQyNS44MTI1LDgxLjUgTDQyNS44MTI1LDc5Ljc1IEw0MjAuODc1LDc5Ljc1IFogTTQyMS41NjI1LDgwLjQzNzUgUTQyMS41NjI1LDgwLjQzNzUgNDIxLjU2MjUsNzEuMjUgTDQxOS44MTI1LDcxLjI1IFE0MTkuODEyNSw3MS4yNSA0MTkuODEyNSw4MC40Mzc1IEw0MjEuNTYyNSw4MC40Mzc1IFogTTQyNS4xMjUsODAuNDM3NSBMNDI2Ljg3NSw4MC40Mzc1IFE0MjYuODc1LDgwLjQzNzUgNDI2Ljg3NSw3Ny42MjUgTDQyNS4xMjUsNzcuNjI1IFE0MjUuMTI1LDc3LjYyNSA0MjUuMTI1LDgwLjQzNzUgWiBNNDI1LjEyNSw3MS4yNSBRNDI1LjEyNSw3MS4yNSA0MjUuMTI1LDc0LjA2MjUgTDQyNi44NzUsNzQuMDYyNSBRNDI2Ljg3NSw3NC4wNjI1IDQyNi44NzUsNzEuMjUgTDQyNS4xMjUsNzEuMjUgWiBNNDIwLjg3NSw3MS45Mzc1IEw0MjUuODEyNSw3MS45Mzc1IEw0MjUuODEyNSw3MC4xODc1IEw0MjAuODc1LDcwLjE4NzUgTDQyMC44NzUsNzEuOTM3NSBaICIgZmlsbD0iIzAwMDAwMCIvPjx0ZXh0IGZpbGw9IiMwMDAwMDAiIGZvbnQtZmFtaWx5PSJzYW5zLXNlcmlmIiBmb250LXNpemU9IjE0IiBsZW5ndGhBZGp1c3Q9InNwYWNpbmciIHRleHRMZW5ndGg9IjQ5IiB4PSI0NDMuNzUiIHk9IjgxLjI0MjIiPlN0dWRlbnQ8L3RleHQ+PGxpbmUgc3R5bGU9InN0cm9rZTojMTgxODE4O3N0cm9rZS13aWR0aDowLjU7IiB4MT0iMjUwIiB4Mj0iNjU0IiB5MT0iOTEuNSIgeTI9IjkxLjUiLz48cmVjdCBmaWxsPSJub25lIiBoZWlnaHQ9IjYiIHN0eWxlPSJzdHJva2U6I0M4MjkzMDtzdHJva2Utd2lkdGg6MS4wOyIgd2lkdGg9IjYiIHg9IjI1NyIgeT0iMTAxLjQ5MjIiLz48dGV4dCBmaWxsPSIjMDAwMDAwIiBmb250LWZhbWlseT0ic2Fucy1zZXJpZiIgZm9udC1zaXplPSIxNCIgbGVuZ3RoQWRqdXN0PSJzcGFjaW5nIiB0ZXh0TGVuZ3RoPSI5MiIgeD0iMjY5IiB5PSIxMDguNzM0NCI+bWFqb3I6IHN0cmluZzwvdGV4dD48cmVjdCBmaWxsPSJub25lIiBoZWlnaHQ9IjYiIHN0eWxlPSJzdHJva2U6I0M4MjkzMDtzdHJva2Utd2lkdGg6MS4wOyIgd2lkdGg9IjYiIHg9IjI1NyIgeT0iMTE2LjQ3NjYiLz48dGV4dCBmaWxsPSIjMDAwMDAwIiBmb250LWZhbWlseT0ic2Fucy1zZXJpZiIgZm9udC1zaXplPSIxNCIgbGVuZ3RoQWRqdXN0PSJzcGFjaW5nIiB0ZXh0TGVuZ3RoPSI3MCIgeD0iMjY5IiB5PSIxMjMuNzE4OCI+R1BBOiBmbG9hdDwvdGV4dD48cmVjdCBmaWxsPSJub25lIiBoZWlnaHQ9IjYiIHN0eWxlPSJzdHJva2U6I0M4MjkzMDtzdHJva2Utd2lkdGg6MS4wOyIgd2lkdGg9IjYiIHg9IjI1NyIgeT0iMTMxLjQ2MDkiLz48dGV4dCBmaWxsPSIjMDAwMDAwIiBmb250LWZhbWlseT0ic2Fucy1zZXJpZiIgZm9udC1zaXplPSIxNCIgbGVuZ3RoQWRqdXN0PSJzcGFjaW5nIiB0ZXh0TGVuZ3RoPSI5OSIgeD0iMjY5IiB5PSIxMzguNzAzMSI+cmVzdW1lOiBzdHJpbmc8L3RleHQ+PHJlY3QgZmlsbD0ibm9uZSIgaGVpZ2h0PSI2IiBzdHlsZT0ic3Ryb2tlOiNDODI5MzA7c3Ryb2tlLXdpZHRoOjEuMDsiIHdpZHRoPSI2IiB4PSIyNTciIHk9IjE0Ni40NDUzIi8+PHRleHQgZmlsbD0iIzAwMDAwMCIgZm9udC1mYW1pbHk9InNhbnMtc2VyaWYiIGZvbnQtc2l6ZT0iMTQiIGxlbmd0aEFkanVzdD0ic3BhY2luZyIgdGV4dExlbmd0aD0iMjAzIiB4PSIyNjkiIHk9IjE1My42ODc1Ij5pbnRlcm5zaGlwczogTGlzdCZsdDtJbnRlcm5zaGlwJmd0OzwvdGV4dD48bGluZSBzdHlsZT0ic3Ryb2tlOiMxODE4MTg7c3Ryb2tlLXdpZHRoOjAuNTsiIHgxPSIyNTAiIHgyPSI2NTQiIHkxPSIxNTkuNDM3NSIgeTI9IjE1OS40Mzc1Ii8+PGVsbGlwc2UgY3g9IjI2MCIgY3k9IjE3Mi40Mjk3IiBmaWxsPSIjODRCRTg0IiByeD0iMyIgcnk9IjMiIHN0eWxlPSJzdHJva2U6IzAzODA0ODtzdHJva2Utd2lkdGg6MS4wOyIvPjx0ZXh0IGZpbGw9IiMwMDAwMDAiIGZvbnQtZmFtaWx5PSJzYW5zLXNlcmlmIiBmb250LXNpemU9IjE0IiBsZW5ndGhBZGp1c3Q9InNwYWNpbmciIHRleHRMZW5ndGg9IjM4MCIgeD0iMjY5IiB5PSIxNzYuNjcxOSI+YXBwbHlUb0ludGVybnNoaXAoaW50ZXJuc2hpcDogSW50ZXJuc2hpcCk6IEFwcGxpY2F0aW9uPC90ZXh0PjwvZz48IS0tY2xhc3MgRW1wbG95ZXItLT48ZyBpZD0iZWxlbV9FbXBsb3llciI+PHJlY3QgY29kZUxpbmU9IjE4IiBmaWxsPSIjRjFGMUYxIiBoZWlnaHQ9IjEwNy45Mzc1IiBpZD0iRW1wbG95ZXIiIHJ4PSIyLjUiIHJ5PSIyLjUiIHN0eWxlPSJzdHJva2U6IzE4MTgxODtzdHJva2Utd2lkdGg6MC41OyIgd2lkdGg9IjM3OCIgeD0iNjkwIiB5PSI2NyIvPjxlbGxpcHNlIGN4PSI4NDYuMjUiIGN5PSI4MyIgZmlsbD0iI0FERDFCMiIgcng9IjExIiByeT0iMTEiIHN0eWxlPSJzdHJva2U6IzE4MTgxODtzdHJva2Utd2lkdGg6MS4wOyIvPjxwYXRoIGQ9Ik04NDMuODc1LDg3LjI1IEw4NDMuODc1LDg5IEw4NDguODEyNSw4OSBMODQ4LjgxMjUsODcuMjUgTDg0My44NzUsODcuMjUgWiBNODQ0LjU2MjUsODcuOTM3NSBRODQ0LjU2MjUsODcuOTM3NSA4NDQuNTYyNSw3OC43NSBMODQyLjgxMjUsNzguNzUgUTg0Mi44MTI1LDc4Ljc1IDg0Mi44MTI1LDg3LjkzNzUgTDg0NC41NjI1LDg3LjkzNzUgWiBNODQ4LjEyNSw4Ny45Mzc1IEw4NDkuODc1LDg3LjkzNzUgUTg0OS44NzUsODcuOTM3NSA4NDkuODc1LDg1LjEyNSBMODQ4LjEyNSw4NS4xMjUgUTg0OC4xMjUsODUuMTI1IDg0OC4xMjUsODcuOTM3NSBaIE04NDguMTI1LDc4Ljc1IFE4NDguMTI1LDc4Ljc1IDg0OC4xMjUsODEuNTYyNSBMODQ5Ljg3NSw4MS41NjI1IFE4NDkuODc1LDgxLjU2MjUgODQ5Ljg3NSw3OC43NSBMODQ4LjEyNSw3OC43NSBaIE04NDMuODc1LDc5LjQzNzUgTDg0OC44MTI1LDc5LjQzNzUgTDg0OC44MTI1LDc3LjY4NzUgTDg0My44NzUsNzcuNjg3NSBMODQzLjg3NSw3OS40Mzc1IFogIiBmaWxsPSIjMDAwMDAwIi8+PHRleHQgZmlsbD0iIzAwMDAwMCIgZm9udC1mYW1pbHk9InNhbnMtc2VyaWYiIGZvbnQtc2l6ZT0iMTQiIGxlbmd0aEFkanVzdD0ic3BhY2luZyIgdGV4dExlbmd0aD0iNTciIHg9Ijg2Ni43NSIgeT0iODguNzQyMiI+RW1wbG95ZXI8L3RleHQ+PGxpbmUgc3R5bGU9InN0cm9rZTojMTgxODE4O3N0cm9rZS13aWR0aDowLjU7IiB4MT0iNjkxIiB4Mj0iMTA2NyIgeTE9Ijk5IiB5Mj0iOTkiLz48cmVjdCBmaWxsPSJub25lIiBoZWlnaHQ9IjYiIHN0eWxlPSJzdHJva2U6I0M4MjkzMDtzdHJva2Utd2lkdGg6MS4wOyIgd2lkdGg9IjYiIHg9IjY5OCIgeT0iMTA4Ljk5MjIiLz48dGV4dCBmaWxsPSIjMDAwMDAwIiBmb250LWZhbWlseT0ic2Fucy1zZXJpZiIgZm9udC1zaXplPSIxNCIgbGVuZ3RoQWRqdXN0PSJzcGFjaW5nIiB0ZXh0TGVuZ3RoPSIxMzUiIHg9IjcxMCIgeT0iMTE2LjIzNDQiPmNvbXBhbnlOYW1lOiBzdHJpbmc8L3RleHQ+PHJlY3QgZmlsbD0ibm9uZSIgaGVpZ2h0PSI2IiBzdHlsZT0ic3Ryb2tlOiNDODI5MzA7c3Ryb2tlLXdpZHRoOjEuMDsiIHdpZHRoPSI2IiB4PSI2OTgiIHk9IjEyMy45NzY2Ii8+PHRleHQgZmlsbD0iIzAwMDAwMCIgZm9udC1mYW1pbHk9InNhbnMtc2VyaWYiIGZvbnQtc2l6ZT0iMTQiIGxlbmd0aEFkanVzdD0ic3BhY2luZyIgdGV4dExlbmd0aD0iMTgzIiB4PSI3MTAiIHk9IjEzMS4yMTg4Ij5jb21wYW55RGVzY3JpcHRpb246IHN0cmluZzwvdGV4dD48cmVjdCBmaWxsPSJub25lIiBoZWlnaHQ9IjYiIHN0eWxlPSJzdHJva2U6I0M4MjkzMDtzdHJva2Utd2lkdGg6MS4wOyIgd2lkdGg9IjYiIHg9IjY5OCIgeT0iMTM4Ljk2MDkiLz48dGV4dCBmaWxsPSIjMDAwMDAwIiBmb250LWZhbWlseT0ic2Fucy1zZXJpZiIgZm9udC1zaXplPSIxNCIgbGVuZ3RoQWRqdXN0PSJzcGFjaW5nIiB0ZXh0TGVuZ3RoPSIyMDMiIHg9IjcxMCIgeT0iMTQ2LjIwMzEiPmludGVybnNoaXBzOiBMaXN0Jmx0O0ludGVybnNoaXAmZ3Q7PC90ZXh0PjxsaW5lIHN0eWxlPSJzdHJva2U6IzE4MTgxODtzdHJva2Utd2lkdGg6MC41OyIgeDE9IjY5MSIgeDI9IjEwNjciIHkxPSIxNTEuOTUzMSIgeTI9IjE1MS45NTMxIi8+PGVsbGlwc2UgY3g9IjcwMSIgY3k9IjE2NC45NDUzIiBmaWxsPSIjODRCRTg0IiByeD0iMyIgcnk9IjMiIHN0eWxlPSJzdHJva2U6IzAzODA0ODtzdHJva2Utd2lkdGg6MS4wOyIvPjx0ZXh0IGZpbGw9IiMwMDAwMDAiIGZvbnQtZmFtaWx5PSJzYW5zLXNlcmlmIiBmb250LXNpemU9IjE0IiBsZW5ndGhBZGp1c3Q9InNwYWNpbmciIHRleHRMZW5ndGg9IjM1MiIgeD0iNzEwIiB5PSIxNjkuMTg3NSI+cG9zdEludGVybnNoaXAoaW50ZXJuc2hpcDogSW50ZXJuc2hpcCk6IEludGVybnNoaXA8L3RleHQ+PC9nPjwhLS1jbGFzcyBBZG1pbi0tPjxnIGlkPSJlbGVtX0FkbWluIj48cmVjdCBjb2RlTGluZT0iMjUiIGZpbGw9IiNGMUYxRjEiIGhlaWdodD0iNzcuOTY4OCIgaWQ9IkFkbWluIiByeD0iMi41IiByeT0iMi41IiBzdHlsZT0ic3Ryb2tlOiMxODE4MTg7c3Ryb2tlLXdpZHRoOjAuNTsiIHdpZHRoPSIzMDgiIHg9IjExMDMiIHk9IjgyIi8+PGVsbGlwc2UgY3g9IjEyMzQuNzUiIGN5PSI5OCIgZmlsbD0iI0FERDFCMiIgcng9IjExIiByeT0iMTEiIHN0eWxlPSJzdHJva2U6IzE4MTgxODtzdHJva2Utd2lkdGg6MS4wOyIvPjxwYXRoIGQ9Ik0xMjMyLjM3NSwxMDIuMjUgTDEyMzIuMzc1LDEwNCBMMTIzNy4zMTI1LDEwNCBMMTIzNy4zMTI1LDEwMi4yNSBMMTIzMi4zNzUsMTAyLjI1IFogTTEyMzMuMDYyNSwxMDIuOTM3NSBRMTIzMy4wNjI1LDEwMi45Mzc1IDEyMzMuMDYyNSw5My43NSBMMTIzMS4zMTI1LDkzLjc1IFExMjMxLjMxMjUsOTMuNzUgMTIzMS4zMTI1LDEwMi45Mzc1IEwxMjMzLjA2MjUsMTAyLjkzNzUgWiBNMTIzNi42MjUsMTAyLjkzNzUgTDEyMzguMzc1LDEwMi45Mzc1IFExMjM4LjM3NSwxMDIuOTM3NSAxMjM4LjM3NSwxMDAuMTI1IEwxMjM2LjYyNSwxMDAuMTI1IFExMjM2LjYyNSwxMDAuMTI1IDEyMzYuNjI1LDEwMi45Mzc1IFogTTEyMzYuNjI1LDkzLjc1IFExMjM2LjYyNSw5My43NSAxMjM2LjYyNSw5Ni41NjI1IEwxMjM4LjM3NSw5Ni41NjI1IFExMjM4LjM3NSw5Ni41NjI1IDEyMzguMzc1LDkzLjc1IEwxMjM2LjYyNSw5My43NSBaIE0xMjMyLjM3NSw5NC40Mzc1IEwxMjM3LjMxMjUsOTQuNDM3NSBMMTIzNy4zMTI1LDkyLjY4NzUgTDEyMzIuMzc1LDkyLjY4NzUgTDEyMzIuMzc1LDk0LjQzNzUgWiAiIGZpbGw9IiMwMDAwMDAiLz48dGV4dCBmaWxsPSIjMDAwMDAwIiBmb250LWZhbWlseT0ic2Fucy1zZXJpZiIgZm9udC1zaXplPSIxNCIgbGVuZ3RoQWRqdXN0PSJzcGFjaW5nIiB0ZXh0TGVuZ3RoPSIzNiIgeD0iMTI1NS4yNSIgeT0iMTAzLjc0MjIiPkFkbWluPC90ZXh0PjxsaW5lIHN0eWxlPSJzdHJva2U6IzE4MTgxODtzdHJva2Utd2lkdGg6MC41OyIgeDE9IjExMDQiIHgyPSIxNDEwIiB5MT0iMTE0IiB5Mj0iMTE0Ii8+PGxpbmUgc3R5bGU9InN0cm9rZTojMTgxODE4O3N0cm9rZS13aWR0aDowLjU7IiB4MT0iMTEwNCIgeDI9IjE0MTAiIHkxPSIxMjIiIHkyPSIxMjIiLz48ZWxsaXBzZSBjeD0iMTExNCIgY3k9IjEzNC45OTIyIiBmaWxsPSIjODRCRTg0IiByeD0iMyIgcnk9IjMiIHN0eWxlPSJzdHJva2U6IzAzODA0ODtzdHJva2Utd2lkdGg6MS4wOyIvPjx0ZXh0IGZpbGw9IiMwMDAwMDAiIGZvbnQtZmFtaWx5PSJzYW5zLXNlcmlmIiBmb250LXNpemU9IjE0IiBsZW5ndGhBZGp1c3Q9InNwYWNpbmciIHRleHRMZW5ndGg9IjI4MiIgeD0iMTEyMyIgeT0iMTM5LjIzNDQiPnZlcmlmeUludGVybnNoaXAoaW50ZXJuc2hpcDogSW50ZXJuc2hpcCk8L3RleHQ+PGVsbGlwc2UgY3g9IjExMTQiIGN5PSIxNDkuOTc2NiIgZmlsbD0iIzg0QkU4NCIgcng9IjMiIHJ5PSIzIiBzdHlsZT0ic3Ryb2tlOiMwMzgwNDg7c3Ryb2tlLXdpZHRoOjEuMDsiLz48dGV4dCBmaWxsPSIjMDAwMDAwIiBmb250LWZhbWlseT0ic2Fucy1zZXJpZiIgZm9udC1zaXplPSIxNCIgbGVuZ3RoQWRqdXN0PSJzcGFjaW5nIiB0ZXh0TGVuZ3RoPSIyODIiIHg9IjExMjMiIHk9IjE1NC4yMTg4Ij5kZWxldGVJbnRlcm5zaGlwKGludGVybnNoaXA6IEludGVybnNoaXApPC90ZXh0PjwvZz48IS0tY2xhc3MgSW50ZXJuc2hpcC0tPjxnIGlkPSJlbGVtX0ludGVybnNoaXAiPjxyZWN0IGNvZGVMaW5lPSIzMCIgZmlsbD0iI0YxRjFGMSIgaGVpZ2h0PSIyMjcuODEyNSIgaWQ9IkludGVybnNoaXAiIHJ4PSIyLjUiIHJ5PSIyLjUiIHN0eWxlPSJzdHJva2U6IzE4MTgxODtzdHJva2Utd2lkdGg6MC41OyIgd2lkdGg9IjI0MyIgeD0iMTQ0Ni41IiB5PSI3Ii8+PGVsbGlwc2UgY3g9IjE1MjguNzUiIGN5PSIyMyIgZmlsbD0iI0FERDFCMiIgcng9IjExIiByeT0iMTEiIHN0eWxlPSJzdHJva2U6IzE4MTgxODtzdHJva2Utd2lkdGg6MS4wOyIvPjxwYXRoIGQ9Ik0xNTI2LjM3NSwyNy4yNSBMMTUyNi4zNzUsMjkgTDE1MzEuMzEyNSwyOSBMMTUzMS4zMTI1LDI3LjI1IEwxNTI2LjM3NSwyNy4yNSBaIE0xNTI3LjA2MjUsMjcuOTM3NSBRMTUyNy4wNjI1LDI3LjkzNzUgMTUyNy4wNjI1LDE4Ljc1IEwxNTI1LjMxMjUsMTguNzUgUTE1MjUuMzEyNSwxOC43NSAxNTI1LjMxMjUsMjcuOTM3NSBMMTUyNy4wNjI1LDI3LjkzNzUgWiBNMTUzMC42MjUsMjcuOTM3NSBMMTUzMi4zNzUsMjcuOTM3NSBRMTUzMi4zNzUsMjcuOTM3NSAxNTMyLjM3NSwyNS4xMjUgTDE1MzAuNjI1LDI1LjEyNSBRMTUzMC42MjUsMjUuMTI1IDE1MzAuNjI1LDI3LjkzNzUgWiBNMTUzMC42MjUsMTguNzUgUTE1MzAuNjI1LDE4Ljc1IDE1MzAuNjI1LDIxLjU2MjUgTDE1MzIuMzc1LDIxLjU2MjUgUTE1MzIuMzc1LDIxLjU2MjUgMTUzMi4zNzUsMTguNzUgTDE1MzAuNjI1LDE4Ljc1IFogTTE1MjYuMzc1LDE5LjQzNzUgTDE1MzEuMzEyNSwxOS40Mzc1IEwxNTMxLjMxMjUsMTcuNjg3NSBMMTUyNi4zNzUsMTcuNjg3NSBMMTUyNi4zNzUsMTkuNDM3NSBaICIgZmlsbD0iIzAwMDAwMCIvPjx0ZXh0IGZpbGw9IiMwMDAwMDAiIGZvbnQtZmFtaWx5PSJzYW5zLXNlcmlmIiBmb250LXNpemU9IjE0IiBsZW5ndGhBZGp1c3Q9InNwYWNpbmciIHRleHRMZW5ndGg9IjcwIiB4PSIxNTQ5LjI1IiB5PSIyOC43NDIyIj5JbnRlcm5zaGlwPC90ZXh0PjxsaW5lIHN0eWxlPSJzdHJva2U6IzE4MTgxODtzdHJva2Utd2lkdGg6MC41OyIgeDE9IjE0NDcuNSIgeDI9IjE2ODguNSIgeTE9IjM5IiB5Mj0iMzkiLz48cmVjdCBmaWxsPSJub25lIiBoZWlnaHQ9IjYiIHN0eWxlPSJzdHJva2U6I0M4MjkzMDtzdHJva2Utd2lkdGg6MS4wOyIgd2lkdGg9IjYiIHg9IjE0NTQuNSIgeT0iNDguOTkyMiIvPjx0ZXh0IGZpbGw9IiMwMDAwMDAiIGZvbnQtZmFtaWx5PSJzYW5zLXNlcmlmIiBmb250LXNpemU9IjE0IiBsZW5ndGhBZGp1c3Q9InNwYWNpbmciIHRleHRMZW5ndGg9IjQ5IiB4PSIxNDY2LjUiIHk9IjU2LjIzNDQiPmlkOiBpbnQ8L3RleHQ+PHJlY3QgZmlsbD0ibm9uZSIgaGVpZ2h0PSI2IiBzdHlsZT0ic3Ryb2tlOiNDODI5MzA7c3Ryb2tlLXdpZHRoOjEuMDsiIHdpZHRoPSI2IiB4PSIxNDU0LjUiIHk9IjYzLjk3NjYiLz48dGV4dCBmaWxsPSIjMDAwMDAwIiBmb250LWZhbWlseT0ic2Fucy1zZXJpZiIgZm9udC1zaXplPSIxNCIgbGVuZ3RoQWRqdXN0PSJzcGFjaW5nIiB0ZXh0TGVuZ3RoPSI5MSIgeD0iMTQ2Ni41IiB5PSI3MS4yMTg4Ij50aXRsZTogc3RyaW5nPC90ZXh0PjxyZWN0IGZpbGw9Im5vbmUiIGhlaWdodD0iNiIgc3R5bGU9InN0cm9rZTojQzgyOTMwO3N0cm9rZS13aWR0aDoxLjA7IiB3aWR0aD0iNiIgeD0iMTQ1NC41IiB5PSI3OC45NjA5Ii8+PHRleHQgZmlsbD0iIzAwMDAwMCIgZm9udC1mYW1pbHk9InNhbnMtc2VyaWYiIGZvbnQtc2l6ZT0iMTQiIGxlbmd0aEFkanVzdD0ic3BhY2luZyIgdGV4dExlbmd0aD0iMTMzIiB4PSIxNDY2LjUiIHk9Ijg2LjIwMzEiPmRlc2NyaXB0aW9uOiBzdHJpbmc8L3RleHQ+PHJlY3QgZmlsbD0ibm9uZSIgaGVpZ2h0PSI2IiBzdHlsZT0ic3Ryb2tlOiNDODI5MzA7c3Ryb2tlLXdpZHRoOjEuMDsiIHdpZHRoPSI2IiB4PSIxNDU0LjUiIHk9IjkzLjk0NTMiLz48dGV4dCBmaWxsPSIjMDAwMDAwIiBmb250LWZhbWlseT0ic2Fucy1zZXJpZiIgZm9udC1zaXplPSIxNCIgbGVuZ3RoQWRqdXN0PSJzcGFjaW5nIiB0ZXh0TGVuZ3RoPSIxMTIiIHg9IjE0NjYuNSIgeT0iMTAxLjE4NzUiPmxvY2F0aW9uOiBzdHJpbmc8L3RleHQ+PHJlY3QgZmlsbD0ibm9uZSIgaGVpZ2h0PSI2IiBzdHlsZT0ic3Ryb2tlOiNDODI5MzA7c3Ryb2tlLXdpZHRoOjEuMDsiIHdpZHRoPSI2IiB4PSIxNDU0LjUiIHk9IjEwOC45Mjk3Ii8+PHRleHQgZmlsbD0iIzAwMDAwMCIgZm9udC1mYW1pbHk9InNhbnMtc2VyaWYiIGZvbnQtc2l6ZT0iMTQiIGxlbmd0aEFkanVzdD0ic3BhY2luZyIgdGV4dExlbmd0aD0iOTEiIHg9IjE0NjYuNSIgeT0iMTE2LjE3MTkiPnNhbGFyeTogZmxvYXQ8L3RleHQ+PHJlY3QgZmlsbD0ibm9uZSIgaGVpZ2h0PSI2IiBzdHlsZT0ic3Ryb2tlOiNDODI5MzA7c3Ryb2tlLXdpZHRoOjEuMDsiIHdpZHRoPSI2IiB4PSIxNDU0LjUiIHk9IjEyMy45MTQxIi8+PHRleHQgZmlsbD0iIzAwMDAwMCIgZm9udC1mYW1pbHk9InNhbnMtc2VyaWYiIGZvbnQtc2l6ZT0iMTQiIGxlbmd0aEFkanVzdD0ic3BhY2luZyIgdGV4dExlbmd0aD0iMTc2IiB4PSIxNDY2LjUiIHk9IjEzMS4xNTYzIj5yZXF1aXJlbWVudHM6IExpc3QmbHQ7U2tpbGwmZ3Q7PC90ZXh0PjxyZWN0IGZpbGw9Im5vbmUiIGhlaWdodD0iNiIgc3R5bGU9InN0cm9rZTojQzgyOTMwO3N0cm9rZS13aWR0aDoxLjA7IiB3aWR0aD0iNiIgeD0iMTQ1NC41IiB5PSIxMzguODk4NCIvPjx0ZXh0IGZpbGw9IiMwMDAwMDAiIGZvbnQtZmFtaWx5PSJzYW5zLXNlcmlmIiBmb250LXNpemU9IjE0IiBsZW5ndGhBZGp1c3Q9InNwYWNpbmciIHRleHRMZW5ndGg9IjE4MiIgeD0iMTQ2Ni41IiB5PSIxNDYuMTQwNiI+Y2F0ZWdvcmllczogTGlzdCZsdDtDYXRlZ29yeSZndDs8L3RleHQ+PHJlY3QgZmlsbD0ibm9uZSIgaGVpZ2h0PSI2IiBzdHlsZT0ic3Ryb2tlOiNDODI5MzA7c3Ryb2tlLXdpZHRoOjEuMDsiIHdpZHRoPSI2IiB4PSIxNDU0LjUiIHk9IjE1My44ODI4Ii8+PHRleHQgZmlsbD0iIzAwMDAwMCIgZm9udC1mYW1pbHk9InNhbnMtc2VyaWYiIGZvbnQtc2l6ZT0iMTQiIGxlbmd0aEFkanVzdD0ic3BhY2luZyIgdGV4dExlbmd0aD0iMjE3IiB4PSIxNDY2LjUiIHk9IjE2MS4xMjUiPmFwcGxpY2F0aW9uczogTGlzdCZsdDtBcHBsaWNhdGlvbiZndDs8L3RleHQ+PHJlY3QgZmlsbD0ibm9uZSIgaGVpZ2h0PSI2IiBzdHlsZT0ic3Ryb2tlOiNDODI5MzA7c3Ryb2tlLXdpZHRoOjEuMDsiIHdpZHRoPSI2IiB4PSIxNDU0LjUiIHk9IjE2OC44NjcyIi8+PHRleHQgZmlsbD0iIzAwMDAwMCIgZm9udC1mYW1pbHk9InNhbnMtc2VyaWYiIGZvbnQtc2l6ZT0iMTQiIGxlbmd0aEFkanVzdD0ic3BhY2luZyIgdGV4dExlbmd0aD0iMTQ5IiB4PSIxNDY2LjUiIHk9IjE3Ni4xMDk0Ij5yZXZpZXdzOiBMaXN0Jmx0O1JldmlldyZndDs8L3RleHQ+PHJlY3QgZmlsbD0ibm9uZSIgaGVpZ2h0PSI2IiBzdHlsZT0ic3Ryb2tlOiNDODI5MzA7c3Ryb2tlLXdpZHRoOjEuMDsiIHdpZHRoPSI2IiB4PSIxNDU0LjUiIHk9IjE4My44NTE2Ii8+PHRleHQgZmlsbD0iIzAwMDAwMCIgZm9udC1mYW1pbHk9InNhbnMtc2VyaWYiIGZvbnQtc2l6ZT0iMTQiIGxlbmd0aEFkanVzdD0ic3BhY2luZyIgdGV4dExlbmd0aD0iMTE0IiB4PSIxNDY2LjUiIHk9IjE5MS4wOTM4Ij5jb21wYW55OiBDb21wYW55PC90ZXh0PjxyZWN0IGZpbGw9Im5vbmUiIGhlaWdodD0iNiIgc3R5bGU9InN0cm9rZTojQzgyOTMwO3N0cm9rZS13aWR0aDoxLjA7IiB3aWR0aD0iNiIgeD0iMTQ1NC41IiB5PSIxOTguODM1OSIvPjx0ZXh0IGZpbGw9IiMwMDAwMDAiIGZvbnQtZmFtaWx5PSJzYW5zLXNlcmlmIiBmb250LXNpemU9IjE0IiBsZW5ndGhBZGp1c3Q9InNwYWNpbmciIHRleHRMZW5ndGg9IjE5OCIgeD0iMTQ2Ni41IiB5PSIyMDYuMDc4MSI+cmFua2luZ1N5c3RlbTogUmFua2luZ1N5c3RlbTwvdGV4dD48bGluZSBzdHlsZT0ic3Ryb2tlOiMxODE4MTg7c3Ryb2tlLXdpZHRoOjAuNTsiIHgxPSIxNDQ3LjUiIHgyPSIxNjg4LjUiIHkxPSIyMTEuODI4MSIgeTI9IjIxMS44MjgxIi8+PGVsbGlwc2UgY3g9IjE0NTcuNSIgY3k9IjIyNC44MjAzIiBmaWxsPSIjODRCRTg0IiByeD0iMyIgcnk9IjMiIHN0eWxlPSJzdHJva2U6IzAzODA0ODtzdHJva2Utd2lkdGg6MS4wOyIvPjx0ZXh0IGZpbGw9IiMwMDAwMDAiIGZvbnQtZmFtaWx5PSJzYW5zLXNlcmlmIiBmb250LXNpemU9IjE0IiBsZW5ndGhBZGp1c3Q9InNwYWNpbmciIHRleHRMZW5ndGg9IjEwNyIgeD0iMTQ2Ni41IiB5PSIyMjkuMDYyNSI+dXBkYXRlUmFua2luZygpPC90ZXh0PjwvZz48IS0tY2xhc3MgQ2F0ZWdvcnktLT48ZyBpZD0iZWxlbV9DYXRlZ29yeSI+PHJlY3QgY29kZUxpbmU9IjQ1IiBmaWxsPSIjRjFGMUYxIiBoZWlnaHQ9IjkyLjk1MzEiIGlkPSJDYXRlZ29yeSIgcng9IjIuNSIgcnk9IjIuNSIgc3R5bGU9InN0cm9rZTojMTgxODE4O3N0cm9rZS13aWR0aDowLjU7IiB3aWR0aD0iMjI5IiB4PSIxMS41IiB5PSIzMTcuNSIvPjxlbGxpcHNlIGN4PSI5My43NSIgY3k9IjMzMy41IiBmaWxsPSIjQUREMUIyIiByeD0iMTEiIHJ5PSIxMSIgc3R5bGU9InN0cm9rZTojMTgxODE4O3N0cm9rZS13aWR0aDoxLjA7Ii8+PHBhdGggZD0iTTkxLjM3NSwzMzcuNzUgTDkxLjM3NSwzMzkuNSBMOTYuMzEyNSwzMzkuNSBMOTYuMzEyNSwzMzcuNzUgTDkxLjM3NSwzMzcuNzUgWiBNOTIuMDYyNSwzMzguNDM3NSBROTIuMDYyNSwzMzguNDM3NSA5Mi4wNjI1LDMyOS4yNSBMOTAuMzEyNSwzMjkuMjUgUTkwLjMxMjUsMzI5LjI1IDkwLjMxMjUsMzM4LjQzNzUgTDkyLjA2MjUsMzM4LjQzNzUgWiBNOTUuNjI1LDMzOC40Mzc1IEw5Ny4zNzUsMzM4LjQzNzUgUTk3LjM3NSwzMzguNDM3NSA5Ny4zNzUsMzM1LjYyNSBMOTUuNjI1LDMzNS42MjUgUTk1LjYyNSwzMzUuNjI1IDk1LjYyNSwzMzguNDM3NSBaIE05NS42MjUsMzI5LjI1IFE5NS42MjUsMzI5LjI1IDk1LjYyNSwzMzIuMDYyNSBMOTcuMzc1LDMzMi4wNjI1IFE5Ny4zNzUsMzMyLjA2MjUgOTcuMzc1LDMyOS4yNSBMOTUuNjI1LDMyOS4yNSBaIE05MS4zNzUsMzI5LjkzNzUgTDk2LjMxMjUsMzI5LjkzNzUgTDk2LjMxMjUsMzI4LjE4NzUgTDkxLjM3NSwzMjguMTg3NSBMOTEuMzc1LDMyOS45Mzc1IFogIiBmaWxsPSIjMDAwMDAwIi8+PHRleHQgZmlsbD0iIzAwMDAwMCIgZm9udC1mYW1pbHk9InNhbnMtc2VyaWYiIGZvbnQtc2l6ZT0iMTQiIGxlbmd0aEFkanVzdD0ic3BhY2luZyIgdGV4dExlbmd0aD0iNTYiIHg9IjExNC4yNSIgeT0iMzM5LjI0MjIiPkNhdGVnb3J5PC90ZXh0PjxsaW5lIHN0eWxlPSJzdHJva2U6IzE4MTgxODtzdHJva2Utd2lkdGg6MC41OyIgeDE9IjEyLjUiIHgyPSIyMzkuNSIgeTE9IjM0OS41IiB5Mj0iMzQ5LjUiLz48cmVjdCBmaWxsPSJub25lIiBoZWlnaHQ9IjYiIHN0eWxlPSJzdHJva2U6I0M4MjkzMDtzdHJva2Utd2lkdGg6MS4wOyIgd2lkdGg9IjYiIHg9IjE5LjUiIHk9IjM1OS40OTIyIi8+PHRleHQgZmlsbD0iIzAwMDAwMCIgZm9udC1mYW1pbHk9InNhbnMtc2VyaWYiIGZvbnQtc2l6ZT0iMTQiIGxlbmd0aEFkanVzdD0ic3BhY2luZyIgdGV4dExlbmd0aD0iODUiIHg9IjMxLjUiIHk9IjM2Ni43MzQ0Ij5uYW1lOiBzdHJpbmc8L3RleHQ+PHJlY3QgZmlsbD0ibm9uZSIgaGVpZ2h0PSI2IiBzdHlsZT0ic3Ryb2tlOiNDODI5MzA7c3Ryb2tlLXdpZHRoOjEuMDsiIHdpZHRoPSI2IiB4PSIxOS41IiB5PSIzNzQuNDc2NiIvPjx0ZXh0IGZpbGw9IiMwMDAwMDAiIGZvbnQtZmFtaWx5PSJzYW5zLXNlcmlmIiBmb250LXNpemU9IjE0IiBsZW5ndGhBZGp1c3Q9InNwYWNpbmciIHRleHRMZW5ndGg9IjEzMyIgeD0iMzEuNSIgeT0iMzgxLjcxODgiPmRlc2NyaXB0aW9uOiBzdHJpbmc8L3RleHQ+PHJlY3QgZmlsbD0ibm9uZSIgaGVpZ2h0PSI2IiBzdHlsZT0ic3Ryb2tlOiNDODI5MzA7c3Ryb2tlLXdpZHRoOjEuMDsiIHdpZHRoPSI2IiB4PSIxOS41IiB5PSIzODkuNDYwOSIvPjx0ZXh0IGZpbGw9IiMwMDAwMDAiIGZvbnQtZmFtaWx5PSJzYW5zLXNlcmlmIiBmb250LXNpemU9IjE0IiBsZW5ndGhBZGp1c3Q9InNwYWNpbmciIHRleHRMZW5ndGg9IjIwMyIgeD0iMzEuNSIgeT0iMzk2LjcwMzEiPmludGVybnNoaXBzOiBMaXN0Jmx0O0ludGVybnNoaXAmZ3Q7PC90ZXh0PjxsaW5lIHN0eWxlPSJzdHJva2U6IzE4MTgxODtzdHJva2Utd2lkdGg6MC41OyIgeDE9IjEyLjUiIHgyPSIyMzkuNSIgeTE9IjQwMi40NTMxIiB5Mj0iNDAyLjQ1MzEiLz48L2c+PCEtLWNsYXNzIFNraWxsLS0+PGcgaWQ9ImVsZW1fU2tpbGwiPjxyZWN0IGNvZGVMaW5lPSI1MSIgZmlsbD0iI0YxRjFGMSIgaGVpZ2h0PSI5Mi45NTMxIiBpZD0iU2tpbGwiIHJ4PSIyLjUiIHJ5PSIyLjUiIHN0eWxlPSJzdHJva2U6IzE4MTgxODtzdHJva2Utd2lkdGg6MC41OyIgd2lkdGg9IjIyOSIgeD0iMjc1LjUiIHk9IjMxNy41Ii8+PGVsbGlwc2UgY3g9IjM2OC4yNSIgY3k9IjMzMy41IiBmaWxsPSIjQUREMUIyIiByeD0iMTEiIHJ5PSIxMSIgc3R5bGU9InN0cm9rZTojMTgxODE4O3N0cm9rZS13aWR0aDoxLjA7Ii8+PHBhdGggZD0iTTM2NS44NzUsMzM3Ljc1IEwzNjUuODc1LDMzOS41IEwzNzAuODEyNSwzMzkuNSBMMzcwLjgxMjUsMzM3Ljc1IEwzNjUuODc1LDMzNy43NSBaIE0zNjYuNTYyNSwzMzguNDM3NSBRMzY2LjU2MjUsMzM4LjQzNzUgMzY2LjU2MjUsMzI5LjI1IEwzNjQuODEyNSwzMjkuMjUgUTM2NC44MTI1LDMyOS4yNSAzNjQuODEyNSwzMzguNDM3NSBMMzY2LjU2MjUsMzM4LjQzNzUgWiBNMzcwLjEyNSwzMzguNDM3NSBMMzcxLjg3NSwzMzguNDM3NSBRMzcxLjg3NSwzMzguNDM3NSAzNzEuODc1LDMzNS42MjUgTDM3MC4xMjUsMzM1LjYyNSBRMzcwLjEyNSwzMzUuNjI1IDM3MC4xMjUsMzM4LjQzNzUgWiBNMzcwLjEyNSwzMjkuMjUgUTM3MC4xMjUsMzI5LjI1IDM3MC4xMjUsMzMyLjA2MjUgTDM3MS44NzUsMzMyLjA2MjUgUTM3MS44NzUsMzMyLjA2MjUgMzcxLjg3NSwzMjkuMjUgTDM3MC4xMjUsMzI5LjI1IFogTTM2NS44NzUsMzI5LjkzNzUgTDM3MC44MTI1LDMyOS45Mzc1IEwzNzAuODEyNSwzMjguMTg3NSBMMzY1Ljg3NSwzMjguMTg3NSBMMzY1Ljg3NSwzMjkuOTM3NSBaICIgZmlsbD0iIzAwMDAwMCIvPjx0ZXh0IGZpbGw9IiMwMDAwMDAiIGZvbnQtZmFtaWx5PSJzYW5zLXNlcmlmIiBmb250LXNpemU9IjE0IiBsZW5ndGhBZGp1c3Q9InNwYWNpbmciIHRleHRMZW5ndGg9IjM1IiB4PSIzODguNzUiIHk9IjMzOS4yNDIyIj5Ta2lsbDwvdGV4dD48bGluZSBzdHlsZT0ic3Ryb2tlOiMxODE4MTg7c3Ryb2tlLXdpZHRoOjAuNTsiIHgxPSIyNzYuNSIgeDI9IjUwMy41IiB5MT0iMzQ5LjUiIHkyPSIzNDkuNSIvPjxyZWN0IGZpbGw9Im5vbmUiIGhlaWdodD0iNiIgc3R5bGU9InN0cm9rZTojQzgyOTMwO3N0cm9rZS13aWR0aDoxLjA7IiB3aWR0aD0iNiIgeD0iMjgzLjUiIHk9IjM1OS40OTIyIi8+PHRleHQgZmlsbD0iIzAwMDAwMCIgZm9udC1mYW1pbHk9InNhbnMtc2VyaWYiIGZvbnQtc2l6ZT0iMTQiIGxlbmd0aEFkanVzdD0ic3BhY2luZyIgdGV4dExlbmd0aD0iODUiIHg9IjI5NS41IiB5PSIzNjYuNzM0NCI+bmFtZTogc3RyaW5nPC90ZXh0PjxyZWN0IGZpbGw9Im5vbmUiIGhlaWdodD0iNiIgc3R5bGU9InN0cm9rZTojQzgyOTMwO3N0cm9rZS13aWR0aDoxLjA7IiB3aWR0aD0iNiIgeD0iMjgzLjUiIHk9IjM3NC40NzY2Ii8+PHRleHQgZmlsbD0iIzAwMDAwMCIgZm9udC1mYW1pbHk9InNhbnMtc2VyaWYiIGZvbnQtc2l6ZT0iMTQiIGxlbmd0aEFkanVzdD0ic3BhY2luZyIgdGV4dExlbmd0aD0iMTMzIiB4PSIyOTUuNSIgeT0iMzgxLjcxODgiPmRlc2NyaXB0aW9uOiBzdHJpbmc8L3RleHQ+PHJlY3QgZmlsbD0ibm9uZSIgaGVpZ2h0PSI2IiBzdHlsZT0ic3Ryb2tlOiNDODI5MzA7c3Ryb2tlLXdpZHRoOjEuMDsiIHdpZHRoPSI2IiB4PSIyODMuNSIgeT0iMzg5LjQ2MDkiLz48dGV4dCBmaWxsPSIjMDAwMDAwIiBmb250LWZhbWlseT0ic2Fucy1zZXJpZiIgZm9udC1zaXplPSIxNCIgbGVuZ3RoQWRqdXN0PSJzcGFjaW5nIiB0ZXh0TGVuZ3RoPSIyMDMiIHg9IjI5NS41IiB5PSIzOTYuNzAzMSI+aW50ZXJuc2hpcHM6IExpc3QmbHQ7SW50ZXJuc2hpcCZndDs8L3RleHQ+PGxpbmUgc3R5bGU9InN0cm9rZTojMTgxODE4O3N0cm9rZS13aWR0aDowLjU7IiB4MT0iMjc2LjUiIHgyPSI1MDMuNSIgeTE9IjQwMi40NTMxIiB5Mj0iNDAyLjQ1MzEiLz48L2c+PCEtLWNsYXNzIEFwcGxpY2F0aW9uLS0+PGcgaWQ9ImVsZW1fQXBwbGljYXRpb24iPjxyZWN0IGNvZGVMaW5lPSI1NyIgZmlsbD0iI0YxRjFGMSIgaGVpZ2h0PSIxMzcuOTA2MyIgaWQ9IkFwcGxpY2F0aW9uIiByeD0iMi41IiByeT0iMi41IiBzdHlsZT0ic3Ryb2tlOiMxODE4MTg7c3Ryb2tlLXdpZHRoOjAuNTsiIHdpZHRoPSIyMDEiIHg9IjUzOS41IiB5PSIyOTUiLz48ZWxsaXBzZSBjeD0iNTk3LjI1IiBjeT0iMzExIiBmaWxsPSIjQUREMUIyIiByeD0iMTEiIHJ5PSIxMSIgc3R5bGU9InN0cm9rZTojMTgxODE4O3N0cm9rZS13aWR0aDoxLjA7Ii8+PHBhdGggZD0iTTU5NC44NzUsMzE1LjI1IEw1OTQuODc1LDMxNyBMNTk5LjgxMjUsMzE3IEw1OTkuODEyNSwzMTUuMjUgTDU5NC44NzUsMzE1LjI1IFogTTU5NS41NjI1LDMxNS45Mzc1IFE1OTUuNTYyNSwzMTUuOTM3NSA1OTUuNTYyNSwzMDYuNzUgTDU5My44MTI1LDMwNi43NSBRNTkzLjgxMjUsMzA2Ljc1IDU5My44MTI1LDMxNS45Mzc1IEw1OTUuNTYyNSwzMTUuOTM3NSBaIE01OTkuMTI1LDMxNS45Mzc1IEw2MDAuODc1LDMxNS45Mzc1IFE2MDAuODc1LDMxNS45Mzc1IDYwMC44NzUsMzEzLjEyNSBMNTk5LjEyNSwzMTMuMTI1IFE1OTkuMTI1LDMxMy4xMjUgNTk5LjEyNSwzMTUuOTM3NSBaIE01OTkuMTI1LDMwNi43NSBRNTk5LjEyNSwzMDYuNzUgNTk5LjEyNSwzMDkuNTYyNSBMNjAwLjg3NSwzMDkuNTYyNSBRNjAwLjg3NSwzMDkuNTYyNSA2MDAuODc1LDMwNi43NSBMNTk5LjEyNSwzMDYuNzUgWiBNNTk0Ljg3NSwzMDcuNDM3NSBMNTk5LjgxMjUsMzA3LjQzNzUgTDU5OS44MTI1LDMwNS42ODc1IEw1OTQuODc1LDMwNS42ODc1IEw1OTQuODc1LDMwNy40Mzc1IFogIiBmaWxsPSIjMDAwMDAwIi8+PHRleHQgZmlsbD0iIzAwMDAwMCIgZm9udC1mYW1pbHk9InNhbnMtc2VyaWYiIGZvbnQtc2l6ZT0iMTQiIGxlbmd0aEFkanVzdD0ic3BhY2luZyIgdGV4dExlbmd0aD0iNzciIHg9IjYxNy43NSIgeT0iMzE2Ljc0MjIiPkFwcGxpY2F0aW9uPC90ZXh0PjxsaW5lIHN0eWxlPSJzdHJva2U6IzE4MTgxODtzdHJva2Utd2lkdGg6MC41OyIgeDE9IjU0MC41IiB4Mj0iNzM5LjUiIHkxPSIzMjciIHkyPSIzMjciLz48cmVjdCBmaWxsPSJub25lIiBoZWlnaHQ9IjYiIHN0eWxlPSJzdHJva2U6I0M4MjkzMDtzdHJva2Utd2lkdGg6MS4wOyIgd2lkdGg9IjYiIHg9IjU0Ny41IiB5PSIzMzYuOTkyMiIvPjx0ZXh0IGZpbGw9IiMwMDAwMDAiIGZvbnQtZmFtaWx5PSJzYW5zLXNlcmlmIiBmb250LXNpemU9IjE0IiBsZW5ndGhBZGp1c3Q9InNwYWNpbmciIHRleHRMZW5ndGg9IjQ5IiB4PSI1NTkuNSIgeT0iMzQ0LjIzNDQiPmlkOiBpbnQ8L3RleHQ+PHJlY3QgZmlsbD0ibm9uZSIgaGVpZ2h0PSI2IiBzdHlsZT0ic3Ryb2tlOiNDODI5MzA7c3Ryb2tlLXdpZHRoOjEuMDsiIHdpZHRoPSI2IiB4PSI1NDcuNSIgeT0iMzUxLjk3NjYiLz48dGV4dCBmaWxsPSIjMDAwMDAwIiBmb250LWZhbWlseT0ic2Fucy1zZXJpZiIgZm9udC1zaXplPSIxNCIgbGVuZ3RoQWRqdXN0PSJzcGFjaW5nIiB0ZXh0TGVuZ3RoPSIxNzUiIHg9IjU1OS41IiB5PSIzNTkuMjE4OCI+c3RhdHVzOiBBcHBsaWNhdGlvblN0YXR1czwvdGV4dD48cmVjdCBmaWxsPSJub25lIiBoZWlnaHQ9IjYiIHN0eWxlPSJzdHJva2U6I0M4MjkzMDtzdHJva2Utd2lkdGg6MS4wOyIgd2lkdGg9IjYiIHg9IjU0Ny41IiB5PSIzNjYuOTYwOSIvPjx0ZXh0IGZpbGw9IiMwMDAwMDAiIGZvbnQtZmFtaWx5PSJzYW5zLXNlcmlmIiBmb250LXNpemU9IjE0IiBsZW5ndGhBZGp1c3Q9InNwYWNpbmciIHRleHRMZW5ndGg9IjExMiIgeD0iNTU5LjUiIHk9IjM3NC4yMDMxIj5zdHVkZW50OiBTdHVkZW50PC90ZXh0PjxyZWN0IGZpbGw9Im5vbmUiIGhlaWdodD0iNiIgc3R5bGU9InN0cm9rZTojQzgyOTMwO3N0cm9rZS13aWR0aDoxLjA7IiB3aWR0aD0iNiIgeD0iNTQ3LjUiIHk9IjM4MS45NDUzIi8+PHRleHQgZmlsbD0iIzAwMDAwMCIgZm9udC1mYW1pbHk9InNhbnMtc2VyaWYiIGZvbnQtc2l6ZT0iMTQiIGxlbmd0aEFkanVzdD0ic3BhY2luZyIgdGV4dExlbmd0aD0iMTU0IiB4PSI1NTkuNSIgeT0iMzg5LjE4NzUiPmludGVybnNoaXA6IEludGVybnNoaXA8L3RleHQ+PGxpbmUgc3R5bGU9InN0cm9rZTojMTgxODE4O3N0cm9rZS13aWR0aDowLjU7IiB4MT0iNTQwLjUiIHgyPSI3MzkuNSIgeTE9IjM5NC45Mzc1IiB5Mj0iMzk0LjkzNzUiLz48ZWxsaXBzZSBjeD0iNTUwLjUiIGN5PSI0MDcuOTI5NyIgZmlsbD0iIzg0QkU4NCIgcng9IjMiIHJ5PSIzIiBzdHlsZT0ic3Ryb2tlOiMwMzgwNDg7c3Ryb2tlLXdpZHRoOjEuMDsiLz48dGV4dCBmaWxsPSIjMDAwMDAwIiBmb250LWZhbWlseT0ic2Fucy1zZXJpZiIgZm9udC1zaXplPSIxNCIgbGVuZ3RoQWRqdXN0PSJzcGFjaW5nIiB0ZXh0TGVuZ3RoPSI1OCIgeD0iNTU5LjUiIHk9IjQxMi4xNzE5Ij5hY2NlcHQoKTwvdGV4dD48ZWxsaXBzZSBjeD0iNTUwLjUiIGN5PSI0MjIuOTE0MSIgZmlsbD0iIzg0QkU4NCIgcng9IjMiIHJ5PSIzIiBzdHlsZT0ic3Ryb2tlOiMwMzgwNDg7c3Ryb2tlLXdpZHRoOjEuMDsiLz48dGV4dCBmaWxsPSIjMDAwMDAwIiBmb250LWZhbWlseT0ic2Fucy1zZXJpZiIgZm9udC1zaXplPSIxNCIgbGVuZ3RoQWRqdXN0PSJzcGFjaW5nIiB0ZXh0TGVuZ3RoPSI1OCIgeD0iNTU5LjUiIHk9IjQyNy4xNTYzIj5yZWplY3QoKTwvdGV4dD48L2c+PCEtLWNsYXNzIFJlY29tbWVuZGF0aW9uU3lzdGVtLS0+PGcgaWQ9ImVsZW1fUmVjb21tZW5kYXRpb25TeXN0ZW0iPjxyZWN0IGNvZGVMaW5lPSI2NiIgZmlsbD0iI0YxRjFGMSIgaGVpZ2h0PSI5Mi45NTMxIiBpZD0iUmVjb21tZW5kYXRpb25TeXN0ZW0iIHJ4PSIyLjUiIHJ5PSIyLjUiIHN0eWxlPSJzdHJva2U6IzE4MTgxODtzdHJva2Utd2lkdGg6MC41OyIgd2lkdGg9IjMwOCIgeD0iNzc2IiB5PSIzMTcuNSIvPjxlbGxpcHNlIGN4PSI4NTQuMjUiIGN5PSIzMzMuNSIgZmlsbD0iI0FERDFCMiIgcng9IjExIiByeT0iMTEiIHN0eWxlPSJzdHJva2U6IzE4MTgxODtzdHJva2Utd2lkdGg6MS4wOyIvPjxwYXRoIGQ9Ik04NTEuODc1LDMzNy43NSBMODUxLjg3NSwzMzkuNSBMODU2LjgxMjUsMzM5LjUgTDg1Ni44MTI1LDMzNy43NSBMODUxLjg3NSwzMzcuNzUgWiBNODUyLjU2MjUsMzM4LjQzNzUgUTg1Mi41NjI1LDMzOC40Mzc1IDg1Mi41NjI1LDMyOS4yNSBMODUwLjgxMjUsMzI5LjI1IFE4NTAuODEyNSwzMjkuMjUgODUwLjgxMjUsMzM4LjQzNzUgTDg1Mi41NjI1LDMzOC40Mzc1IFogTTg1Ni4xMjUsMzM4LjQzNzUgTDg1Ny44NzUsMzM4LjQzNzUgUTg1Ny44NzUsMzM4LjQzNzUgODU3Ljg3NSwzMzUuNjI1IEw4NTYuMTI1LDMzNS42MjUgUTg1Ni4xMjUsMzM1LjYyNSA4NTYuMTI1LDMzOC40Mzc1IFogTTg1Ni4xMjUsMzI5LjI1IFE4NTYuMTI1LDMyOS4yNSA4NTYuMTI1LDMzMi4wNjI1IEw4NTcuODc1LDMzMi4wNjI1IFE4NTcuODc1LDMzMi4wNjI1IDg1Ny44NzUsMzI5LjI1IEw4NTYuMTI1LDMyOS4yNSBaIE04NTEuODc1LDMyOS45Mzc1IEw4NTYuODEyNSwzMjkuOTM3NSBMODU2LjgxMjUsMzI4LjE4NzUgTDg1MS44NzUsMzI4LjE4NzUgTDg1MS44NzUsMzI5LjkzNzUgWiAiIGZpbGw9IiMwMDAwMDAiLz48dGV4dCBmaWxsPSIjMDAwMDAwIiBmb250LWZhbWlseT0ic2Fucy1zZXJpZiIgZm9udC1zaXplPSIxNCIgbGVuZ3RoQWRqdXN0PSJzcGFjaW5nIiB0ZXh0TGVuZ3RoPSIxNDMiIHg9Ijg3NC43NSIgeT0iMzM5LjI0MjIiPlJlY29tbWVuZGF0aW9uU3lzdGVtPC90ZXh0PjxsaW5lIHN0eWxlPSJzdHJva2U6IzE4MTgxODtzdHJva2Utd2lkdGg6MC41OyIgeDE9Ijc3NyIgeDI9IjEwODMiIHkxPSIzNDkuNSIgeTI9IjM0OS41Ii8+PHJlY3QgZmlsbD0ibm9uZSIgaGVpZ2h0PSI2IiBzdHlsZT0ic3Ryb2tlOiNDODI5MzA7c3Ryb2tlLXdpZHRoOjEuMDsiIHdpZHRoPSI2IiB4PSI3ODQiIHk9IjM1OS40OTIyIi8+PHRleHQgZmlsbD0iIzAwMDAwMCIgZm9udC1mYW1pbHk9InNhbnMtc2VyaWYiIGZvbnQtc2l6ZT0iMTQiIGxlbmd0aEFkanVzdD0ic3BhY2luZyIgdGV4dExlbmd0aD0iMTEyIiB4PSI3OTYiIHk9IjM2Ni43MzQ0Ij5zdHVkZW50OiBTdHVkZW50PC90ZXh0PjxyZWN0IGZpbGw9Im5vbmUiIGhlaWdodD0iNiIgc3R5bGU9InN0cm9rZTojQzgyOTMwO3N0cm9rZS13aWR0aDoxLjA7IiB3aWR0aD0iNiIgeD0iNzg0IiB5PSIzNzQuNDc2NiIvPjx0ZXh0IGZpbGw9IiMwMDAwMDAiIGZvbnQtZmFtaWx5PSJzYW5zLXNlcmlmIiBmb250LXNpemU9IjE0IiBsZW5ndGhBZGp1c3Q9InNwYWNpbmciIHRleHRMZW5ndGg9IjI4MiIgeD0iNzk2IiB5PSIzODEuNzE4OCI+cmVjb21tZW5kZWRJbnRlcm5zaGlwczogTGlzdCZsdDtJbnRlcm5zaGlwJmd0OzwvdGV4dD48bGluZSBzdHlsZT0ic3Ryb2tlOiMxODE4MTg7c3Ryb2tlLXdpZHRoOjAuNTsiIHgxPSI3NzciIHgyPSIxMDgzIiB5MT0iMzg3LjQ2ODgiIHkyPSIzODcuNDY4OCIvPjxlbGxpcHNlIGN4PSI3ODciIGN5PSI0MDAuNDYwOSIgZmlsbD0iIzg0QkU4NCIgcng9IjMiIHJ5PSIzIiBzdHlsZT0ic3Ryb2tlOiMwMzgwNDg7c3Ryb2tlLXdpZHRoOjEuMDsiLz48dGV4dCBmaWxsPSIjMDAwMDAwIiBmb250LWZhbWlseT0ic2Fucy1zZXJpZiIgZm9udC1zaXplPSIxNCIgbGVuZ3RoQWRqdXN0PSJzcGFjaW5nIiB0ZXh0TGVuZ3RoPSIyNzAiIHg9Ijc5NiIgeT0iNDA0LjcwMzEiPmdldFJlY29tbWVuZGF0aW9ucygpOiBMaXN0Jmx0O0ludGVybnNoaXAmZ3Q7PC90ZXh0PjwvZz48IS0tY2xhc3MgQ29tbXVuaWNhdGlvblN5c3RlbS0tPjxnIGlkPSJlbGVtX0NvbW11bmljYXRpb25TeXN0ZW0iPjxyZWN0IGNvZGVMaW5lPSI3MiIgZmlsbD0iI0YxRjFGMSIgaGVpZ2h0PSIxMDcuOTM3NSIgaWQ9IkNvbW11bmljYXRpb25TeXN0ZW0iIHJ4PSIyLjUiIHJ5PSIyLjUiIHN0eWxlPSJzdHJva2U6IzE4MTgxODtzdHJva2Utd2lkdGg6MC41OyIgd2lkdGg9IjM4MCIgeD0iMTExOSIgeT0iMzEwIi8+PGVsbGlwc2UgY3g9IjEyMzYuNzUiIGN5PSIzMjYiIGZpbGw9IiNBREQxQjIiIHJ4PSIxMSIgcnk9IjExIiBzdHlsZT0ic3Ryb2tlOiMxODE4MTg7c3Ryb2tlLXdpZHRoOjEuMDsiLz48cGF0aCBkPSJNMTIzNC4zNzUsMzMwLjI1IEwxMjM0LjM3NSwzMzIgTDEyMzkuMzEyNSwzMzIgTDEyMzkuMzEyNSwzMzAuMjUgTDEyMzQuMzc1LDMzMC4yNSBaIE0xMjM1LjA2MjUsMzMwLjkzNzUgUTEyMzUuMDYyNSwzMzAuOTM3NSAxMjM1LjA2MjUsMzIxLjc1IEwxMjMzLjMxMjUsMzIxLjc1IFExMjMzLjMxMjUsMzIxLjc1IDEyMzMuMzEyNSwzMzAuOTM3NSBMMTIzNS4wNjI1LDMzMC45Mzc1IFogTTEyMzguNjI1LDMzMC45Mzc1IEwxMjQwLjM3NSwzMzAuOTM3NSBRMTI0MC4zNzUsMzMwLjkzNzUgMTI0MC4zNzUsMzI4LjEyNSBMMTIzOC42MjUsMzI4LjEyNSBRMTIzOC42MjUsMzI4LjEyNSAxMjM4LjYyNSwzMzAuOTM3NSBaIE0xMjM4LjYyNSwzMjEuNzUgUTEyMzguNjI1LDMyMS43NSAxMjM4LjYyNSwzMjQuNTYyNSBMMTI0MC4zNzUsMzI0LjU2MjUgUTEyNDAuMzc1LDMyNC41NjI1IDEyNDAuMzc1LDMyMS43NSBMMTIzOC42MjUsMzIxLjc1IFogTTEyMzQuMzc1LDMyMi40Mzc1IEwxMjM5LjMxMjUsMzIyLjQzNzUgTDEyMzkuMzEyNSwzMjAuNjg3NSBMMTIzNC4zNzUsMzIwLjY4NzUgTDEyMzQuMzc1LDMyMi40Mzc1IFogIiBmaWxsPSIjMDAwMDAwIi8+PHRleHQgZmlsbD0iIzAwMDAwMCIgZm9udC1mYW1pbHk9InNhbnMtc2VyaWYiIGZvbnQtc2l6ZT0iMTQiIGxlbmd0aEFkanVzdD0ic3BhY2luZyIgdGV4dExlbmd0aD0iMTM2IiB4PSIxMjU3LjI1IiB5PSIzMzEuNzQyMiI+Q29tbXVuaWNhdGlvblN5c3RlbTwvdGV4dD48bGluZSBzdHlsZT0ic3Ryb2tlOiMxODE4MTg7c3Ryb2tlLXdpZHRoOjAuNTsiIHgxPSIxMTIwIiB4Mj0iMTQ5OCIgeTE9IjM0MiIgeTI9IjM0MiIvPjxyZWN0IGZpbGw9Im5vbmUiIGhlaWdodD0iNiIgc3R5bGU9InN0cm9rZTojQzgyOTMwO3N0cm9rZS13aWR0aDoxLjA7IiB3aWR0aD0iNiIgeD0iMTEyNyIgeT0iMzUxLjk5MjIiLz48dGV4dCBmaWxsPSIjMDAwMDAwIiBmb250LWZhbWlseT0ic2Fucy1zZXJpZiIgZm9udC1zaXplPSIxNCIgbGVuZ3RoQWRqdXN0PSJzcGFjaW5nIiB0ZXh0TGVuZ3RoPSIxMTkiIHg9IjExMzkiIHk9IjM1OS4yMzQ0Ij51c2VyczogTGlzdCZsdDtVc2VyJmd0OzwvdGV4dD48cmVjdCBmaWxsPSJub25lIiBoZWlnaHQ9IjYiIHN0eWxlPSJzdHJva2U6I0M4MjkzMDtzdHJva2Utd2lkdGg6MS4wOyIgd2lkdGg9IjYiIHg9IjExMjciIHk9IjM2Ni45NzY2Ii8+PHRleHQgZmlsbD0iIzAwMDAwMCIgZm9udC1mYW1pbHk9InNhbnMtc2VyaWYiIGZvbnQtc2l6ZT0iMTQiIGxlbmd0aEFkanVzdD0ic3BhY2luZyIgdGV4dExlbmd0aD0iMTYyIiB4PSIxMTM5IiB5PSIzNzQuMjE4OCI+bWVzc2FnZXM6IExpc3QmbHQ7TWVzc2FnZSZndDs8L3RleHQ+PGxpbmUgc3R5bGU9InN0cm9rZTojMTgxODE4O3N0cm9rZS13aWR0aDowLjU7IiB4MT0iMTEyMCIgeDI9IjE0OTgiIHkxPSIzNzkuOTY4OCIgeTI9IjM3OS45Njg4Ii8+PGVsbGlwc2UgY3g9IjExMzAiIGN5PSIzOTIuOTYwOSIgZmlsbD0iIzg0QkU4NCIgcng9IjMiIHJ5PSIzIiBzdHlsZT0ic3Ryb2tlOiMwMzgwNDg7c3Ryb2tlLXdpZHRoOjEuMDsiLz48dGV4dCBmaWxsPSIjMDAwMDAwIiBmb250LWZhbWlseT0ic2Fucy1zZXJpZiIgZm9udC1zaXplPSIxNCIgbGVuZ3RoQWRqdXN0PSJzcGFjaW5nIiB0ZXh0TGVuZ3RoPSIzNTQiIHg9IjExMzkiIHk9IjM5Ny4yMDMxIj5zZW5kTWVzc2FnZShmcm9tOiBVc2VyLCB0bzogVXNlciwgbWVzc2FnZTogc3RyaW5nKTwvdGV4dD48ZWxsaXBzZSBjeD0iMTEzMCIgY3k9IjQwNy45NDUzIiBmaWxsPSIjODRCRTg0IiByeD0iMyIgcnk9IjMiIHN0eWxlPSJzdHJva2U6IzAzODA0ODtzdHJva2Utd2lkdGg6MS4wOyIvPjx0ZXh0IGZpbGw9IiMwMDAwMDAiIGZvbnQtZmFtaWx5PSJzYW5zLXNlcmlmIiBmb250LXNpemU9IjE0IiBsZW5ndGhBZGp1c3Q9InNwYWNpbmciIHRleHRMZW5ndGg9IjI2OCIgeD0iMTEzOSIgeT0iNDEyLjE4NzUiPmdldE1lc3NhZ2VzKHVzZXI6IFVzZXIpOiBMaXN0Jmx0O01lc3NhZ2UmZ3Q7PC90ZXh0PjwvZz48IS0tY2xhc3MgUmFua2luZ1N5c3RlbS0tPjxnIGlkPSJlbGVtX1JhbmtpbmdTeXN0ZW0iPjxyZWN0IGNvZGVMaW5lPSI3OSIgZmlsbD0iI0YxRjFGMSIgaGVpZ2h0PSI5Mi45NTMxIiBpZD0iUmFua2luZ1N5c3RlbSIgcng9IjIuNSIgcnk9IjIuNSIgc3R5bGU9InN0cm9rZTojMTgxODE4O3N0cm9rZS13aWR0aDowLjU7IiB3aWR0aD0iMjM4IiB4PSI3IiB5PSI1MTUuNSIvPjxlbGxpcHNlIGN4PSI3NS43NSIgY3k9IjUzMS41IiBmaWxsPSIjQUREMUIyIiByeD0iMTEiIHJ5PSIxMSIgc3R5bGU9InN0cm9rZTojMTgxODE4O3N0cm9rZS13aWR0aDoxLjA7Ii8+PHBhdGggZD0iTTczLjM3NSw1MzUuNzUgTDczLjM3NSw1MzcuNSBMNzguMzEyNSw1MzcuNSBMNzguMzEyNSw1MzUuNzUgTDczLjM3NSw1MzUuNzUgWiBNNzQuMDYyNSw1MzYuNDM3NSBRNzQuMDYyNSw1MzYuNDM3NSA3NC4wNjI1LDUyNy4yNSBMNzIuMzEyNSw1MjcuMjUgUTcyLjMxMjUsNTI3LjI1IDcyLjMxMjUsNTM2LjQzNzUgTDc0LjA2MjUsNTM2LjQzNzUgWiBNNzcuNjI1LDUzNi40Mzc1IEw3OS4zNzUsNTM2LjQzNzUgUTc5LjM3NSw1MzYuNDM3NSA3OS4zNzUsNTMzLjYyNSBMNzcuNjI1LDUzMy42MjUgUTc3LjYyNSw1MzMuNjI1IDc3LjYyNSw1MzYuNDM3NSBaIE03Ny42MjUsNTI3LjI1IFE3Ny42MjUsNTI3LjI1IDc3LjYyNSw1MzAuMDYyNSBMNzkuMzc1LDUzMC4wNjI1IFE3OS4zNzUsNTMwLjA2MjUgNzkuMzc1LDUyNy4yNSBMNzcuNjI1LDUyNy4yNSBaIE03My4zNzUsNTI3LjkzNzUgTDc4LjMxMjUsNTI3LjkzNzUgTDc4LjMxMjUsNTI2LjE4NzUgTDczLjM3NSw1MjYuMTg3NSBMNzMuMzc1LDUyNy45Mzc1IFogIiBmaWxsPSIjMDAwMDAwIi8+PHRleHQgZmlsbD0iIzAwMDAwMCIgZm9udC1mYW1pbHk9InNhbnMtc2VyaWYiIGZvbnQtc2l6ZT0iMTQiIGxlbmd0aEFkanVzdD0ic3BhY2luZyIgdGV4dExlbmd0aD0iOTIiIHg9Ijk2LjI1IiB5PSI1MzcuMjQyMiI+UmFua2luZ1N5c3RlbTwvdGV4dD48bGluZSBzdHlsZT0ic3Ryb2tlOiMxODE4MTg7c3Ryb2tlLXdpZHRoOjAuNTsiIHgxPSI4IiB4Mj0iMjQ0IiB5MT0iNTQ3LjUiIHkyPSI1NDcuNSIvPjxyZWN0IGZpbGw9Im5vbmUiIGhlaWdodD0iNiIgc3R5bGU9InN0cm9rZTojQzgyOTMwO3N0cm9rZS13aWR0aDoxLjA7IiB3aWR0aD0iNiIgeD0iMTUiIHk9IjU1Ny40OTIyIi8+PHRleHQgZmlsbD0iIzAwMDAwMCIgZm9udC1mYW1pbHk9InNhbnMtc2VyaWYiIGZvbnQtc2l6ZT0iMTQiIGxlbmd0aEFkanVzdD0ic3BhY2luZyIgdGV4dExlbmd0aD0iMTU0IiB4PSIyNyIgeT0iNTY0LjczNDQiPmludGVybnNoaXA6IEludGVybnNoaXA8L3RleHQ+PHJlY3QgZmlsbD0ibm9uZSIgaGVpZ2h0PSI2IiBzdHlsZT0ic3Ryb2tlOiNDODI5MzA7c3Ryb2tlLXdpZHRoOjEuMDsiIHdpZHRoPSI2IiB4PSIxNSIgeT0iNTcyLjQ3NjYiLz48dGV4dCBmaWxsPSIjMDAwMDAwIiBmb250LWZhbWlseT0ic2Fucy1zZXJpZiIgZm9udC1zaXplPSIxNCIgbGVuZ3RoQWRqdXN0PSJzcGFjaW5nIiB0ZXh0TGVuZ3RoPSIxMzMiIHg9IjI3IiB5PSI1NzkuNzE4OCI+c2NvcmVzOiBMaXN0Jmx0O1Njb3JlJmd0OzwvdGV4dD48bGluZSBzdHlsZT0ic3Ryb2tlOiMxODE4MTg7c3Ryb2tlLXdpZHRoOjAuNTsiIHgxPSI4IiB4Mj0iMjQ0IiB5MT0iNTg1LjQ2ODgiIHkyPSI1ODUuNDY4OCIvPjxlbGxpcHNlIGN4PSIxOCIgY3k9IjU5OC40NjA5IiBmaWxsPSIjODRCRTg0IiByeD0iMyIgcnk9IjMiIHN0eWxlPSJzdHJva2U6IzAzODA0ODtzdHJva2Utd2lkdGg6MS4wOyIvPjx0ZXh0IGZpbGw9IiMwMDAwMDAiIGZvbnQtZmFtaWx5PSJzYW5zLXNlcmlmIiBmb250LXNpemU9IjE0IiBsZW5ndGhBZGp1c3Q9InNwYWNpbmciIHRleHRMZW5ndGg9IjIxMiIgeD0iMjciIHk9IjYwMi43MDMxIj5nZXRSYW5raW5nKCk6IExpc3QmbHQ7SW50ZXJuc2hpcCZndDs8L3RleHQ+PC9nPjwhLS1jbGFzcyBOb3RpZmljYXRpb24tLT48ZyBpZD0iZWxlbV9Ob3RpZmljYXRpb24iPjxyZWN0IGNvZGVMaW5lPSI4NSIgZmlsbD0iI0YxRjFGMSIgaGVpZ2h0PSI5Mi45NTMxIiBpZD0iTm90aWZpY2F0aW9uIiByeD0iMi41IiByeT0iMi41IiBzdHlsZT0ic3Ryb2tlOiMxODE4MTg7c3Ryb2tlLXdpZHRoOjAuNTsiIHdpZHRoPSIxMzIiIHg9IjI4MCIgeT0iNTE1LjUiLz48ZWxsaXBzZSBjeD0iMzAyLjIiIGN5PSI1MzEuNSIgZmlsbD0iI0FERDFCMiIgcng9IjExIiByeT0iMTEiIHN0eWxlPSJzdHJva2U6IzE4MTgxODtzdHJva2Utd2lkdGg6MS4wOyIvPjxwYXRoIGQ9Ik0yOTkuODI1LDUzNS43NSBMMjk5LjgyNSw1MzcuNSBMMzA0Ljc2MjUsNTM3LjUgTDMwNC43NjI1LDUzNS43NSBMMjk5LjgyNSw1MzUuNzUgWiBNMzAwLjUxMjUsNTM2LjQzNzUgUTMwMC41MTI1LDUzNi40Mzc1IDMwMC41MTI1LDUyNy4yNSBMMjk4Ljc2MjUsNTI3LjI1IFEyOTguNzYyNSw1MjcuMjUgMjk4Ljc2MjUsNTM2LjQzNzUgTDMwMC41MTI1LDUzNi40Mzc1IFogTTMwNC4wNzUsNTM2LjQzNzUgTDMwNS44MjUsNTM2LjQzNzUgUTMwNS44MjUsNTM2LjQzNzUgMzA1LjgyNSw1MzMuNjI1IEwzMDQuMDc1LDUzMy42MjUgUTMwNC4wNzUsNTMzLjYyNSAzMDQuMDc1LDUzNi40Mzc1IFogTTMwNC4wNzUsNTI3LjI1IFEzMDQuMDc1LDUyNy4yNSAzMDQuMDc1LDUzMC4wNjI1IEwzMDUuODI1LDUzMC4wNjI1IFEzMDUuODI1LDUzMC4wNjI1IDMwNS44MjUsNTI3LjI1IEwzMDQuMDc1LDUyNy4yNSBaIE0yOTkuODI1LDUyNy45Mzc1IEwzMDQuNzYyNSw1MjcuOTM3NSBMMzA0Ljc2MjUsNTI2LjE4NzUgTDI5OS44MjUsNTI2LjE4NzUgTDI5OS44MjUsNTI3LjkzNzUgWiAiIGZpbGw9IiMwMDAwMDAiLz48dGV4dCBmaWxsPSIjMDAwMDAwIiBmb250LWZhbWlseT0ic2Fucy1zZXJpZiIgZm9udC1zaXplPSIxNCIgbGVuZ3RoQWRqdXN0PSJzcGFjaW5nIiB0ZXh0TGVuZ3RoPSI4NCIgeD0iMzE3LjgiIHk9IjUzNy4yNDIyIj5Ob3RpZmljYXRpb248L3RleHQ+PGxpbmUgc3R5bGU9InN0cm9rZTojMTgxODE4O3N0cm9rZS13aWR0aDowLjU7IiB4MT0iMjgxIiB4Mj0iNDExIiB5MT0iNTQ3LjUiIHkyPSI1NDcuNSIvPjxyZWN0IGZpbGw9Im5vbmUiIGhlaWdodD0iNiIgc3R5bGU9InN0cm9rZTojQzgyOTMwO3N0cm9rZS13aWR0aDoxLjA7IiB3aWR0aD0iNiIgeD0iMjg4IiB5PSI1NTcuNDkyMiIvPjx0ZXh0IGZpbGw9IiMwMDAwMDAiIGZvbnQtZmFtaWx5PSJzYW5zLXNlcmlmIiBmb250LXNpemU9IjE0IiBsZW5ndGhBZGp1c3Q9InNwYWNpbmciIHRleHRMZW5ndGg9IjQ5IiB4PSIzMDAiIHk9IjU2NC43MzQ0Ij5pZDogaW50PC90ZXh0PjxyZWN0IGZpbGw9Im5vbmUiIGhlaWdodD0iNiIgc3R5bGU9InN0cm9rZTojQzgyOTMwO3N0cm9rZS13aWR0aDoxLjA7IiB3aWR0aD0iNiIgeD0iMjg4IiB5PSI1NzIuNDc2NiIvPjx0ZXh0IGZpbGw9IiMwMDAwMDAiIGZvbnQtZmFtaWx5PSJzYW5zLXNlcmlmIiBmb250LXNpemU9IjE0IiBsZW5ndGhBZGp1c3Q9InNwYWNpbmciIHRleHRMZW5ndGg9IjEwNiIgeD0iMzAwIiB5PSI1NzkuNzE4OCI+bWVzc2FnZTogc3RyaW5nPC90ZXh0PjxyZWN0IGZpbGw9Im5vbmUiIGhlaWdodD0iNiIgc3R5bGU9InN0cm9rZTojQzgyOTMwO3N0cm9rZS13aWR0aDoxLjA7IiB3aWR0aD0iNiIgeD0iMjg4IiB5PSI1ODcuNDYwOSIvPjx0ZXh0IGZpbGw9IiMwMDAwMDAiIGZvbnQtZmFtaWx5PSJzYW5zLXNlcmlmIiBmb250LXNpemU9IjE0IiBsZW5ndGhBZGp1c3Q9InNwYWNpbmciIHRleHRMZW5ndGg9IjcwIiB4PSIzMDAiIHk9IjU5NC43MDMxIj51c2VyOiBVc2VyPC90ZXh0PjxsaW5lIHN0eWxlPSJzdHJva2U6IzE4MTgxODtzdHJva2Utd2lkdGg6MC41OyIgeDE9IjI4MSIgeDI9IjQxMSIgeTE9IjYwMC40NTMxIiB5Mj0iNjAwLjQ1MzEiLz48L2c+PCEtLWNsYXNzIFJldmlldy0tPjxnIGlkPSJlbGVtX1JldmlldyI+PHJlY3QgY29kZUxpbmU9IjkxIiBmaWxsPSIjRjFGMUYxIiBoZWlnaHQ9IjEwNy45Mzc1IiBpZD0iUmV2aWV3IiByeD0iMi41IiByeT0iMi41IiBzdHlsZT0ic3Ryb2tlOiMxODE4MTg7c3Ryb2tlLXdpZHRoOjAuNTsiIHdpZHRoPSIxODAiIHg9IjQ0NyIgeT0iNTA4Ii8+PGVsbGlwc2UgY3g9IjUxMS4yNSIgY3k9IjUyNCIgZmlsbD0iI0FERDFCMiIgcng9IjExIiByeT0iMTEiIHN0eWxlPSJzdHJva2U6IzE4MTgxODtzdHJva2Utd2lkdGg6MS4wOyIvPjxwYXRoIGQ9Ik01MDguODc1LDUyOC4yNSBMNTA4Ljg3NSw1MzAgTDUxMy44MTI1LDUzMCBMNTEzLjgxMjUsNTI4LjI1IEw1MDguODc1LDUyOC4yNSBaIE01MDkuNTYyNSw1MjguOTM3NSBRNTA5LjU2MjUsNTI4LjkzNzUgNTA5LjU2MjUsNTE5Ljc1IEw1MDcuODEyNSw1MTkuNzUgUTUwNy44MTI1LDUxOS43NSA1MDcuODEyNSw1MjguOTM3NSBMNTA5LjU2MjUsNTI4LjkzNzUgWiBNNTEzLjEyNSw1MjguOTM3NSBMNTE0Ljg3NSw1MjguOTM3NSBRNTE0Ljg3NSw1MjguOTM3NSA1MTQuODc1LDUyNi4xMjUgTDUxMy4xMjUsNTI2LjEyNSBRNTEzLjEyNSw1MjYuMTI1IDUxMy4xMjUsNTI4LjkzNzUgWiBNNTEzLjEyNSw1MTkuNzUgUTUxMy4xMjUsNTE5Ljc1IDUxMy4xMjUsNTIyLjU2MjUgTDUxNC44NzUsNTIyLjU2MjUgUTUxNC44NzUsNTIyLjU2MjUgNTE0Ljg3NSw1MTkuNzUgTDUxMy4xMjUsNTE5Ljc1IFogTTUwOC44NzUsNTIwLjQzNzUgTDUxMy44MTI1LDUyMC40Mzc1IEw1MTMuODEyNSw1MTguNjg3NSBMNTA4Ljg3NSw1MTguNjg3NSBMNTA4Ljg3NSw1MjAuNDM3NSBaICIgZmlsbD0iIzAwMDAwMCIvPjx0ZXh0IGZpbGw9IiMwMDAwMDAiIGZvbnQtZmFtaWx5PSJzYW5zLXNlcmlmIiBmb250LXNpemU9IjE0IiBsZW5ndGhBZGp1c3Q9InNwYWNpbmciIHRleHRMZW5ndGg9IjQzIiB4PSI1MzEuNzUiIHk9IjUyOS43NDIyIj5SZXZpZXc8L3RleHQ+PGxpbmUgc3R5bGU9InN0cm9rZTojMTgxODE4O3N0cm9rZS13aWR0aDowLjU7IiB4MT0iNDQ4IiB4Mj0iNjI2IiB5MT0iNTQwIiB5Mj0iNTQwIi8+PHJlY3QgZmlsbD0ibm9uZSIgaGVpZ2h0PSI2IiBzdHlsZT0ic3Ryb2tlOiNDODI5MzA7c3Ryb2tlLXdpZHRoOjEuMDsiIHdpZHRoPSI2IiB4PSI0NTUiIHk9IjU0OS45OTIyIi8+PHRleHQgZmlsbD0iIzAwMDAwMCIgZm9udC1mYW1pbHk9InNhbnMtc2VyaWYiIGZvbnQtc2l6ZT0iMTQiIGxlbmd0aEFkanVzdD0ic3BhY2luZyIgdGV4dExlbmd0aD0iNDkiIHg9IjQ2NyIgeT0iNTU3LjIzNDQiPmlkOiBpbnQ8L3RleHQ+PHJlY3QgZmlsbD0ibm9uZSIgaGVpZ2h0PSI2IiBzdHlsZT0ic3Ryb2tlOiNDODI5MzA7c3Ryb2tlLXdpZHRoOjEuMDsiIHdpZHRoPSI2IiB4PSI0NTUiIHk9IjU2NC45NzY2Ii8+PHRleHQgZmlsbD0iIzAwMDAwMCIgZm9udC1mYW1pbHk9InNhbnMtc2VyaWYiIGZvbnQtc2l6ZT0iMTQiIGxlbmd0aEFkanVzdD0ic3BhY2luZyIgdGV4dExlbmd0aD0iODQiIHg9IjQ2NyIgeT0iNTcyLjIxODgiPnRleHQ6IHN0cmluZzwvdGV4dD48cmVjdCBmaWxsPSJub25lIiBoZWlnaHQ9IjYiIHN0eWxlPSJzdHJva2U6I0M4MjkzMDtzdHJva2Utd2lkdGg6MS4wOyIgd2lkdGg9IjYiIHg9IjQ1NSIgeT0iNTc5Ljk2MDkiLz48dGV4dCBmaWxsPSIjMDAwMDAwIiBmb250LWZhbWlseT0ic2Fucy1zZXJpZiIgZm9udC1zaXplPSIxNCIgbGVuZ3RoQWRqdXN0PSJzcGFjaW5nIiB0ZXh0TGVuZ3RoPSI3NyIgeD0iNDY3IiB5PSI1ODcuMjAzMSI+cmF0aW5nOiBpbnQ8L3RleHQ+PHJlY3QgZmlsbD0ibm9uZSIgaGVpZ2h0PSI2IiBzdHlsZT0ic3Ryb2tlOiNDODI5MzA7c3Ryb2tlLXdpZHRoOjEuMDsiIHdpZHRoPSI2IiB4PSI0NTUiIHk9IjU5NC45NDUzIi8+PHRleHQgZmlsbD0iIzAwMDAwMCIgZm9udC1mYW1pbHk9InNhbnMtc2VyaWYiIGZvbnQtc2l6ZT0iMTQiIGxlbmd0aEFkanVzdD0ic3BhY2luZyIgdGV4dExlbmd0aD0iMTU0IiB4PSI0NjciIHk9IjYwMi4xODc1Ij5pbnRlcm5zaGlwOiBJbnRlcm5zaGlwPC90ZXh0PjxsaW5lIHN0eWxlPSJzdHJva2U6IzE4MTgxODtzdHJva2Utd2lkdGg6MC41OyIgeDE9IjQ0OCIgeDI9IjYyNiIgeTE9IjYwNy45Mzc1IiB5Mj0iNjA3LjkzNzUiLz48L2c+PCEtLWNsYXNzIENvbXBhbnktLT48ZyBpZD0iZWxlbV9Db21wYW55Ij48cmVjdCBjb2RlTGluZT0iOTgiIGZpbGw9IiNGMUYxRjEiIGhlaWdodD0iMTM3LjkwNjMiIGlkPSJDb21wYW55IiByeD0iMi41IiByeT0iMi41IiBzdHlsZT0ic3Ryb2tlOiMxODE4MTg7c3Ryb2tlLXdpZHRoOjAuNTsiIHdpZHRoPSIyMjkiIHg9IjY2Mi41IiB5PSI0OTMiLz48ZWxsaXBzZSBjeD0iNzQ3Ljc1IiBjeT0iNTA5IiBmaWxsPSIjQUREMUIyIiByeD0iMTEiIHJ5PSIxMSIgc3R5bGU9InN0cm9rZTojMTgxODE4O3N0cm9rZS13aWR0aDoxLjA7Ii8+PHBhdGggZD0iTTc0NS4zNzUsNTEzLjI1IEw3NDUuMzc1LDUxNSBMNzUwLjMxMjUsNTE1IEw3NTAuMzEyNSw1MTMuMjUgTDc0NS4zNzUsNTEzLjI1IFogTTc0Ni4wNjI1LDUxMy45Mzc1IFE3NDYuMDYyNSw1MTMuOTM3NSA3NDYuMDYyNSw1MDQuNzUgTDc0NC4zMTI1LDUwNC43NSBRNzQ0LjMxMjUsNTA0Ljc1IDc0NC4zMTI1LDUxMy45Mzc1IEw3NDYuMDYyNSw1MTMuOTM3NSBaIE03NDkuNjI1LDUxMy45Mzc1IEw3NTEuMzc1LDUxMy45Mzc1IFE3NTEuMzc1LDUxMy45Mzc1IDc1MS4zNzUsNTExLjEyNSBMNzQ5LjYyNSw1MTEuMTI1IFE3NDkuNjI1LDUxMS4xMjUgNzQ5LjYyNSw1MTMuOTM3NSBaIE03NDkuNjI1LDUwNC43NSBRNzQ5LjYyNSw1MDQuNzUgNzQ5LjYyNSw1MDcuNTYyNSBMNzUxLjM3NSw1MDcuNTYyNSBRNzUxLjM3NSw1MDcuNTYyNSA3NTEuMzc1LDUwNC43NSBMNzQ5LjYyNSw1MDQuNzUgWiBNNzQ1LjM3NSw1MDUuNDM3NSBMNzUwLjMxMjUsNTA1LjQzNzUgTDc1MC4zMTI1LDUwMy42ODc1IEw3NDUuMzc1LDUwMy42ODc1IEw3NDUuMzc1LDUwNS40Mzc1IFogIiBmaWxsPSIjMDAwMDAwIi8+PHRleHQgZmlsbD0iIzAwMDAwMCIgZm9udC1mYW1pbHk9InNhbnMtc2VyaWYiIGZvbnQtc2l6ZT0iMTQiIGxlbmd0aEFkanVzdD0ic3BhY2luZyIgdGV4dExlbmd0aD0iNTAiIHg9Ijc2OC4yNSIgeT0iNTE0Ljc0MjIiPkNvbXBhbnk8L3RleHQ+PGxpbmUgc3R5bGU9InN0cm9rZTojMTgxODE4O3N0cm9rZS13aWR0aDowLjU7IiB4MT0iNjYzLjUiIHgyPSI4OTAuNSIgeTE9IjUyNSIgeTI9IjUyNSIvPjxyZWN0IGZpbGw9Im5vbmUiIGhlaWdodD0iNiIgc3R5bGU9InN0cm9rZTojQzgyOTMwO3N0cm9rZS13aWR0aDoxLjA7IiB3aWR0aD0iNiIgeD0iNjcwLjUiIHk9IjUzNC45OTIyIi8+PHRleHQgZmlsbD0iIzAwMDAwMCIgZm9udC1mYW1pbHk9InNhbnMtc2VyaWYiIGZvbnQtc2l6ZT0iMTQiIGxlbmd0aEFkanVzdD0ic3BhY2luZyIgdGV4dExlbmd0aD0iNDkiIHg9IjY4Mi41IiB5PSI1NDIuMjM0NCI+aWQ6IGludDwvdGV4dD48cmVjdCBmaWxsPSJub25lIiBoZWlnaHQ9IjYiIHN0eWxlPSJzdHJva2U6I0M4MjkzMDtzdHJva2Utd2lkdGg6MS4wOyIgd2lkdGg9IjYiIHg9IjY3MC41IiB5PSI1NDkuOTc2NiIvPjx0ZXh0IGZpbGw9IiMwMDAwMDAiIGZvbnQtZmFtaWx5PSJzYW5zLXNlcmlmIiBmb250LXNpemU9IjE0IiBsZW5ndGhBZGp1c3Q9InNwYWNpbmciIHRleHRMZW5ndGg9Ijg1IiB4PSI2ODIuNSIgeT0iNTU3LjIxODgiPm5hbWU6IHN0cmluZzwvdGV4dD48cmVjdCBmaWxsPSJub25lIiBoZWlnaHQ9IjYiIHN0eWxlPSJzdHJva2U6I0M4MjkzMDtzdHJva2Utd2lkdGg6MS4wOyIgd2lkdGg9IjYiIHg9IjY3MC41IiB5PSI1NjQuOTYwOSIvPjx0ZXh0IGZpbGw9IiMwMDAwMDAiIGZvbnQtZmFtaWx5PSJzYW5zLXNlcmlmIiBmb250LXNpemU9IjE0IiBsZW5ndGhBZGp1c3Q9InNwYWNpbmciIHRleHRMZW5ndGg9IjEzMyIgeD0iNjgyLjUiIHk9IjU3Mi4yMDMxIj5kZXNjcmlwdGlvbjogc3RyaW5nPC90ZXh0PjxyZWN0IGZpbGw9Im5vbmUiIGhlaWdodD0iNiIgc3R5bGU9InN0cm9rZTojQzgyOTMwO3N0cm9rZS13aWR0aDoxLjA7IiB3aWR0aD0iNiIgeD0iNjcwLjUiIHk9IjU3OS45NDUzIi8+PHRleHQgZmlsbD0iIzAwMDAwMCIgZm9udC1mYW1pbHk9InNhbnMtc2VyaWYiIGZvbnQtc2l6ZT0iMTQiIGxlbmd0aEFkanVzdD0ic3BhY2luZyIgdGV4dExlbmd0aD0iODQiIHg9IjY4Mi41IiB5PSI1ODcuMTg3NSI+bG9nbzogc3RyaW5nPC90ZXh0PjxyZWN0IGZpbGw9Im5vbmUiIGhlaWdodD0iNiIgc3R5bGU9InN0cm9rZTojQzgyOTMwO3N0cm9rZS13aWR0aDoxLjA7IiB3aWR0aD0iNiIgeD0iNjcwLjUiIHk9IjU5NC45Mjk3Ii8+PHRleHQgZmlsbD0iIzAwMDAwMCIgZm9udC1mYW1pbHk9InNhbnMtc2VyaWYiIGZvbnQtc2l6ZT0iMTQiIGxlbmd0aEFkanVzdD0ic3BhY2luZyIgdGV4dExlbmd0aD0iMTA2IiB4PSI2ODIuNSIgeT0iNjAyLjE3MTkiPndlYnNpdGU6IHN0cmluZzwvdGV4dD48cmVjdCBmaWxsPSJub25lIiBoZWlnaHQ9IjYiIHN0eWxlPSJzdHJva2U6I0M4MjkzMDtzdHJva2Utd2lkdGg6MS4wOyIgd2lkdGg9IjYiIHg9IjY3MC41IiB5PSI2MDkuOTE0MSIvPjx0ZXh0IGZpbGw9IiMwMDAwMDAiIGZvbnQtZmFtaWx5PSJzYW5zLXNlcmlmIiBmb250LXNpemU9IjE0IiBsZW5ndGhBZGp1c3Q9InNwYWNpbmciIHRleHRMZW5ndGg9IjIwMyIgeD0iNjgyLjUiIHk9IjYxNy4xNTYzIj5pbnRlcm5zaGlwczogTGlzdCZsdDtJbnRlcm5zaGlwJmd0OzwvdGV4dD48bGluZSBzdHlsZT0ic3Ryb2tlOiMxODE4MTg7c3Ryb2tlLXdpZHRoOjAuNTsiIHgxPSI2NjMuNSIgeDI9Ijg5MC41IiB5MT0iNjIyLjkwNjMiIHkyPSI2MjIuOTA2MyIvPjwvZz48IS0tY2xhc3MgTWVzc2FnZS0tPjxnIGlkPSJlbGVtX01lc3NhZ2UiPjxyZWN0IGNvZGVMaW5lPSIxMDciIGZpbGw9IiNGMUYxRjEiIGhlaWdodD0iMTA3LjkzNzUiIGlkPSJNZXNzYWdlIiByeD0iMi41IiByeT0iMi41IiBzdHlsZT0ic3Ryb2tlOiMxODE4MTg7c3Ryb2tlLXdpZHRoOjAuNTsiIHdpZHRoPSIxMjQiIHg9IjkyNyIgeT0iNTA4Ii8+PGVsbGlwc2UgY3g9Ijk2MS4zNSIgY3k9IjUyNCIgZmlsbD0iI0FERDFCMiIgcng9IjExIiByeT0iMTEiIHN0eWxlPSJzdHJva2U6IzE4MTgxODtzdHJva2Utd2lkdGg6MS4wOyIvPjxwYXRoIGQ9Ik05NTguOTc1LDUyOC4yNSBMOTU4Ljk3NSw1MzAgTDk2My45MTI1LDUzMCBMOTYzLjkxMjUsNTI4LjI1IEw5NTguOTc1LDUyOC4yNSBaIE05NTkuNjYyNSw1MjguOTM3NSBROTU5LjY2MjUsNTI4LjkzNzUgOTU5LjY2MjUsNTE5Ljc1IEw5NTcuOTEyNSw1MTkuNzUgUTk1Ny45MTI1LDUxOS43NSA5NTcuOTEyNSw1MjguOTM3NSBMOTU5LjY2MjUsNTI4LjkzNzUgWiBNOTYzLjIyNSw1MjguOTM3NSBMOTY0Ljk3NSw1MjguOTM3NSBROTY0Ljk3NSw1MjguOTM3NSA5NjQuOTc1LDUyNi4xMjUgTDk2My4yMjUsNTI2LjEyNSBROTYzLjIyNSw1MjYuMTI1IDk2My4yMjUsNTI4LjkzNzUgWiBNOTYzLjIyNSw1MTkuNzUgUTk2My4yMjUsNTE5Ljc1IDk2My4yMjUsNTIyLjU2MjUgTDk2NC45NzUsNTIyLjU2MjUgUTk2NC45NzUsNTIyLjU2MjUgOTY0Ljk3NSw1MTkuNzUgTDk2My4yMjUsNTE5Ljc1IFogTTk1OC45NzUsNTIwLjQzNzUgTDk2My45MTI1LDUyMC40Mzc1IEw5NjMuOTEyNSw1MTguNjg3NSBMOTU4Ljk3NSw1MTguNjg3NSBMOTU4Ljk3NSw1MjAuNDM3NSBaICIgZmlsbD0iIzAwMDAwMCIvPjx0ZXh0IGZpbGw9IiMwMDAwMDAiIGZvbnQtZmFtaWx5PSJzYW5zLXNlcmlmIiBmb250LXNpemU9IjE0IiBsZW5ndGhBZGp1c3Q9InNwYWNpbmciIHRleHRMZW5ndGg9IjQ5IiB4PSI5NzkuNjUiIHk9IjUyOS43NDIyIj5NZXNzYWdlPC90ZXh0PjxsaW5lIHN0eWxlPSJzdHJva2U6IzE4MTgxODtzdHJva2Utd2lkdGg6MC41OyIgeDE9IjkyOCIgeDI9IjEwNTAiIHkxPSI1NDAiIHkyPSI1NDAiLz48cmVjdCBmaWxsPSJub25lIiBoZWlnaHQ9IjYiIHN0eWxlPSJzdHJva2U6I0M4MjkzMDtzdHJva2Utd2lkdGg6MS4wOyIgd2lkdGg9IjYiIHg9IjkzNSIgeT0iNTQ5Ljk5MjIiLz48dGV4dCBmaWxsPSIjMDAwMDAwIiBmb250LWZhbWlseT0ic2Fucy1zZXJpZiIgZm9udC1zaXplPSIxNCIgbGVuZ3RoQWRqdXN0PSJzcGFjaW5nIiB0ZXh0TGVuZ3RoPSI0OSIgeD0iOTQ3IiB5PSI1NTcuMjM0NCI+aWQ6IGludDwvdGV4dD48cmVjdCBmaWxsPSJub25lIiBoZWlnaHQ9IjYiIHN0eWxlPSJzdHJva2U6I0M4MjkzMDtzdHJva2Utd2lkdGg6MS4wOyIgd2lkdGg9IjYiIHg9IjkzNSIgeT0iNTY0Ljk3NjYiLz48dGV4dCBmaWxsPSIjMDAwMDAwIiBmb250LWZhbWlseT0ic2Fucy1zZXJpZiIgZm9udC1zaXplPSIxNCIgbGVuZ3RoQWRqdXN0PSJzcGFjaW5nIiB0ZXh0TGVuZ3RoPSI4NCIgeD0iOTQ3IiB5PSI1NzIuMjE4OCI+dGV4dDogc3RyaW5nPC90ZXh0PjxyZWN0IGZpbGw9Im5vbmUiIGhlaWdodD0iNiIgc3R5bGU9InN0cm9rZTojQzgyOTMwO3N0cm9rZS13aWR0aDoxLjA7IiB3aWR0aD0iNiIgeD0iOTM1IiB5PSI1NzkuOTYwOSIvPjx0ZXh0IGZpbGw9IiMwMDAwMDAiIGZvbnQtZmFtaWx5PSJzYW5zLXNlcmlmIiBmb250LXNpemU9IjE0IiBsZW5ndGhBZGp1c3Q9InNwYWNpbmciIHRleHRMZW5ndGg9Ijg0IiB4PSI5NDciIHk9IjU4Ny4yMDMxIj5zZW5kZXI6IFVzZXI8L3RleHQ+PHJlY3QgZmlsbD0ibm9uZSIgaGVpZ2h0PSI2IiBzdHlsZT0ic3Ryb2tlOiNDODI5MzA7c3Ryb2tlLXdpZHRoOjEuMDsiIHdpZHRoPSI2IiB4PSI5MzUiIHk9IjU5NC45NDUzIi8+PHRleHQgZmlsbD0iIzAwMDAwMCIgZm9udC1mYW1pbHk9InNhbnMtc2VyaWYiIGZvbnQtc2l6ZT0iMTQiIGxlbmd0aEFkanVzdD0ic3BhY2luZyIgdGV4dExlbmd0aD0iOTgiIHg9Ijk0NyIgeT0iNjAyLjE4NzUiPnJlY2VpdmVyOiBVc2VyPC90ZXh0PjxsaW5lIHN0eWxlPSJzdHJva2U6IzE4MTgxODtzdHJva2Utd2lkdGg6MC41OyIgeDE9IjkyOCIgeDI9IjEwNTAiIHkxPSI2MDcuOTM3NSIgeTI9IjYwNy45Mzc1Ii8+PC9nPjwhLS1jbGFzcyBDb252ZXJzYXRpb24tLT48ZyBpZD0iZWxlbV9Db252ZXJzYXRpb24iPjxyZWN0IGNvZGVMaW5lPSIxMTQiIGZpbGw9IiNGMUYxRjEiIGhlaWdodD0iOTIuOTUzMSIgaWQ9IkNvbnZlcnNhdGlvbiIgcng9IjIuNSIgcnk9IjIuNSIgc3R5bGU9InN0cm9rZTojMTgxODE4O3N0cm9rZS13aWR0aDowLjU7IiB3aWR0aD0iMTg4IiB4PSIzMiIgeT0iNzEzLjUiLz48ZWxsaXBzZSBjeD0iNzkuNzUiIGN5PSI3MjkuNSIgZmlsbD0iI0FERDFCMiIgcng9IjExIiByeT0iMTEiIHN0eWxlPSJzdHJva2U6IzE4MTgxODtzdHJva2Utd2lkdGg6MS4wOyIvPjxwYXRoIGQ9Ik03Ny4zNzUsNzMzLjc1IEw3Ny4zNzUsNzM1LjUgTDgyLjMxMjUsNzM1LjUgTDgyLjMxMjUsNzMzLjc1IEw3Ny4zNzUsNzMzLjc1IFogTTc4LjA2MjUsNzM0LjQzNzUgUTc4LjA2MjUsNzM0LjQzNzUgNzguMDYyNSw3MjUuMjUgTDc2LjMxMjUsNzI1LjI1IFE3Ni4zMTI1LDcyNS4yNSA3Ni4zMTI1LDczNC40Mzc1IEw3OC4wNjI1LDczNC40Mzc1IFogTTgxLjYyNSw3MzQuNDM3NSBMODMuMzc1LDczNC40Mzc1IFE4My4zNzUsNzM0LjQzNzUgODMuMzc1LDczMS42MjUgTDgxLjYyNSw3MzEuNjI1IFE4MS42MjUsNzMxLjYyNSA4MS42MjUsNzM0LjQzNzUgWiBNODEuNjI1LDcyNS4yNSBRODEuNjI1LDcyNS4yNSA4MS42MjUsNzI4LjA2MjUgTDgzLjM3NSw3MjguMDYyNSBRODMuMzc1LDcyOC4wNjI1IDgzLjM3NSw3MjUuMjUgTDgxLjYyNSw3MjUuMjUgWiBNNzcuMzc1LDcyNS45Mzc1IEw4Mi4zMTI1LDcyNS45Mzc1IEw4Mi4zMTI1LDcyNC4xODc1IEw3Ny4zNzUsNzI0LjE4NzUgTDc3LjM3NSw3MjUuOTM3NSBaICIgZmlsbD0iIzAwMDAwMCIvPjx0ZXh0IGZpbGw9IiMwMDAwMDAiIGZvbnQtZmFtaWx5PSJzYW5zLXNlcmlmIiBmb250LXNpemU9IjE0IiBsZW5ndGhBZGp1c3Q9InNwYWNpbmciIHRleHRMZW5ndGg9Ijg0IiB4PSIxMDAuMjUiIHk9IjczNS4yNDIyIj5Db252ZXJzYXRpb248L3RleHQ+PGxpbmUgc3R5bGU9InN0cm9rZTojMTgxODE4O3N0cm9rZS13aWR0aDowLjU7IiB4MT0iMzMiIHgyPSIyMTkiIHkxPSI3NDUuNSIgeTI9Ijc0NS41Ii8+PHJlY3QgZmlsbD0ibm9uZSIgaGVpZ2h0PSI2IiBzdHlsZT0ic3Ryb2tlOiNDODI5MzA7c3Ryb2tlLXdpZHRoOjEuMDsiIHdpZHRoPSI2IiB4PSI0MCIgeT0iNzU1LjQ5MjIiLz48dGV4dCBmaWxsPSIjMDAwMDAwIiBmb250LWZhbWlseT0ic2Fucy1zZXJpZiIgZm9udC1zaXplPSIxNCIgbGVuZ3RoQWRqdXN0PSJzcGFjaW5nIiB0ZXh0TGVuZ3RoPSI0OSIgeD0iNTIiIHk9Ijc2Mi43MzQ0Ij5pZDogaW50PC90ZXh0PjxyZWN0IGZpbGw9Im5vbmUiIGhlaWdodD0iNiIgc3R5bGU9InN0cm9rZTojQzgyOTMwO3N0cm9rZS13aWR0aDoxLjA7IiB3aWR0aD0iNiIgeD0iNDAiIHk9Ijc3MC40NzY2Ii8+PHRleHQgZmlsbD0iIzAwMDAwMCIgZm9udC1mYW1pbHk9InNhbnMtc2VyaWYiIGZvbnQtc2l6ZT0iMTQiIGxlbmd0aEFkanVzdD0ic3BhY2luZyIgdGV4dExlbmd0aD0iMTE5IiB4PSI1MiIgeT0iNzc3LjcxODgiPnVzZXJzOiBMaXN0Jmx0O1VzZXImZ3Q7PC90ZXh0PjxyZWN0IGZpbGw9Im5vbmUiIGhlaWdodD0iNiIgc3R5bGU9InN0cm9rZTojQzgyOTMwO3N0cm9rZS13aWR0aDoxLjA7IiB3aWR0aD0iNiIgeD0iNDAiIHk9Ijc4NS40NjA5Ii8+PHRleHQgZmlsbD0iIzAwMDAwMCIgZm9udC1mYW1pbHk9InNhbnMtc2VyaWYiIGZvbnQtc2l6ZT0iMTQiIGxlbmd0aEFkanVzdD0ic3BhY2luZyIgdGV4dExlbmd0aD0iMTYyIiB4PSI1MiIgeT0iNzkyLjcwMzEiPm1lc3NhZ2VzOiBMaXN0Jmx0O01lc3NhZ2UmZ3Q7PC90ZXh0PjxsaW5lIHN0eWxlPSJzdHJva2U6IzE4MTgxODtzdHJva2Utd2lkdGg6MC41OyIgeDE9IjMzIiB4Mj0iMjE5IiB5MT0iNzk4LjQ1MzEiIHkyPSI3OTguNDUzMSIvPjwvZz48IS0tY2xhc3MgRXZlbnQtLT48ZyBpZD0iZWxlbV9FdmVudCI+PHJlY3QgY29kZUxpbmU9IjEyMCIgZmlsbD0iI0YxRjFGMSIgaGVpZ2h0PSIxMzcuOTA2MyIgaWQ9IkV2ZW50IiByeD0iMi41IiByeT0iMi41IiBzdHlsZT0ic3Ryb2tlOiMxODE4MTg7c3Ryb2tlLXdpZHRoOjAuNTsiIHdpZHRoPSIxNTkiIHg9IjI1NS41IiB5PSI2OTEiLz48ZWxsaXBzZSBjeD0iMzEzLjI1IiBjeT0iNzA3IiBmaWxsPSIjQUREMUIyIiByeD0iMTEiIHJ5PSIxMSIgc3R5bGU9InN0cm9rZTojMTgxODE4O3N0cm9rZS13aWR0aDoxLjA7Ii8+PHBhdGggZD0iTTMxMC44NzUsNzExLjI1IEwzMTAuODc1LDcxMyBMMzE1LjgxMjUsNzEzIEwzMTUuODEyNSw3MTEuMjUgTDMxMC44NzUsNzExLjI1IFogTTMxMS41NjI1LDcxMS45Mzc1IFEzMTEuNTYyNSw3MTEuOTM3NSAzMTEuNTYyNSw3MDIuNzUgTDMwOS44MTI1LDcwMi43NSBRMzA5LjgxMjUsNzAyLjc1IDMwOS44MTI1LDcxMS45Mzc1IEwzMTEuNTYyNSw3MTEuOTM3NSBaIE0zMTUuMTI1LDcxMS45Mzc1IEwzMTYuODc1LDcxMS45Mzc1IFEzMTYuODc1LDcxMS45Mzc1IDMxNi44NzUsNzA5LjEyNSBMMzE1LjEyNSw3MDkuMTI1IFEzMTUuMTI1LDcwOS4xMjUgMzE1LjEyNSw3MTEuOTM3NSBaIE0zMTUuMTI1LDcwMi43NSBRMzE1LjEyNSw3MDIuNzUgMzE1LjEyNSw3MDUuNTYyNSBMMzE2Ljg3NSw3MDUuNTYyNSBRMzE2Ljg3NSw3MDUuNTYyNSAzMTYuODc1LDcwMi43NSBMMzE1LjEyNSw3MDIuNzUgWiBNMzEwLjg3NSw3MDMuNDM3NSBMMzE1LjgxMjUsNzAzLjQzNzUgTDMxNS44MTI1LDcwMS42ODc1IEwzMTAuODc1LDcwMS42ODc1IEwzMTAuODc1LDcwMy40Mzc1IFogIiBmaWxsPSIjMDAwMDAwIi8+PHRleHQgZmlsbD0iIzAwMDAwMCIgZm9udC1mYW1pbHk9InNhbnMtc2VyaWYiIGZvbnQtc2l6ZT0iMTQiIGxlbmd0aEFkanVzdD0ic3BhY2luZyIgdGV4dExlbmd0aD0iMzUiIHg9IjMzMy43NSIgeT0iNzEyLjc0MjIiPkV2ZW50PC90ZXh0PjxsaW5lIHN0eWxlPSJzdHJva2U6IzE4MTgxODtzdHJva2Utd2lkdGg6MC41OyIgeDE9IjI1Ni41IiB4Mj0iNDEzLjUiIHkxPSI3MjMiIHkyPSI3MjMiLz48cmVjdCBmaWxsPSJub25lIiBoZWlnaHQ9IjYiIHN0eWxlPSJzdHJva2U6I0M4MjkzMDtzdHJva2Utd2lkdGg6MS4wOyIgd2lkdGg9IjYiIHg9IjI2My41IiB5PSI3MzIuOTkyMiIvPjx0ZXh0IGZpbGw9IiMwMDAwMDAiIGZvbnQtZmFtaWx5PSJzYW5zLXNlcmlmIiBmb250LXNpemU9IjE0IiBsZW5ndGhBZGp1c3Q9InNwYWNpbmciIHRleHRMZW5ndGg9IjQ5IiB4PSIyNzUuNSIgeT0iNzQwLjIzNDQiPmlkOiBpbnQ8L3RleHQ+PHJlY3QgZmlsbD0ibm9uZSIgaGVpZ2h0PSI2IiBzdHlsZT0ic3Ryb2tlOiNDODI5MzA7c3Ryb2tlLXdpZHRoOjEuMDsiIHdpZHRoPSI2IiB4PSIyNjMuNSIgeT0iNzQ3Ljk3NjYiLz48dGV4dCBmaWxsPSIjMDAwMDAwIiBmb250LWZhbWlseT0ic2Fucy1zZXJpZiIgZm9udC1zaXplPSIxNCIgbGVuZ3RoQWRqdXN0PSJzcGFjaW5nIiB0ZXh0TGVuZ3RoPSI4NSIgeD0iMjc1LjUiIHk9Ijc1NS4yMTg4Ij5uYW1lOiBzdHJpbmc8L3RleHQ+PHJlY3QgZmlsbD0ibm9uZSIgaGVpZ2h0PSI2IiBzdHlsZT0ic3Ryb2tlOiNDODI5MzA7c3Ryb2tlLXdpZHRoOjEuMDsiIHdpZHRoPSI2IiB4PSIyNjMuNSIgeT0iNzYyLjk2MDkiLz48dGV4dCBmaWxsPSIjMDAwMDAwIiBmb250LWZhbWlseT0ic2Fucy1zZXJpZiIgZm9udC1zaXplPSIxNCIgbGVuZ3RoQWRqdXN0PSJzcGFjaW5nIiB0ZXh0TGVuZ3RoPSIxMzMiIHg9IjI3NS41IiB5PSI3NzAuMjAzMSI+ZGVzY3JpcHRpb246IHN0cmluZzwvdGV4dD48cmVjdCBmaWxsPSJub25lIiBoZWlnaHQ9IjYiIHN0eWxlPSJzdHJva2U6I0M4MjkzMDtzdHJva2Utd2lkdGg6MS4wOyIgd2lkdGg9IjYiIHg9IjI2My41IiB5PSI3NzcuOTQ1MyIvPjx0ZXh0IGZpbGw9IiMwMDAwMDAiIGZvbnQtZmFtaWx5PSJzYW5zLXNlcmlmIiBmb250LXNpemU9IjE0IiBsZW5ndGhBZGp1c3Q9InNwYWNpbmciIHRleHRMZW5ndGg9IjEwNiIgeD0iMjc1LjUiIHk9Ijc4NS4xODc1Ij5zdGFydDogZGF0ZXRpbWU8L3RleHQ+PHJlY3QgZmlsbD0ibm9uZSIgaGVpZ2h0PSI2IiBzdHlsZT0ic3Ryb2tlOiNDODI5MzA7c3Ryb2tlLXdpZHRoOjEuMDsiIHdpZHRoPSI2IiB4PSIyNjMuNSIgeT0iNzkyLjkyOTciLz48dGV4dCBmaWxsPSIjMDAwMDAwIiBmb250LWZhbWlseT0ic2Fucy1zZXJpZiIgZm9udC1zaXplPSIxNCIgbGVuZ3RoQWRqdXN0PSJzcGFjaW5nIiB0ZXh0TGVuZ3RoPSI5MiIgeD0iMjc1LjUiIHk9IjgwMC4xNzE5Ij5lbmQ6IGRhdGV0aW1lPC90ZXh0PjxyZWN0IGZpbGw9Im5vbmUiIGhlaWdodD0iNiIgc3R5bGU9InN0cm9rZTojQzgyOTMwO3N0cm9rZS13aWR0aDoxLjA7IiB3aWR0aD0iNiIgeD0iMjYzLjUiIHk9IjgwNy45MTQxIi8+PHRleHQgZmlsbD0iIzAwMDAwMCIgZm9udC1mYW1pbHk9InNhbnMtc2VyaWYiIGZvbnQtc2l6ZT0iMTQiIGxlbmd0aEFkanVzdD0ic3BhY2luZyIgdGV4dExlbmd0aD0iMTE5IiB4PSIyNzUuNSIgeT0iODE1LjE1NjMiPnVzZXJzOiBMaXN0Jmx0O1VzZXImZ3Q7PC90ZXh0PjxsaW5lIHN0eWxlPSJzdHJva2U6IzE4MTgxODtzdHJva2Utd2lkdGg6MC41OyIgeDE9IjI1Ni41IiB4Mj0iNDEzLjUiIHkxPSI4MjAuOTA2MyIgeTI9IjgyMC45MDYzIi8+PC9nPjwhLS1jbGFzcyBHcm91cC0tPjxnIGlkPSJlbGVtX0dyb3VwIj48cmVjdCBjb2RlTGluZT0iMTI5IiBmaWxsPSIjRjFGMUYxIiBoZWlnaHQ9IjEwNy45Mzc1IiBpZD0iR3JvdXAiIHJ4PSIyLjUiIHJ5PSIyLjUiIHN0eWxlPSJzdHJva2U6IzE4MTgxODtzdHJva2Utd2lkdGg6MC41OyIgd2lkdGg9IjE1OSIgeD0iNDQ5LjUiIHk9IjcwNiIvPjxlbGxpcHNlIGN4PSI1MDcuMjUiIGN5PSI3MjIiIGZpbGw9IiNBREQxQjIiIHJ4PSIxMSIgcnk9IjExIiBzdHlsZT0ic3Ryb2tlOiMxODE4MTg7c3Ryb2tlLXdpZHRoOjEuMDsiLz48cGF0aCBkPSJNNTA0Ljg3NSw3MjYuMjUgTDUwNC44NzUsNzI4IEw1MDkuODEyNSw3MjggTDUwOS44MTI1LDcyNi4yNSBMNTA0Ljg3NSw3MjYuMjUgWiBNNTA1LjU2MjUsNzI2LjkzNzUgUTUwNS41NjI1LDcyNi45Mzc1IDUwNS41NjI1LDcxNy43NSBMNTAzLjgxMjUsNzE3Ljc1IFE1MDMuODEyNSw3MTcuNzUgNTAzLjgxMjUsNzI2LjkzNzUgTDUwNS41NjI1LDcyNi45Mzc1IFogTTUwOS4xMjUsNzI2LjkzNzUgTDUxMC44NzUsNzI2LjkzNzUgUTUxMC44NzUsNzI2LjkzNzUgNTEwLjg3NSw3MjQuMTI1IEw1MDkuMTI1LDcyNC4xMjUgUTUwOS4xMjUsNzI0LjEyNSA1MDkuMTI1LDcyNi45Mzc1IFogTTUwOS4xMjUsNzE3Ljc1IFE1MDkuMTI1LDcxNy43NSA1MDkuMTI1LDcyMC41NjI1IEw1MTAuODc1LDcyMC41NjI1IFE1MTAuODc1LDcyMC41NjI1IDUxMC44NzUsNzE3Ljc1IEw1MDkuMTI1LDcxNy43NSBaIE01MDQuODc1LDcxOC40Mzc1IEw1MDkuODEyNSw3MTguNDM3NSBMNTA5LjgxMjUsNzE2LjY4NzUgTDUwNC44NzUsNzE2LjY4NzUgTDUwNC44NzUsNzE4LjQzNzUgWiAiIGZpbGw9IiMwMDAwMDAiLz48dGV4dCBmaWxsPSIjMDAwMDAwIiBmb250LWZhbWlseT0ic2Fucy1zZXJpZiIgZm9udC1zaXplPSIxNCIgbGVuZ3RoQWRqdXN0PSJzcGFjaW5nIiB0ZXh0TGVuZ3RoPSIzNSIgeD0iNTI3Ljc1IiB5PSI3MjcuNzQyMiI+R3JvdXA8L3RleHQ+PGxpbmUgc3R5bGU9InN0cm9rZTojMTgxODE4O3N0cm9rZS13aWR0aDowLjU7IiB4MT0iNDUwLjUiIHgyPSI2MDcuNSIgeTE9IjczOCIgeTI9IjczOCIvPjxyZWN0IGZpbGw9Im5vbmUiIGhlaWdodD0iNiIgc3R5bGU9InN0cm9rZTojQzgyOTMwO3N0cm9rZS13aWR0aDoxLjA7IiB3aWR0aD0iNiIgeD0iNDU3LjUiIHk9Ijc0Ny45OTIyIi8+PHRleHQgZmlsbD0iIzAwMDAwMCIgZm9udC1mYW1pbHk9InNhbnMtc2VyaWYiIGZvbnQtc2l6ZT0iMTQiIGxlbmd0aEFkanVzdD0ic3BhY2luZyIgdGV4dExlbmd0aD0iNDkiIHg9IjQ2OS41IiB5PSI3NTUuMjM0NCI+aWQ6IGludDwvdGV4dD48cmVjdCBmaWxsPSJub25lIiBoZWlnaHQ9IjYiIHN0eWxlPSJzdHJva2U6I0M4MjkzMDtzdHJva2Utd2lkdGg6MS4wOyIgd2lkdGg9IjYiIHg9IjQ1Ny41IiB5PSI3NjIuOTc2NiIvPjx0ZXh0IGZpbGw9IiMwMDAwMDAiIGZvbnQtZmFtaWx5PSJzYW5zLXNlcmlmIiBmb250LXNpemU9IjE0IiBsZW5ndGhBZGp1c3Q9InNwYWNpbmciIHRleHRMZW5ndGg9Ijg1IiB4PSI0NjkuNSIgeT0iNzcwLjIxODgiPm5hbWU6IHN0cmluZzwvdGV4dD48cmVjdCBmaWxsPSJub25lIiBoZWlnaHQ9IjYiIHN0eWxlPSJzdHJva2U6I0M4MjkzMDtzdHJva2Utd2lkdGg6MS4wOyIgd2lkdGg9IjYiIHg9IjQ1Ny41IiB5PSI3NzcuOTYwOSIvPjx0ZXh0IGZpbGw9IiMwMDAwMDAiIGZvbnQtZmFtaWx5PSJzYW5zLXNlcmlmIiBmb250LXNpemU9IjE0IiBsZW5ndGhBZGp1c3Q9InNwYWNpbmciIHRleHRMZW5ndGg9IjEzMyIgeD0iNDY5LjUiIHk9Ijc4NS4yMDMxIj5kZXNjcmlwdGlvbjogc3RyaW5nPC90ZXh0PjxyZWN0IGZpbGw9Im5vbmUiIGhlaWdodD0iNiIgc3R5bGU9InN0cm9rZTojQzgyOTMwO3N0cm9rZS13aWR0aDoxLjA7IiB3aWR0aD0iNiIgeD0iNDU3LjUiIHk9Ijc5Mi45NDUzIi8+PHRleHQgZmlsbD0iIzAwMDAwMCIgZm9udC1mYW1pbHk9InNhbnMtc2VyaWYiIGZvbnQtc2l6ZT0iMTQiIGxlbmd0aEFkanVzdD0ic3BhY2luZyIgdGV4dExlbmd0aD0iMTE5IiB4PSI0NjkuNSIgeT0iODAwLjE4NzUiPnVzZXJzOiBMaXN0Jmx0O1VzZXImZ3Q7PC90ZXh0PjxsaW5lIHN0eWxlPSJzdHJva2U6IzE4MTgxODtzdHJva2Utd2lkdGg6MC41OyIgeDE9IjQ1MC41IiB4Mj0iNjA3LjUiIHkxPSI4MDUuOTM3NSIgeTI9IjgwNS45Mzc1Ii8+PC9nPjwhLS1jbGFzcyBCb29rbWFyay0tPjxnIGlkPSJlbGVtX0Jvb2ttYXJrIj48cmVjdCBjb2RlTGluZT0iMTM2IiBmaWxsPSIjRjFGMUYxIiBoZWlnaHQ9IjkyLjk1MzEiIGlkPSJCb29rbWFyayIgcng9IjIuNSIgcnk9IjIuNSIgc3R5bGU9InN0cm9rZTojMTgxODE4O3N0cm9rZS13aWR0aDowLjU7IiB3aWR0aD0iMTgwIiB4PSI2NDQiIHk9IjcxMy41Ii8+PGVsbGlwc2UgY3g9IjcwMS4yNSIgY3k9IjcyOS41IiBmaWxsPSIjQUREMUIyIiByeD0iMTEiIHJ5PSIxMSIgc3R5bGU9InN0cm9rZTojMTgxODE4O3N0cm9rZS13aWR0aDoxLjA7Ii8+PHBhdGggZD0iTTY5OC44NzUsNzMzLjc1IEw2OTguODc1LDczNS41IEw3MDMuODEyNSw3MzUuNSBMNzAzLjgxMjUsNzMzLjc1IEw2OTguODc1LDczMy43NSBaIE02OTkuNTYyNSw3MzQuNDM3NSBRNjk5LjU2MjUsNzM0LjQzNzUgNjk5LjU2MjUsNzI1LjI1IEw2OTcuODEyNSw3MjUuMjUgUTY5Ny44MTI1LDcyNS4yNSA2OTcuODEyNSw3MzQuNDM3NSBMNjk5LjU2MjUsNzM0LjQzNzUgWiBNNzAzLjEyNSw3MzQuNDM3NSBMNzA0Ljg3NSw3MzQuNDM3NSBRNzA0Ljg3NSw3MzQuNDM3NSA3MDQuODc1LDczMS42MjUgTDcwMy4xMjUsNzMxLjYyNSBRNzAzLjEyNSw3MzEuNjI1IDcwMy4xMjUsNzM0LjQzNzUgWiBNNzAzLjEyNSw3MjUuMjUgUTcwMy4xMjUsNzI1LjI1IDcwMy4xMjUsNzI4LjA2MjUgTDcwNC44NzUsNzI4LjA2MjUgUTcwNC44NzUsNzI4LjA2MjUgNzA0Ljg3NSw3MjUuMjUgTDcwMy4xMjUsNzI1LjI1IFogTTY5OC44NzUsNzI1LjkzNzUgTDcwMy44MTI1LDcyNS45Mzc1IEw3MDMuODEyNSw3MjQuMTg3NSBMNjk4Ljg3NSw3MjQuMTg3NSBMNjk4Ljg3NSw3MjUuOTM3NSBaICIgZmlsbD0iIzAwMDAwMCIvPjx0ZXh0IGZpbGw9IiMwMDAwMDAiIGZvbnQtZmFtaWx5PSJzYW5zLXNlcmlmIiBmb250LXNpemU9IjE0IiBsZW5ndGhBZGp1c3Q9InNwYWNpbmciIHRleHRMZW5ndGg9IjU3IiB4PSI3MjEuNzUiIHk9IjczNS4yNDIyIj5Cb29rbWFyazwvdGV4dD48bGluZSBzdHlsZT0ic3Ryb2tlOiMxODE4MTg7c3Ryb2tlLXdpZHRoOjAuNTsiIHgxPSI2NDUiIHgyPSI4MjMiIHkxPSI3NDUuNSIgeTI9Ijc0NS41Ii8+PHJlY3QgZmlsbD0ibm9uZSIgaGVpZ2h0PSI2IiBzdHlsZT0ic3Ryb2tlOiNDODI5MzA7c3Ryb2tlLXdpZHRoOjEuMDsiIHdpZHRoPSI2IiB4PSI2NTIiIHk9Ijc1NS40OTIyIi8+PHRleHQgZmlsbD0iIzAwMDAwMCIgZm9udC1mYW1pbHk9InNhbnMtc2VyaWYiIGZvbnQtc2l6ZT0iMTQiIGxlbmd0aEFkanVzdD0ic3BhY2luZyIgdGV4dExlbmd0aD0iNDkiIHg9IjY2NCIgeT0iNzYyLjczNDQiPmlkOiBpbnQ8L3RleHQ+PHJlY3QgZmlsbD0ibm9uZSIgaGVpZ2h0PSI2IiBzdHlsZT0ic3Ryb2tlOiNDODI5MzA7c3Ryb2tlLXdpZHRoOjEuMDsiIHdpZHRoPSI2IiB4PSI2NTIiIHk9Ijc3MC40NzY2Ii8+PHRleHQgZmlsbD0iIzAwMDAwMCIgZm9udC1mYW1pbHk9InNhbnMtc2VyaWYiIGZvbnQtc2l6ZT0iMTQiIGxlbmd0aEFkanVzdD0ic3BhY2luZyIgdGV4dExlbmd0aD0iNzAiIHg9IjY2NCIgeT0iNzc3LjcxODgiPnVzZXI6IFVzZXI8L3RleHQ+PHJlY3QgZmlsbD0ibm9uZSIgaGVpZ2h0PSI2IiBzdHlsZT0ic3Ryb2tlOiNDODI5MzA7c3Ryb2tlLXdpZHRoOjEuMDsiIHdpZHRoPSI2IiB4PSI2NTIiIHk9Ijc4NS40NjA5Ii8+PHRleHQgZmlsbD0iIzAwMDAwMCIgZm9udC1mYW1pbHk9InNhbnMtc2VyaWYiIGZvbnQtc2l6ZT0iMTQiIGxlbmd0aEFkanVzdD0ic3BhY2luZyIgdGV4dExlbmd0aD0iMTU0IiB4PSI2NjQiIHk9Ijc5Mi43MDMxIj5pbnRlcm5zaGlwOiBJbnRlcm5zaGlwPC90ZXh0PjxsaW5lIHN0eWxlPSJzdHJva2U6IzE4MTgxODtzdHJva2Utd2lkdGg6MC41OyIgeDE9IjY0NSIgeDI9IjgyMyIgeTE9Ijc5OC40NTMxIiB5Mj0iNzk4LjQ1MzEiLz48L2c+PCEtLWNsYXNzIFRhZy0tPjxnIGlkPSJlbGVtX1RhZyI+PHJlY3QgY29kZUxpbmU9IjE0MiIgZmlsbD0iI0YxRjFGMSIgaGVpZ2h0PSI5Mi45NTMxIiBpZD0iVGFnIiByeD0iMi41IiByeT0iMi41IiBzdHlsZT0ic3Ryb2tlOiMxODE4MTg7c3Ryb2tlLXdpZHRoOjAuNTsiIHdpZHRoPSIyMjkiIHg9Ijg1OS41IiB5PSI3MTMuNSIvPjxlbGxpcHNlIGN4PSI5NTkuMjUiIGN5PSI3MjkuNSIgZmlsbD0iI0FERDFCMiIgcng9IjExIiByeT0iMTEiIHN0eWxlPSJzdHJva2U6IzE4MTgxODtzdHJva2Utd2lkdGg6MS4wOyIvPjxwYXRoIGQ9Ik05NTYuODc1LDczMy43NSBMOTU2Ljg3NSw3MzUuNSBMOTYxLjgxMjUsNzM1LjUgTDk2MS44MTI1LDczMy43NSBMOTU2Ljg3NSw3MzMuNzUgWiBNOTU3LjU2MjUsNzM0LjQzNzUgUTk1Ny41NjI1LDczNC40Mzc1IDk1Ny41NjI1LDcyNS4yNSBMOTU1LjgxMjUsNzI1LjI1IFE5NTUuODEyNSw3MjUuMjUgOTU1LjgxMjUsNzM0LjQzNzUgTDk1Ny41NjI1LDczNC40Mzc1IFogTTk2MS4xMjUsNzM0LjQzNzUgTDk2Mi44NzUsNzM0LjQzNzUgUTk2Mi44NzUsNzM0LjQzNzUgOTYyLjg3NSw3MzEuNjI1IEw5NjEuMTI1LDczMS42MjUgUTk2MS4xMjUsNzMxLjYyNSA5NjEuMTI1LDczNC40Mzc1IFogTTk2MS4xMjUsNzI1LjI1IFE5NjEuMTI1LDcyNS4yNSA5NjEuMTI1LDcyOC4wNjI1IEw5NjIuODc1LDcyOC4wNjI1IFE5NjIuODc1LDcyOC4wNjI1IDk2Mi44NzUsNzI1LjI1IEw5NjEuMTI1LDcyNS4yNSBaIE05NTYuODc1LDcyNS45Mzc1IEw5NjEuODEyNSw3MjUuOTM3NSBMOTYxLjgxMjUsNzI0LjE4NzUgTDk1Ni44NzUsNzI0LjE4NzUgTDk1Ni44NzUsNzI1LjkzNzUgWiAiIGZpbGw9IiMwMDAwMDAiLz48dGV4dCBmaWxsPSIjMDAwMDAwIiBmb250LWZhbWlseT0ic2Fucy1zZXJpZiIgZm9udC1zaXplPSIxNCIgbGVuZ3RoQWRqdXN0PSJzcGFjaW5nIiB0ZXh0TGVuZ3RoPSIyMSIgeD0iOTc5Ljc1IiB5PSI3MzUuMjQyMiI+VGFnPC90ZXh0PjxsaW5lIHN0eWxlPSJzdHJva2U6IzE4MTgxODtzdHJva2Utd2lkdGg6MC41OyIgeDE9Ijg2MC41IiB4Mj0iMTA4Ny41IiB5MT0iNzQ1LjUiIHkyPSI3NDUuNSIvPjxyZWN0IGZpbGw9Im5vbmUiIGhlaWdodD0iNiIgc3R5bGU9InN0cm9rZTojQzgyOTMwO3N0cm9rZS13aWR0aDoxLjA7IiB3aWR0aD0iNiIgeD0iODY3LjUiIHk9Ijc1NS40OTIyIi8+PHRleHQgZmlsbD0iIzAwMDAwMCIgZm9udC1mYW1pbHk9InNhbnMtc2VyaWYiIGZvbnQtc2l6ZT0iMTQiIGxlbmd0aEFkanVzdD0ic3BhY2luZyIgdGV4dExlbmd0aD0iODUiIHg9Ijg3OS41IiB5PSI3NjIuNzM0NCI+bmFtZTogc3RyaW5nPC90ZXh0PjxyZWN0IGZpbGw9Im5vbmUiIGhlaWdodD0iNiIgc3R5bGU9InN0cm9rZTojQzgyOTMwO3N0cm9rZS13aWR0aDoxLjA7IiB3aWR0aD0iNiIgeD0iODY3LjUiIHk9Ijc3MC40NzY2Ii8+PHRleHQgZmlsbD0iIzAwMDAwMCIgZm9udC1mYW1pbHk9InNhbnMtc2VyaWYiIGZvbnQtc2l6ZT0iMTQiIGxlbmd0aEFkanVzdD0ic3BhY2luZyIgdGV4dExlbmd0aD0iMTMzIiB4PSI4NzkuNSIgeT0iNzc3LjcxODgiPmRlc2NyaXB0aW9uOiBzdHJpbmc8L3RleHQ+PHJlY3QgZmlsbD0ibm9uZSIgaGVpZ2h0PSI2IiBzdHlsZT0ic3Ryb2tlOiNDODI5MzA7c3Ryb2tlLXdpZHRoOjEuMDsiIHdpZHRoPSI2IiB4PSI4NjcuNSIgeT0iNzg1LjQ2MDkiLz48dGV4dCBmaWxsPSIjMDAwMDAwIiBmb250LWZhbWlseT0ic2Fucy1zZXJpZiIgZm9udC1zaXplPSIxNCIgbGVuZ3RoQWRqdXN0PSJzcGFjaW5nIiB0ZXh0TGVuZ3RoPSIyMDMiIHg9Ijg3OS41IiB5PSI3OTIuNzAzMSI+aW50ZXJuc2hpcHM6IExpc3QmbHQ7SW50ZXJuc2hpcCZndDs8L3RleHQ+PGxpbmUgc3R5bGU9InN0cm9rZTojMTgxODE4O3N0cm9rZS13aWR0aDowLjU7IiB4MT0iODYwLjUiIHgyPSIxMDg3LjUiIHkxPSI3OTguNDUzMSIgeTI9Ijc5OC40NTMxIi8+PC9nPjwhLS1jbGFzcyBVc2VyVHlwZS0tPjxnIGlkPSJlbGVtX1VzZXJUeXBlIj48cmVjdCBjb2RlTGluZT0iMTQ4IiBmaWxsPSIjRjFGMUYxIiBoZWlnaHQ9IjkyLjk1MzEiIGlkPSJVc2VyVHlwZSIgcng9IjIuNSIgcnk9IjIuNSIgc3R5bGU9InN0cm9rZTojMTgxODE4O3N0cm9rZS13aWR0aDowLjU7IiB3aWR0aD0iODgiIHg9IjgyIiB5PSI4ODkiLz48ZWxsaXBzZSBjeD0iOTciIGN5PSI5MDUiIGZpbGw9IiNFQjkzN0YiIHJ4PSIxMSIgcnk9IjExIiBzdHlsZT0ic3Ryb2tlOiMxODE4MTg7c3Ryb2tlLXdpZHRoOjEuMDsiLz48cGF0aCBkPSJNMTAwLjYyNSw5MTEgTDEwMC42MjUsOTA5LjI1IEw5NS4zMTI1LDkwOS4yNSBROTUuMzEyNSw5MDkuMjUgOTUuMzEyNSw5MDUuNjg3NSBMOTkuNTYyNSw5MDUuNjg3NSBMOTkuNTYyNSw5MDMuOTM3NSBMOTUuMzEyNSw5MDMuOTM3NSBMOTUuMzEyNSw5MDEuNDM3NSBMMTAwLjYyNSw5MDEuNDM3NSBMMTAwLjYyNSw4OTkuNjg3NSBMOTMuNTYyNSw4OTkuNjg3NSBROTMuNTYyNSw4OTkuNjg3NSA5My41NjI1LDkxMSBMMTAwLjYyNSw5MTEgWiAiIGZpbGw9IiMwMDAwMDAiLz48dGV4dCBmaWxsPSIjMDAwMDAwIiBmb250LWZhbWlseT0ic2Fucy1zZXJpZiIgZm9udC1zaXplPSIxNCIgbGVuZ3RoQWRqdXN0PSJzcGFjaW5nIiB0ZXh0TGVuZ3RoPSI1NiIgeD0iMTExIiB5PSI5MTAuNzQyMiI+VXNlclR5cGU8L3RleHQ+PGxpbmUgc3R5bGU9InN0cm9rZTojMTgxODE4O3N0cm9rZS13aWR0aDowLjU7IiB4MT0iODMiIHgyPSIxNjkiIHkxPSI5MjEiIHkyPSI5MjEiLz48dGV4dCBmaWxsPSIjMDAwMDAwIiBmb250LWZhbWlseT0ic2Fucy1zZXJpZiIgZm9udC1zaXplPSIxNCIgbGVuZ3RoQWRqdXN0PSJzcGFjaW5nIiB0ZXh0TGVuZ3RoPSI0OSIgeD0iODgiIHk9IjkzOC4yMzQ0Ij5TVFVERU5UPC90ZXh0Pjx0ZXh0IGZpbGw9IiMwMDAwMDAiIGZvbnQtZmFtaWx5PSJzYW5zLXNlcmlmIiBmb250LXNpemU9IjE0IiBsZW5ndGhBZGp1c3Q9InNwYWNpbmciIHRleHRMZW5ndGg9IjU2IiB4PSI4OCIgeT0iOTUzLjIxODgiPkVNUExPWUVSPC90ZXh0Pjx0ZXh0IGZpbGw9IiMwMDAwMDAiIGZvbnQtZmFtaWx5PSJzYW5zLXNlcmlmIiBmb250LXNpemU9IjE0IiBsZW5ndGhBZGp1c3Q9InNwYWNpbmciIHRleHRMZW5ndGg9IjM1IiB4PSI4OCIgeT0iOTY4LjIwMzEiPkFETUlOPC90ZXh0PjxsaW5lIHN0eWxlPSJzdHJva2U6IzE4MTgxODtzdHJva2Utd2lkdGg6MC41OyIgeDE9IjgzIiB4Mj0iMTY5IiB5MT0iOTczLjk1MzEiIHkyPSI5NzMuOTUzMSIvPjwvZz48IS0tY2xhc3MgQXBwbGljYXRpb25TdGF0dXMtLT48ZyBpZD0iZWxlbV9BcHBsaWNhdGlvblN0YXR1cyI+PHJlY3QgY29kZUxpbmU9IjE1NCIgZmlsbD0iI0YxRjFGMSIgaGVpZ2h0PSI5Mi45NTMxIiBpZD0iQXBwbGljYXRpb25TdGF0dXMiIHJ4PSIyLjUiIHJ5PSIyLjUiIHN0eWxlPSJzdHJva2U6IzE4MTgxODtzdHJva2Utd2lkdGg6MC41OyIgd2lkdGg9IjE1MSIgeD0iMjA1LjUiIHk9Ijg4OSIvPjxlbGxpcHNlIGN4PSIyMjAuNSIgY3k9IjkwNSIgZmlsbD0iI0VCOTM3RiIgcng9IjExIiByeT0iMTEiIHN0eWxlPSJzdHJva2U6IzE4MTgxODtzdHJva2Utd2lkdGg6MS4wOyIvPjxwYXRoIGQ9Ik0yMjQuMTI1LDkxMSBMMjI0LjEyNSw5MDkuMjUgTDIxOC44MTI1LDkwOS4yNSBRMjE4LjgxMjUsOTA5LjI1IDIxOC44MTI1LDkwNS42ODc1IEwyMjMuMDYyNSw5MDUuNjg3NSBMMjIzLjA2MjUsOTAzLjkzNzUgTDIxOC44MTI1LDkwMy45Mzc1IEwyMTguODEyNSw5MDEuNDM3NSBMMjI0LjEyNSw5MDEuNDM3NSBMMjI0LjEyNSw4OTkuNjg3NSBMMjE3LjA2MjUsODk5LjY4NzUgUTIxNy4wNjI1LDg5OS42ODc1IDIxNy4wNjI1LDkxMSBMMjI0LjEyNSw5MTEgWiAiIGZpbGw9IiMwMDAwMDAiLz48dGV4dCBmaWxsPSIjMDAwMDAwIiBmb250LWZhbWlseT0ic2Fucy1zZXJpZiIgZm9udC1zaXplPSIxNCIgbGVuZ3RoQWRqdXN0PSJzcGFjaW5nIiB0ZXh0TGVuZ3RoPSIxMTkiIHg9IjIzNC41IiB5PSI5MTAuNzQyMiI+QXBwbGljYXRpb25TdGF0dXM8L3RleHQ+PGxpbmUgc3R5bGU9InN0cm9rZTojMTgxODE4O3N0cm9rZS13aWR0aDowLjU7IiB4MT0iMjA2LjUiIHgyPSIzNTUuNSIgeTE9IjkyMSIgeTI9IjkyMSIvPjx0ZXh0IGZpbGw9IiMwMDAwMDAiIGZvbnQtZmFtaWx5PSJzYW5zLXNlcmlmIiBmb250LXNpemU9IjE0IiBsZW5ndGhBZGp1c3Q9InNwYWNpbmciIHRleHRMZW5ndGg9IjQ5IiB4PSIyMTEuNSIgeT0iOTM4LjIzNDQiPlBFTkRJTkc8L3RleHQ+PHRleHQgZmlsbD0iIzAwMDAwMCIgZm9udC1mYW1pbHk9InNhbnMtc2VyaWYiIGZvbnQtc2l6ZT0iMTQiIGxlbmd0aEFkanVzdD0ic3BhY2luZyIgdGV4dExlbmd0aD0iNTYiIHg9IjIxMS41IiB5PSI5NTMuMjE4OCI+QUNDRVBURUQ8L3RleHQ+PHRleHQgZmlsbD0iIzAwMDAwMCIgZm9udC1mYW1pbHk9InNhbnMtc2VyaWYiIGZvbnQtc2l6ZT0iMTQiIGxlbmd0aEFkanVzdD0ic3BhY2luZyIgdGV4dExlbmd0aD0iNTciIHg9IjIxMS41IiB5PSI5NjguMjAzMSI+UkVKRUNURUQ8L3RleHQ+PGxpbmUgc3R5bGU9InN0cm9rZTojMTgxODE4O3N0cm9rZS13aWR0aDowLjU7IiB4MT0iMjA2LjUiIHgyPSIzNTUuNSIgeTE9Ijk3My45NTMxIiB5Mj0iOTczLjk1MzEiLz48L2c+PCEtLVNSQz1bakxSQlJqaW00QnB4QXRIcWFFTzdYQ0EwUXdrMVlxR3JCRVZHOG9rakxTUHlnMkpiTDJab3hvTDVLZkhhRW15TnlPYlNTZFU3aXhDaHZtSDk2SnI4NEQ3VklRSF9EeFk4OHlvS3RUSndXMjRBU0lJTG1Bb3FyYWh4Rjc1SDNBcjA0SVAzYXNlZ3hNZ1lSX01nakxzTmVCeE1YQUd3d2xJZ2tfdXljVUdqYjRwTDFKM2JxTDNxb0NLbXdFcnc3YVN4bWY3M0E0M01PdUp3MEhndV84S2g2S1R0TUFoRmd5dW9pcFhHTFA1Y291RHo2ZnBZQTlXcm5oYy1ZZEVhQzZTMVE0OGhtZmwwTXl2ZlhMWUo3aDdiM2ZPV1N1NGg0LUpUTTJpa3JMazBYYXQwRUl5ZVBXeGF6RzQ0dFpNbFh4QXQybzJXdTBzdGtzSjFVNTlFMllpb09nU3VIbWxYYmw2WExJQTJIM0VnXy15UTJ3MVFEUHgwUjh5OWNKZHdhT0FJMm1wLVM2NERaSmo3ZVJaLUhnX1VDdl9aV0U3OWRzX1F0TW5HdFpYUXM4THBHNm9sR01VREw0M1pRREZWTWRCaGdqMTB0QzZxbnc3N3ZuYXl4aF9ZQ1ljNTdaRnFWNXB1N2RxZExJMExLaEtTajVOTWNsbm5FbTVZRm1oNmtHU29qd3NTdnIyZmdMRWpXNFY4TFBfSDNVV1lRTnFLRGJUUjE4X2lUM1JYRlExT2xUd1VVZ0dES3FXcHNTdUpmOUwyUS1RVkZlMVoxZ3hGTy1RYzRuYTVBTDdQSVZaVVJicndnVEN3b3RHZEVCS0p6ckVhazV5dlRyX0RnbXdzU3ZESmF6VlVsWGhkMjNKc0hUbkx6ZG5UUmNKRUhPU3ZDdmlVT0x4dUJuNkxTZUx0QnFiZnpCMzBlTnJCTm1BY1BLeUY5VllaWFc2NEppWkF0ZktwWi1tTnJCSi1vVjNsdzJfMklwd3FGQzVGWUhMU3I4UWtXNnp5aW41SEh2bGwwUzI3T29lTmQ2Y2hGNS1LVHNldVY1NEZsR19fZkhwZ3VJQnFxeW5pTFBZMi1zbDJZaDdmNjZJN3VyUm1rbGZWNzJfNF95QnZkWUFuRnFqVWxtZ2xJTS1Cb2UtT3ZDMWdzbHJuU21jb3hTQ29JUlZqRWhiVnR0dF9hTXBRcE5udmxxZXhod0VueGpwTklSZlNmUlZNT3g1OHJqamFzTXVzb1JUYU9KUkZfbTAwXS0tPjwvZz48L3N2Zz4=;" vertex="1" parent="1">
            <mxGeometry x="-648" y="-6" width="1696" height="988" as="geometry" />
          </mxCell>
        </UserObject>
        <UserObject label="" plantUmlData="{&#xa;  &quot;data&quot;: &quot;@startuml\n\nclass User {\n    - id: int\n    - username: str\n    - password: str\n    - email: str\n    - role: str\n}\n\nclass Student {\n    - id: int\n    - name: str\n    - gender: str\n    - age: int\n    - email: str\n    - phone: str\n    - school: str\n    - major: str\n    - interests: List[str]\n    - skills: List[str]\n    - applications: List[Application]\n\n    + view_profile()\n    + edit_profile(updated_fields)\n    + submit_application(internship_id, application_content)\n    + get_application_status(application_id)\n}\n\nclass Employer {\n    - id: int\n    - name: str\n    - email: str\n    - description: str\n    - website: str\n    - internships: List[Internship]\n\n    + view_profile()\n    + edit_profile(updated_fields)\n    + post_internship(internship)\n}\n\nclass Admin {\n    + view_students()\n    + view_employers()\n    + view_internships()\n    + approve_application(application_id)\n    + reject_application(application_id)\n}\n\nclass Internship {\n    - id: int\n    - name: str\n    - description: str\n    - requirements: str\n    - salary: float\n    - location: str\n    - type: str\n    - publish_time: datetime\n    - deadline: datetime\n    - category: Category\n    - skills: List[str]\n    - applications: List[Application]\n\n    + get_detail()\n    + set_category(category)\n    + set_skills(skills)\n}\n\nclass Application {\n    - id: int\n    - student: Student\n    - internship: Internship\n    - content: str\n    - status: str\n\n    + get_status()\n}\n\nclass Category {\n    - id: int\n    - name: str\n    - internships: List[Internship]\n\n    + add_internship(internship)\n    + remove_internship(internship)\n}\n\nclass Skill {\n    - id: int\n    - name: str\n    - internships: List[Internship]\n\n    + add_internship(internship)\n    + remove_internship(internship)\n}\n\nclass RecommendationSystem {\n    + recommend_internships(student, num_recommendations)\n    + calculate_similarity(student, internship)\n}\n\nclass CommunicationSystem {\n    + send_message(sender, receiver, message_content)\n    + get_messages(user)\n}\n\nclass RankingSystem {\n    + get_top_internships(category, num_top)\n    + get_trending_internships(num_trending)\n}\n\nclass Notification {\n    - id: int\n    - content: str\n    - user: User\n\n    + view_notification()\n    + mark_as_read()\n}\n\nclass Review {\n    - id: int\n    - content: str\n    - rating: int\n    - user: User\n    - internship: Internship\n\n    + view_review()\n    + edit_review(updated_fields)\n    + delete_review()\n}\n\nclass Company {\n    - id: int\n    - name: str\n    - description: str\n    - website: str\n    - internships: List[Internship]\n    - reviews: List[Review]\n\n    + view_profile()\n    + edit_profile(updated_fields)\n}\n\nclass Message {\n    - id: int\n    - sender: User\n    - receiver: User\n    - content: str\n    - timestamp: datetime\n\n    + view_message()\n    + reply()\n}\n\nclass Conversation {\n    - id: int\n    - users: List[User]\n    - messages: List[Message]\n\n    + view_conversation()\n    + send_message(sender, receiver, message_content)\n}\n\nclass Event {\n    - id: int\n    - name: str\n    - description: str\n    - location: str\n    - start_time: datetime\n    - end_time: datetime\n    - organizer: User\n    - attendees: List[User]\n\n    + view_event()\n    + edit_event(updated_fields)\n    + cancel_event()\n}\n\nclass Group {\n    - id: int\n    - name: str\n    - description: str\n    - members: List[User]\n    - events: List[Event]\n\n    + view_group()\n    + edit_group(updated_fields)\n    + add_member(member)\n    + remove_member(member)\n}\n\nclass Bookmark {\n    - id: int\n    - user: User\n    - internship: Internship\n\n    + view_bookmark()\n    + remove_bookmark()\n}\n\nclass Tag {\n    - id: int\n    - name: str\n    - internships: List[Internship]\n\n    + add_internship(internship)\n    + remove_internship(intternship)\n}\n\nUser --&gt; Application\nUser \&quot;1\&quot; --&gt; \&quot;*\&quot; Notification\nUser \&quot;1\&quot; --&gt; \&quot;*\&quot; Review\nUser \&quot;1\&quot; --&gt; \&quot;*\&quot; Message\nUser \&quot;1\&quot; --&gt; \&quot;*\&quot; Group\nUser \&quot;1\&quot; --&gt; \&quot;*\&quot; Bookmark\n\nStudent --&gt; RecommendationSystem\nStudent --&gt; CommunicationSystem\nStudent \&quot;1\&quot; --&gt; \&quot;*\&quot; Application\nStudent \&quot;1\&quot; --&gt; \&quot;*\&quot; Bookmark\n\nEmployer --&gt; Internship\nEmployer \&quot;1\&quot; --&gt; \&quot;*\&quot; Review\n\nAdmin --&gt; Student\nAdmin --&gt; Employer\nAdmin --&gt; Internship\n\nInternship \&quot;1\&quot; --&gt; \&quot;1\&quot; Category\nInternship \&quot;1\&quot; --&gt; \&quot;*\&quot; Skill\nInternship \&quot;1\&quot; --&gt; \&quot;*\&quot; Application\nInternship \&quot;1\&quot; --&gt; \&quot;*\&quot; Tag\n\nCompany --&gt; Internship\nCompany --&gt; Review\n\nMessage \&quot;1\&quot; --&gt; \&quot;1\&quot; Conversation\n\nConversation \&quot;2\&quot; --&gt; \&quot;*\&quot; Message\n\nEvent --&gt; User\nEvent \&quot;1\&quot; --&gt; \&quot;*\&quot; User\n\nGroup \&quot;1\&quot; --&gt; \&quot;*\&quot; User\nGroup \&quot;1\&quot; --&gt; \&quot;*\&quot; Event\n\n@enduml&quot;,&#xa;  &quot;format&quot;: &quot;svg&quot;&#xa;}" id="RT3UxA-Sgz-yJJKTgSwy-4">
          <mxCell style="shape=image;noLabel=1;verticalAlign=top;aspect=fixed;imageAspect=0;image=data:image/svg+xml,PD94bWwgdmVyc2lvbj0iMS4wIiBlbmNvZGluZz0idXMtYXNjaWkiIHN0YW5kYWxvbmU9Im5vIj8+PHN2ZyB4bWxucz0iaHR0cDovL3d3dy53My5vcmcvMjAwMC9zdmciIHhtbG5zOnhsaW5rPSJodHRwOi8vd3d3LnczLm9yZy8xOTk5L3hsaW5rIiBjb250ZW50U3R5bGVUeXBlPSJ0ZXh0L2NzcyIgaGVpZ2h0PSIxMDc1cHgiIHByZXNlcnZlQXNwZWN0UmF0aW89Im5vbmUiIHN0eWxlPSJ3aWR0aDoyNzcwcHg7aGVpZ2h0OjEwNzVweDtiYWNrZ3JvdW5kOiNGRkZGRkY7IiB2ZXJzaW9uPSIxLjEiIHZpZXdCb3g9IjAgMCAyNzcwIDEwNzUiIHdpZHRoPSIyNzcwcHgiIHpvb21BbmRQYW49Im1hZ25pZnkiPjxkZWZzLz48Zz48IS0tY2xhc3MgVXNlci0tPjxnIGlkPSJlbGVtX1VzZXIiPjxyZWN0IGNvZGVMaW5lPSIxIiBmaWxsPSIjRjFGMUYxIiBoZWlnaHQ9IjEyMi45MjE5IiBpZD0iVXNlciIgcng9IjIuNSIgcnk9IjIuNSIgc3R5bGU9InN0cm9rZTojMTgxODE4O3N0cm9rZS13aWR0aDowLjU7IiB3aWR0aD0iMTE4IiB4PSI0NDkiIHk9IjI2NSIvPjxlbGxpcHNlIGN4PSI0OTAuMSIgY3k9IjI4MSIgZmlsbD0iI0FERDFCMiIgcng9IjExIiByeT0iMTEiIHN0eWxlPSJzdHJva2U6IzE4MTgxODtzdHJva2Utd2lkdGg6MS4wOyIvPjxwYXRoIGQ9Ik00ODcuNzI1LDI4NS4yNSBMNDg3LjcyNSwyODcgTDQ5Mi42NjI1LDI4NyBMNDkyLjY2MjUsMjg1LjI1IEw0ODcuNzI1LDI4NS4yNSBaIE00ODguNDEyNSwyODUuOTM3NSBRNDg4LjQxMjUsMjg1LjkzNzUgNDg4LjQxMjUsMjc2Ljc1IEw0ODYuNjYyNSwyNzYuNzUgUTQ4Ni42NjI1LDI3Ni43NSA0ODYuNjYyNSwyODUuOTM3NSBMNDg4LjQxMjUsMjg1LjkzNzUgWiBNNDkxLjk3NSwyODUuOTM3NSBMNDkzLjcyNSwyODUuOTM3NSBRNDkzLjcyNSwyODUuOTM3NSA0OTMuNzI1LDI4My4xMjUgTDQ5MS45NzUsMjgzLjEyNSBRNDkxLjk3NSwyODMuMTI1IDQ5MS45NzUsMjg1LjkzNzUgWiBNNDkxLjk3NSwyNzYuNzUgUTQ5MS45NzUsMjc2Ljc1IDQ5MS45NzUsMjc5LjU2MjUgTDQ5My43MjUsMjc5LjU2MjUgUTQ5My43MjUsMjc5LjU2MjUgNDkzLjcyNSwyNzYuNzUgTDQ5MS45NzUsMjc2Ljc1IFogTTQ4Ny43MjUsMjc3LjQzNzUgTDQ5Mi42NjI1LDI3Ny40Mzc1IEw0OTIuNjYyNSwyNzUuNjg3NSBMNDg3LjcyNSwyNzUuNjg3NSBMNDg3LjcyNSwyNzcuNDM3NSBaICIgZmlsbD0iIzAwMDAwMCIvPjx0ZXh0IGZpbGw9IiMwMDAwMDAiIGZvbnQtZmFtaWx5PSJzYW5zLXNlcmlmIiBmb250LXNpemU9IjE0IiBsZW5ndGhBZGp1c3Q9InNwYWNpbmciIHRleHRMZW5ndGg9IjI4IiB4PSI1MDkuOSIgeT0iMjg2Ljc0MjIiPlVzZXI8L3RleHQ+PGxpbmUgc3R5bGU9InN0cm9rZTojMTgxODE4O3N0cm9rZS13aWR0aDowLjU7IiB4MT0iNDUwIiB4Mj0iNTY2IiB5MT0iMjk3IiB5Mj0iMjk3Ii8+PHJlY3QgZmlsbD0ibm9uZSIgaGVpZ2h0PSI2IiBzdHlsZT0ic3Ryb2tlOiNDODI5MzA7c3Ryb2tlLXdpZHRoOjEuMDsiIHdpZHRoPSI2IiB4PSI0NTciIHk9IjMwNi45OTIyIi8+PHRleHQgZmlsbD0iIzAwMDAwMCIgZm9udC1mYW1pbHk9InNhbnMtc2VyaWYiIGZvbnQtc2l6ZT0iMTQiIGxlbmd0aEFkanVzdD0ic3BhY2luZyIgdGV4dExlbmd0aD0iNDkiIHg9IjQ2OSIgeT0iMzE0LjIzNDQiPmlkOiBpbnQ8L3RleHQ+PHJlY3QgZmlsbD0ibm9uZSIgaGVpZ2h0PSI2IiBzdHlsZT0ic3Ryb2tlOiNDODI5MzA7c3Ryb2tlLXdpZHRoOjEuMDsiIHdpZHRoPSI2IiB4PSI0NTciIHk9IjMyMS45NzY2Ii8+PHRleHQgZmlsbD0iIzAwMDAwMCIgZm9udC1mYW1pbHk9InNhbnMtc2VyaWYiIGZvbnQtc2l6ZT0iMTQiIGxlbmd0aEFkanVzdD0ic3BhY2luZyIgdGV4dExlbmd0aD0iOTIiIHg9IjQ2OSIgeT0iMzI5LjIxODgiPnVzZXJuYW1lOiBzdHI8L3RleHQ+PHJlY3QgZmlsbD0ibm9uZSIgaGVpZ2h0PSI2IiBzdHlsZT0ic3Ryb2tlOiNDODI5MzA7c3Ryb2tlLXdpZHRoOjEuMDsiIHdpZHRoPSI2IiB4PSI0NTciIHk9IjMzNi45NjA5Ii8+PHRleHQgZmlsbD0iIzAwMDAwMCIgZm9udC1mYW1pbHk9InNhbnMtc2VyaWYiIGZvbnQtc2l6ZT0iMTQiIGxlbmd0aEFkanVzdD0ic3BhY2luZyIgdGV4dExlbmd0aD0iOTIiIHg9IjQ2OSIgeT0iMzQ0LjIwMzEiPnBhc3N3b3JkOiBzdHI8L3RleHQ+PHJlY3QgZmlsbD0ibm9uZSIgaGVpZ2h0PSI2IiBzdHlsZT0ic3Ryb2tlOiNDODI5MzA7c3Ryb2tlLXdpZHRoOjEuMDsiIHdpZHRoPSI2IiB4PSI0NTciIHk9IjM1MS45NDUzIi8+PHRleHQgZmlsbD0iIzAwMDAwMCIgZm9udC1mYW1pbHk9InNhbnMtc2VyaWYiIGZvbnQtc2l6ZT0iMTQiIGxlbmd0aEFkanVzdD0ic3BhY2luZyIgdGV4dExlbmd0aD0iNzEiIHg9IjQ2OSIgeT0iMzU5LjE4NzUiPmVtYWlsOiBzdHI8L3RleHQ+PHJlY3QgZmlsbD0ibm9uZSIgaGVpZ2h0PSI2IiBzdHlsZT0ic3Ryb2tlOiNDODI5MzA7c3Ryb2tlLXdpZHRoOjEuMDsiIHdpZHRoPSI2IiB4PSI0NTciIHk9IjM2Ni45Mjk3Ii8+PHRleHQgZmlsbD0iIzAwMDAwMCIgZm9udC1mYW1pbHk9InNhbnMtc2VyaWYiIGZvbnQtc2l6ZT0iMTQiIGxlbmd0aEFkanVzdD0ic3BhY2luZyIgdGV4dExlbmd0aD0iNjMiIHg9IjQ2OSIgeT0iMzc0LjE3MTkiPnJvbGU6IHN0cjwvdGV4dD48bGluZSBzdHlsZT0ic3Ryb2tlOiMxODE4MTg7c3Ryb2tlLXdpZHRoOjAuNTsiIHgxPSI0NTAiIHgyPSI1NjYiIHkxPSIzNzkuOTIxOSIgeTI9IjM3OS45MjE5Ii8+PC9nPjwhLS1jbGFzcyBTdHVkZW50LS0+PGcgaWQ9ImVsZW1fU3R1ZGVudCI+PHJlY3QgY29kZUxpbmU9IjkiIGZpbGw9IiNGMUYxRjEiIGhlaWdodD0iMjcyLjc2NTYiIGlkPSJTdHVkZW50IiByeD0iMi41IiByeT0iMi41IiBzdHlsZT0ic3Ryb2tlOiMxODE4MTg7c3Ryb2tlLXdpZHRoOjAuNTsiIHdpZHRoPSI0MDciIHg9IjExNTQuNSIgeT0iMTkwIi8+PGVsbGlwc2UgY3g9IjEzMjkuMjUiIGN5PSIyMDYiIGZpbGw9IiNBREQxQjIiIHJ4PSIxMSIgcnk9IjExIiBzdHlsZT0ic3Ryb2tlOiMxODE4MTg7c3Ryb2tlLXdpZHRoOjEuMDsiLz48cGF0aCBkPSJNMTMyNi44NzUsMjEwLjI1IEwxMzI2Ljg3NSwyMTIgTDEzMzEuODEyNSwyMTIgTDEzMzEuODEyNSwyMTAuMjUgTDEzMjYuODc1LDIxMC4yNSBaIE0xMzI3LjU2MjUsMjEwLjkzNzUgUTEzMjcuNTYyNSwyMTAuOTM3NSAxMzI3LjU2MjUsMjAxLjc1IEwxMzI1LjgxMjUsMjAxLjc1IFExMzI1LjgxMjUsMjAxLjc1IDEzMjUuODEyNSwyMTAuOTM3NSBMMTMyNy41NjI1LDIxMC45Mzc1IFogTTEzMzEuMTI1LDIxMC45Mzc1IEwxMzMyLjg3NSwyMTAuOTM3NSBRMTMzMi44NzUsMjEwLjkzNzUgMTMzMi44NzUsMjA4LjEyNSBMMTMzMS4xMjUsMjA4LjEyNSBRMTMzMS4xMjUsMjA4LjEyNSAxMzMxLjEyNSwyMTAuOTM3NSBaIE0xMzMxLjEyNSwyMDEuNzUgUTEzMzEuMTI1LDIwMS43NSAxMzMxLjEyNSwyMDQuNTYyNSBMMTMzMi44NzUsMjA0LjU2MjUgUTEzMzIuODc1LDIwNC41NjI1IDEzMzIuODc1LDIwMS43NSBMMTMzMS4xMjUsMjAxLjc1IFogTTEzMjYuODc1LDIwMi40Mzc1IEwxMzMxLjgxMjUsMjAyLjQzNzUgTDEzMzEuODEyNSwyMDAuNjg3NSBMMTMyNi44NzUsMjAwLjY4NzUgTDEzMjYuODc1LDIwMi40Mzc1IFogIiBmaWxsPSIjMDAwMDAwIi8+PHRleHQgZmlsbD0iIzAwMDAwMCIgZm9udC1mYW1pbHk9InNhbnMtc2VyaWYiIGZvbnQtc2l6ZT0iMTQiIGxlbmd0aEFkanVzdD0ic3BhY2luZyIgdGV4dExlbmd0aD0iNDkiIHg9IjEzNDkuNzUiIHk9IjIxMS43NDIyIj5TdHVkZW50PC90ZXh0PjxsaW5lIHN0eWxlPSJzdHJva2U6IzE4MTgxODtzdHJva2Utd2lkdGg6MC41OyIgeDE9IjExNTUuNSIgeDI9IjE1NjAuNSIgeTE9IjIyMiIgeTI9IjIyMiIvPjxyZWN0IGZpbGw9Im5vbmUiIGhlaWdodD0iNiIgc3R5bGU9InN0cm9rZTojQzgyOTMwO3N0cm9rZS13aWR0aDoxLjA7IiB3aWR0aD0iNiIgeD0iMTE2Mi41IiB5PSIyMzEuOTkyMiIvPjx0ZXh0IGZpbGw9IiMwMDAwMDAiIGZvbnQtZmFtaWx5PSJzYW5zLXNlcmlmIiBmb250LXNpemU9IjE0IiBsZW5ndGhBZGp1c3Q9InNwYWNpbmciIHRleHRMZW5ndGg9IjQ5IiB4PSIxMTc0LjUiIHk9IjIzOS4yMzQ0Ij5pZDogaW50PC90ZXh0PjxyZWN0IGZpbGw9Im5vbmUiIGhlaWdodD0iNiIgc3R5bGU9InN0cm9rZTojQzgyOTMwO3N0cm9rZS13aWR0aDoxLjA7IiB3aWR0aD0iNiIgeD0iMTE2Mi41IiB5PSIyNDYuOTc2NiIvPjx0ZXh0IGZpbGw9IiMwMDAwMDAiIGZvbnQtZmFtaWx5PSJzYW5zLXNlcmlmIiBmb250LXNpemU9IjE0IiBsZW5ndGhBZGp1c3Q9InNwYWNpbmciIHRleHRMZW5ndGg9IjY0IiB4PSIxMTc0LjUiIHk9IjI1NC4yMTg4Ij5uYW1lOiBzdHI8L3RleHQ+PHJlY3QgZmlsbD0ibm9uZSIgaGVpZ2h0PSI2IiBzdHlsZT0ic3Ryb2tlOiNDODI5MzA7c3Ryb2tlLXdpZHRoOjEuMDsiIHdpZHRoPSI2IiB4PSIxMTYyLjUiIHk9IjI2MS45NjA5Ii8+PHRleHQgZmlsbD0iIzAwMDAwMCIgZm9udC1mYW1pbHk9InNhbnMtc2VyaWYiIGZvbnQtc2l6ZT0iMTQiIGxlbmd0aEFkanVzdD0ic3BhY2luZyIgdGV4dExlbmd0aD0iNzciIHg9IjExNzQuNSIgeT0iMjY5LjIwMzEiPmdlbmRlcjogc3RyPC90ZXh0PjxyZWN0IGZpbGw9Im5vbmUiIGhlaWdodD0iNiIgc3R5bGU9InN0cm9rZTojQzgyOTMwO3N0cm9rZS13aWR0aDoxLjA7IiB3aWR0aD0iNiIgeD0iMTE2Mi41IiB5PSIyNzYuOTQ1MyIvPjx0ZXh0IGZpbGw9IiMwMDAwMDAiIGZvbnQtZmFtaWx5PSJzYW5zLXNlcmlmIiBmb250LXNpemU9IjE0IiBsZW5ndGhBZGp1c3Q9InNwYWNpbmciIHRleHRMZW5ndGg9IjU2IiB4PSIxMTc0LjUiIHk9IjI4NC4xODc1Ij5hZ2U6IGludDwvdGV4dD48cmVjdCBmaWxsPSJub25lIiBoZWlnaHQ9IjYiIHN0eWxlPSJzdHJva2U6I0M4MjkzMDtzdHJva2Utd2lkdGg6MS4wOyIgd2lkdGg9IjYiIHg9IjExNjIuNSIgeT0iMjkxLjkyOTciLz48dGV4dCBmaWxsPSIjMDAwMDAwIiBmb250LWZhbWlseT0ic2Fucy1zZXJpZiIgZm9udC1zaXplPSIxNCIgbGVuZ3RoQWRqdXN0PSJzcGFjaW5nIiB0ZXh0TGVuZ3RoPSI3MSIgeD0iMTE3NC41IiB5PSIyOTkuMTcxOSI+ZW1haWw6IHN0cjwvdGV4dD48cmVjdCBmaWxsPSJub25lIiBoZWlnaHQ9IjYiIHN0eWxlPSJzdHJva2U6I0M4MjkzMDtzdHJva2Utd2lkdGg6MS4wOyIgd2lkdGg9IjYiIHg9IjExNjIuNSIgeT0iMzA2LjkxNDEiLz48dGV4dCBmaWxsPSIjMDAwMDAwIiBmb250LWZhbWlseT0ic2Fucy1zZXJpZiIgZm9udC1zaXplPSIxNCIgbGVuZ3RoQWRqdXN0PSJzcGFjaW5nIiB0ZXh0TGVuZ3RoPSI3MCIgeD0iMTE3NC41IiB5PSIzMTQuMTU2MyI+cGhvbmU6IHN0cjwvdGV4dD48cmVjdCBmaWxsPSJub25lIiBoZWlnaHQ9IjYiIHN0eWxlPSJzdHJva2U6I0M4MjkzMDtzdHJva2Utd2lkdGg6MS4wOyIgd2lkdGg9IjYiIHg9IjExNjIuNSIgeT0iMzIxLjg5ODQiLz48dGV4dCBmaWxsPSIjMDAwMDAwIiBmb250LWZhbWlseT0ic2Fucy1zZXJpZiIgZm9udC1zaXplPSIxNCIgbGVuZ3RoQWRqdXN0PSJzcGFjaW5nIiB0ZXh0TGVuZ3RoPSI3NyIgeD0iMTE3NC41IiB5PSIzMjkuMTQwNiI+c2Nob29sOiBzdHI8L3RleHQ+PHJlY3QgZmlsbD0ibm9uZSIgaGVpZ2h0PSI2IiBzdHlsZT0ic3Ryb2tlOiNDODI5MzA7c3Ryb2tlLXdpZHRoOjEuMDsiIHdpZHRoPSI2IiB4PSIxMTYyLjUiIHk9IjMzNi44ODI4Ii8+PHRleHQgZmlsbD0iIzAwMDAwMCIgZm9udC1mYW1pbHk9InNhbnMtc2VyaWYiIGZvbnQtc2l6ZT0iMTQiIGxlbmd0aEFkanVzdD0ic3BhY2luZyIgdGV4dExlbmd0aD0iNzEiIHg9IjExNzQuNSIgeT0iMzQ0LjEyNSI+bWFqb3I6IHN0cjwvdGV4dD48cmVjdCBmaWxsPSJub25lIiBoZWlnaHQ9IjYiIHN0eWxlPSJzdHJva2U6I0M4MjkzMDtzdHJva2Utd2lkdGg6MS4wOyIgd2lkdGg9IjYiIHg9IjExNjIuNSIgeT0iMzUxLjg2NzIiLz48dGV4dCBmaWxsPSIjMDAwMDAwIiBmb250LWZhbWlseT0ic2Fucy1zZXJpZiIgZm9udC1zaXplPSIxNCIgbGVuZ3RoQWRqdXN0PSJzcGFjaW5nIiB0ZXh0TGVuZ3RoPSIxNDAiIHg9IjExNzQuNSIgeT0iMzU5LjEwOTQiPmludGVyZXN0czogTGlzdFtzdHJdPC90ZXh0PjxyZWN0IGZpbGw9Im5vbmUiIGhlaWdodD0iNiIgc3R5bGU9InN0cm9rZTojQzgyOTMwO3N0cm9rZS13aWR0aDoxLjA7IiB3aWR0aD0iNiIgeD0iMTE2Mi41IiB5PSIzNjYuODUxNiIvPjx0ZXh0IGZpbGw9IiMwMDAwMDAiIGZvbnQtZmFtaWx5PSJzYW5zLXNlcmlmIiBmb250LXNpemU9IjE0IiBsZW5ndGhBZGp1c3Q9InNwYWNpbmciIHRleHRMZW5ndGg9IjExOSIgeD0iMTE3NC41IiB5PSIzNzQuMDkzOCI+c2tpbGxzOiBMaXN0W3N0cl08L3RleHQ+PHJlY3QgZmlsbD0ibm9uZSIgaGVpZ2h0PSI2IiBzdHlsZT0ic3Ryb2tlOiNDODI5MzA7c3Ryb2tlLXdpZHRoOjEuMDsiIHdpZHRoPSI2IiB4PSIxMTYyLjUiIHk9IjM4MS44MzU5Ii8+PHRleHQgZmlsbD0iIzAwMDAwMCIgZm9udC1mYW1pbHk9InNhbnMtc2VyaWYiIGZvbnQtc2l6ZT0iMTQiIGxlbmd0aEFkanVzdD0ic3BhY2luZyIgdGV4dExlbmd0aD0iMjE3IiB4PSIxMTc0LjUiIHk9IjM4OS4wNzgxIj5hcHBsaWNhdGlvbnM6IExpc3RbQXBwbGljYXRpb25dPC90ZXh0PjxsaW5lIHN0eWxlPSJzdHJva2U6IzE4MTgxODtzdHJva2Utd2lkdGg6MC41OyIgeDE9IjExNTUuNSIgeDI9IjE1NjAuNSIgeTE9IjM5NC44MjgxIiB5Mj0iMzk0LjgyODEiLz48ZWxsaXBzZSBjeD0iMTE2NS41IiBjeT0iNDA3LjgyMDMiIGZpbGw9IiM4NEJFODQiIHJ4PSIzIiByeT0iMyIgc3R5bGU9InN0cm9rZTojMDM4MDQ4O3N0cm9rZS13aWR0aDoxLjA7Ii8+PHRleHQgZmlsbD0iIzAwMDAwMCIgZm9udC1mYW1pbHk9InNhbnMtc2VyaWYiIGZvbnQtc2l6ZT0iMTQiIGxlbmd0aEFkanVzdD0ic3BhY2luZyIgdGV4dExlbmd0aD0iMTAxIiB4PSIxMTc0LjUiIHk9IjQxMi4wNjI1Ij52aWV3X3Byb2ZpbGUoKTwvdGV4dD48ZWxsaXBzZSBjeD0iMTE2NS41IiBjeT0iNDIyLjgwNDciIGZpbGw9IiM4NEJFODQiIHJ4PSIzIiByeT0iMyIgc3R5bGU9InN0cm9rZTojMDM4MDQ4O3N0cm9rZS13aWR0aDoxLjA7Ii8+PHRleHQgZmlsbD0iIzAwMDAwMCIgZm9udC1mYW1pbHk9InNhbnMtc2VyaWYiIGZvbnQtc2l6ZT0iMTQiIGxlbmd0aEFkanVzdD0ic3BhY2luZyIgdGV4dExlbmd0aD0iMTk4IiB4PSIxMTc0LjUiIHk9IjQyNy4wNDY5Ij5lZGl0X3Byb2ZpbGUodXBkYXRlZF9maWVsZHMpPC90ZXh0PjxlbGxpcHNlIGN4PSIxMTY1LjUiIGN5PSI0MzcuNzg5MSIgZmlsbD0iIzg0QkU4NCIgcng9IjMiIHJ5PSIzIiBzdHlsZT0ic3Ryb2tlOiMwMzgwNDg7c3Ryb2tlLXdpZHRoOjEuMDsiLz48dGV4dCBmaWxsPSIjMDAwMDAwIiBmb250LWZhbWlseT0ic2Fucy1zZXJpZiIgZm9udC1zaXplPSIxNCIgbGVuZ3RoQWRqdXN0PSJzcGFjaW5nIiB0ZXh0TGVuZ3RoPSIzODEiIHg9IjExNzQuNSIgeT0iNDQyLjAzMTMiPnN1Ym1pdF9hcHBsaWNhdGlvbihpbnRlcm5zaGlwX2lkLCBhcHBsaWNhdGlvbl9jb250ZW50KTwvdGV4dD48ZWxsaXBzZSBjeD0iMTE2NS41IiBjeT0iNDUyLjc3MzQiIGZpbGw9IiM4NEJFODQiIHJ4PSIzIiByeT0iMyIgc3R5bGU9InN0cm9rZTojMDM4MDQ4O3N0cm9rZS13aWR0aDoxLjA7Ii8+PHRleHQgZmlsbD0iIzAwMDAwMCIgZm9udC1mYW1pbHk9InNhbnMtc2VyaWYiIGZvbnQtc2l6ZT0iMTQiIGxlbmd0aEFkanVzdD0ic3BhY2luZyIgdGV4dExlbmd0aD0iMjY4IiB4PSIxMTc0LjUiIHk9IjQ1Ny4wMTU2Ij5nZXRfYXBwbGljYXRpb25fc3RhdHVzKGFwcGxpY2F0aW9uX2lkKTwvdGV4dD48L2c+PCEtLWNsYXNzIEVtcGxveWVyLS0+PGcgaWQ9ImVsZW1fRW1wbG95ZXIiPjxyZWN0IGNvZGVMaW5lPSIyOCIgZmlsbD0iI0YxRjFGMSIgaGVpZ2h0PSIxODIuODU5NCIgaWQ9IkVtcGxveWVyIiByeD0iMi41IiByeT0iMi41IiBzdHlsZT0ic3Ryb2tlOiMxODE4MTg7c3Ryb2tlLXdpZHRoOjAuNTsiIHdpZHRoPSIyMjkiIHg9IjE5MDkuNSIgeT0iMjM1Ii8+PGVsbGlwc2UgY3g9IjE5OTEuMjUiIGN5PSIyNTEiIGZpbGw9IiNBREQxQjIiIHJ4PSIxMSIgcnk9IjExIiBzdHlsZT0ic3Ryb2tlOiMxODE4MTg7c3Ryb2tlLXdpZHRoOjEuMDsiLz48cGF0aCBkPSJNMTk4OC44NzUsMjU1LjI1IEwxOTg4Ljg3NSwyNTcgTDE5OTMuODEyNSwyNTcgTDE5OTMuODEyNSwyNTUuMjUgTDE5ODguODc1LDI1NS4yNSBaIE0xOTg5LjU2MjUsMjU1LjkzNzUgUTE5ODkuNTYyNSwyNTUuOTM3NSAxOTg5LjU2MjUsMjQ2Ljc1IEwxOTg3LjgxMjUsMjQ2Ljc1IFExOTg3LjgxMjUsMjQ2Ljc1IDE5ODcuODEyNSwyNTUuOTM3NSBMMTk4OS41NjI1LDI1NS45Mzc1IFogTTE5OTMuMTI1LDI1NS45Mzc1IEwxOTk0Ljg3NSwyNTUuOTM3NSBRMTk5NC44NzUsMjU1LjkzNzUgMTk5NC44NzUsMjUzLjEyNSBMMTk5My4xMjUsMjUzLjEyNSBRMTk5My4xMjUsMjUzLjEyNSAxOTkzLjEyNSwyNTUuOTM3NSBaIE0xOTkzLjEyNSwyNDYuNzUgUTE5OTMuMTI1LDI0Ni43NSAxOTkzLjEyNSwyNDkuNTYyNSBMMTk5NC44NzUsMjQ5LjU2MjUgUTE5OTQuODc1LDI0OS41NjI1IDE5OTQuODc1LDI0Ni43NSBMMTk5My4xMjUsMjQ2Ljc1IFogTTE5ODguODc1LDI0Ny40Mzc1IEwxOTkzLjgxMjUsMjQ3LjQzNzUgTDE5OTMuODEyNSwyNDUuNjg3NSBMMTk4OC44NzUsMjQ1LjY4NzUgTDE5ODguODc1LDI0Ny40Mzc1IFogIiBmaWxsPSIjMDAwMDAwIi8+PHRleHQgZmlsbD0iIzAwMDAwMCIgZm9udC1mYW1pbHk9InNhbnMtc2VyaWYiIGZvbnQtc2l6ZT0iMTQiIGxlbmd0aEFkanVzdD0ic3BhY2luZyIgdGV4dExlbmd0aD0iNTciIHg9IjIwMTEuNzUiIHk9IjI1Ni43NDIyIj5FbXBsb3llcjwvdGV4dD48bGluZSBzdHlsZT0ic3Ryb2tlOiMxODE4MTg7c3Ryb2tlLXdpZHRoOjAuNTsiIHgxPSIxOTEwLjUiIHgyPSIyMTM3LjUiIHkxPSIyNjciIHkyPSIyNjciLz48cmVjdCBmaWxsPSJub25lIiBoZWlnaHQ9IjYiIHN0eWxlPSJzdHJva2U6I0M4MjkzMDtzdHJva2Utd2lkdGg6MS4wOyIgd2lkdGg9IjYiIHg9IjE5MTcuNSIgeT0iMjc2Ljk5MjIiLz48dGV4dCBmaWxsPSIjMDAwMDAwIiBmb250LWZhbWlseT0ic2Fucy1zZXJpZiIgZm9udC1zaXplPSIxNCIgbGVuZ3RoQWRqdXN0PSJzcGFjaW5nIiB0ZXh0TGVuZ3RoPSI0OSIgeD0iMTkyOS41IiB5PSIyODQuMjM0NCI+aWQ6IGludDwvdGV4dD48cmVjdCBmaWxsPSJub25lIiBoZWlnaHQ9IjYiIHN0eWxlPSJzdHJva2U6I0M4MjkzMDtzdHJva2Utd2lkdGg6MS4wOyIgd2lkdGg9IjYiIHg9IjE5MTcuNSIgeT0iMjkxLjk3NjYiLz48dGV4dCBmaWxsPSIjMDAwMDAwIiBmb250LWZhbWlseT0ic2Fucy1zZXJpZiIgZm9udC1zaXplPSIxNCIgbGVuZ3RoQWRqdXN0PSJzcGFjaW5nIiB0ZXh0TGVuZ3RoPSI2NCIgeD0iMTkyOS41IiB5PSIyOTkuMjE4OCI+bmFtZTogc3RyPC90ZXh0PjxyZWN0IGZpbGw9Im5vbmUiIGhlaWdodD0iNiIgc3R5bGU9InN0cm9rZTojQzgyOTMwO3N0cm9rZS13aWR0aDoxLjA7IiB3aWR0aD0iNiIgeD0iMTkxNy41IiB5PSIzMDYuOTYwOSIvPjx0ZXh0IGZpbGw9IiMwMDAwMDAiIGZvbnQtZmFtaWx5PSJzYW5zLXNlcmlmIiBmb250LXNpemU9IjE0IiBsZW5ndGhBZGp1c3Q9InNwYWNpbmciIHRleHRMZW5ndGg9IjcxIiB4PSIxOTI5LjUiIHk9IjMxNC4yMDMxIj5lbWFpbDogc3RyPC90ZXh0PjxyZWN0IGZpbGw9Im5vbmUiIGhlaWdodD0iNiIgc3R5bGU9InN0cm9rZTojQzgyOTMwO3N0cm9rZS13aWR0aDoxLjA7IiB3aWR0aD0iNiIgeD0iMTkxNy41IiB5PSIzMjEuOTQ1MyIvPjx0ZXh0IGZpbGw9IiMwMDAwMDAiIGZvbnQtZmFtaWx5PSJzYW5zLXNlcmlmIiBmb250LXNpemU9IjE0IiBsZW5ndGhBZGp1c3Q9InNwYWNpbmciIHRleHRMZW5ndGg9IjExMiIgeD0iMTkyOS41IiB5PSIzMjkuMTg3NSI+ZGVzY3JpcHRpb246IHN0cjwvdGV4dD48cmVjdCBmaWxsPSJub25lIiBoZWlnaHQ9IjYiIHN0eWxlPSJzdHJva2U6I0M4MjkzMDtzdHJva2Utd2lkdGg6MS4wOyIgd2lkdGg9IjYiIHg9IjE5MTcuNSIgeT0iMzM2LjkyOTciLz48dGV4dCBmaWxsPSIjMDAwMDAwIiBmb250LWZhbWlseT0ic2Fucy1zZXJpZiIgZm9udC1zaXplPSIxNCIgbGVuZ3RoQWRqdXN0PSJzcGFjaW5nIiB0ZXh0TGVuZ3RoPSI4NSIgeD0iMTkyOS41IiB5PSIzNDQuMTcxOSI+d2Vic2l0ZTogc3RyPC90ZXh0PjxyZWN0IGZpbGw9Im5vbmUiIGhlaWdodD0iNiIgc3R5bGU9InN0cm9rZTojQzgyOTMwO3N0cm9rZS13aWR0aDoxLjA7IiB3aWR0aD0iNiIgeD0iMTkxNy41IiB5PSIzNTEuOTE0MSIvPjx0ZXh0IGZpbGw9IiMwMDAwMDAiIGZvbnQtZmFtaWx5PSJzYW5zLXNlcmlmIiBmb250LXNpemU9IjE0IiBsZW5ndGhBZGp1c3Q9InNwYWNpbmciIHRleHRMZW5ndGg9IjIwMyIgeD0iMTkyOS41IiB5PSIzNTkuMTU2MyI+aW50ZXJuc2hpcHM6IExpc3RbSW50ZXJuc2hpcF08L3RleHQ+PGxpbmUgc3R5bGU9InN0cm9rZTojMTgxODE4O3N0cm9rZS13aWR0aDowLjU7IiB4MT0iMTkxMC41IiB4Mj0iMjEzNy41IiB5MT0iMzY0LjkwNjMiIHkyPSIzNjQuOTA2MyIvPjxlbGxpcHNlIGN4PSIxOTIwLjUiIGN5PSIzNzcuODk4NCIgZmlsbD0iIzg0QkU4NCIgcng9IjMiIHJ5PSIzIiBzdHlsZT0ic3Ryb2tlOiMwMzgwNDg7c3Ryb2tlLXdpZHRoOjEuMDsiLz48dGV4dCBmaWxsPSIjMDAwMDAwIiBmb250LWZhbWlseT0ic2Fucy1zZXJpZiIgZm9udC1zaXplPSIxNCIgbGVuZ3RoQWRqdXN0PSJzcGFjaW5nIiB0ZXh0TGVuZ3RoPSIxMDEiIHg9IjE5MjkuNSIgeT0iMzgyLjE0MDYiPnZpZXdfcHJvZmlsZSgpPC90ZXh0PjxlbGxpcHNlIGN4PSIxOTIwLjUiIGN5PSIzOTIuODgyOCIgZmlsbD0iIzg0QkU4NCIgcng9IjMiIHJ5PSIzIiBzdHlsZT0ic3Ryb2tlOiMwMzgwNDg7c3Ryb2tlLXdpZHRoOjEuMDsiLz48dGV4dCBmaWxsPSIjMDAwMDAwIiBmb250LWZhbWlseT0ic2Fucy1zZXJpZiIgZm9udC1zaXplPSIxNCIgbGVuZ3RoQWRqdXN0PSJzcGFjaW5nIiB0ZXh0TGVuZ3RoPSIxOTgiIHg9IjE5MjkuNSIgeT0iMzk3LjEyNSI+ZWRpdF9wcm9maWxlKHVwZGF0ZWRfZmllbGRzKTwvdGV4dD48ZWxsaXBzZSBjeD0iMTkyMC41IiBjeT0iNDA3Ljg2NzIiIGZpbGw9IiM4NEJFODQiIHJ4PSIzIiByeT0iMyIgc3R5bGU9InN0cm9rZTojMDM4MDQ4O3N0cm9rZS13aWR0aDoxLjA7Ii8+PHRleHQgZmlsbD0iIzAwMDAwMCIgZm9udC1mYW1pbHk9InNhbnMtc2VyaWYiIGZvbnQtc2l6ZT0iMTQiIGxlbmd0aEFkanVzdD0ic3BhY2luZyIgdGV4dExlbmd0aD0iMTkxIiB4PSIxOTI5LjUiIHk9IjQxMi4xMDk0Ij5wb3N0X2ludGVybnNoaXAoaW50ZXJuc2hpcCk8L3RleHQ+PC9nPjwhLS1jbGFzcyBBZG1pbi0tPjxnIGlkPSJlbGVtX0FkbWluIj48cmVjdCBjb2RlTGluZT0iNDEiIGZpbGw9IiNGMUYxRjEiIGhlaWdodD0iMTIyLjkyMTkiIGlkPSJBZG1pbiIgcng9IjIuNSIgcnk9IjIuNSIgc3R5bGU9InN0cm9rZTojMTgxODE4O3N0cm9rZS13aWR0aDowLjU7IiB3aWR0aD0iMjczIiB4PSIxODg3LjUiIHk9IjciLz48ZWxsaXBzZSBjeD0iMjAwMS43NSIgY3k9IjIzIiBmaWxsPSIjQUREMUIyIiByeD0iMTEiIHJ5PSIxMSIgc3R5bGU9InN0cm9rZTojMTgxODE4O3N0cm9rZS13aWR0aDoxLjA7Ii8+PHBhdGggZD0iTTE5OTkuMzc1LDI3LjI1IEwxOTk5LjM3NSwyOSBMMjAwNC4zMTI1LDI5IEwyMDA0LjMxMjUsMjcuMjUgTDE5OTkuMzc1LDI3LjI1IFogTTIwMDAuMDYyNSwyNy45Mzc1IFEyMDAwLjA2MjUsMjcuOTM3NSAyMDAwLjA2MjUsMTguNzUgTDE5OTguMzEyNSwxOC43NSBRMTk5OC4zMTI1LDE4Ljc1IDE5OTguMzEyNSwyNy45Mzc1IEwyMDAwLjA2MjUsMjcuOTM3NSBaIE0yMDAzLjYyNSwyNy45Mzc1IEwyMDA1LjM3NSwyNy45Mzc1IFEyMDA1LjM3NSwyNy45Mzc1IDIwMDUuMzc1LDI1LjEyNSBMMjAwMy42MjUsMjUuMTI1IFEyMDAzLjYyNSwyNS4xMjUgMjAwMy42MjUsMjcuOTM3NSBaIE0yMDAzLjYyNSwxOC43NSBRMjAwMy42MjUsMTguNzUgMjAwMy42MjUsMjEuNTYyNSBMMjAwNS4zNzUsMjEuNTYyNSBRMjAwNS4zNzUsMjEuNTYyNSAyMDA1LjM3NSwxOC43NSBMMjAwMy42MjUsMTguNzUgWiBNMTk5OS4zNzUsMTkuNDM3NSBMMjAwNC4zMTI1LDE5LjQzNzUgTDIwMDQuMzEyNSwxNy42ODc1IEwxOTk5LjM3NSwxNy42ODc1IEwxOTk5LjM3NSwxOS40Mzc1IFogIiBmaWxsPSIjMDAwMDAwIi8+PHRleHQgZmlsbD0iIzAwMDAwMCIgZm9udC1mYW1pbHk9InNhbnMtc2VyaWYiIGZvbnQtc2l6ZT0iMTQiIGxlbmd0aEFkanVzdD0ic3BhY2luZyIgdGV4dExlbmd0aD0iMzYiIHg9IjIwMjIuMjUiIHk9IjI4Ljc0MjIiPkFkbWluPC90ZXh0PjxsaW5lIHN0eWxlPSJzdHJva2U6IzE4MTgxODtzdHJva2Utd2lkdGg6MC41OyIgeDE9IjE4ODguNSIgeDI9IjIxNTkuNSIgeTE9IjM5IiB5Mj0iMzkiLz48bGluZSBzdHlsZT0ic3Ryb2tlOiMxODE4MTg7c3Ryb2tlLXdpZHRoOjAuNTsiIHgxPSIxODg4LjUiIHgyPSIyMTU5LjUiIHkxPSI0NyIgeTI9IjQ3Ii8+PGVsbGlwc2UgY3g9IjE4OTguNSIgY3k9IjU5Ljk5MjIiIGZpbGw9IiM4NEJFODQiIHJ4PSIzIiByeT0iMyIgc3R5bGU9InN0cm9rZTojMDM4MDQ4O3N0cm9rZS13aWR0aDoxLjA7Ii8+PHRleHQgZmlsbD0iIzAwMDAwMCIgZm9udC1mYW1pbHk9InNhbnMtc2VyaWYiIGZvbnQtc2l6ZT0iMTQiIGxlbmd0aEFkanVzdD0ic3BhY2luZyIgdGV4dExlbmd0aD0iMTA4IiB4PSIxOTA3LjUiIHk9IjY0LjIzNDQiPnZpZXdfc3R1ZGVudHMoKTwvdGV4dD48ZWxsaXBzZSBjeD0iMTg5OC41IiBjeT0iNzQuOTc2NiIgZmlsbD0iIzg0QkU4NCIgcng9IjMiIHJ5PSIzIiBzdHlsZT0ic3Ryb2tlOiMwMzgwNDg7c3Ryb2tlLXdpZHRoOjEuMDsiLz48dGV4dCBmaWxsPSIjMDAwMDAwIiBmb250LWZhbWlseT0ic2Fucy1zZXJpZiIgZm9udC1zaXplPSIxNCIgbGVuZ3RoQWRqdXN0PSJzcGFjaW5nIiB0ZXh0TGVuZ3RoPSIxMTYiIHg9IjE5MDcuNSIgeT0iNzkuMjE4OCI+dmlld19lbXBsb3llcnMoKTwvdGV4dD48ZWxsaXBzZSBjeD0iMTg5OC41IiBjeT0iODkuOTYwOSIgZmlsbD0iIzg0QkU4NCIgcng9IjMiIHJ5PSIzIiBzdHlsZT0ic3Ryb2tlOiMwMzgwNDg7c3Ryb2tlLXdpZHRoOjEuMDsiLz48dGV4dCBmaWxsPSIjMDAwMDAwIiBmb250LWZhbWlseT0ic2Fucy1zZXJpZiIgZm9udC1zaXplPSIxNCIgbGVuZ3RoQWRqdXN0PSJzcGFjaW5nIiB0ZXh0TGVuZ3RoPSIxMjkiIHg9IjE5MDcuNSIgeT0iOTQuMjAzMSI+dmlld19pbnRlcm5zaGlwcygpPC90ZXh0PjxlbGxpcHNlIGN4PSIxODk4LjUiIGN5PSIxMDQuOTQ1MyIgZmlsbD0iIzg0QkU4NCIgcng9IjMiIHJ5PSIzIiBzdHlsZT0ic3Ryb2tlOiMwMzgwNDg7c3Ryb2tlLXdpZHRoOjEuMDsiLz48dGV4dCBmaWxsPSIjMDAwMDAwIiBmb250LWZhbWlseT0ic2Fucy1zZXJpZiIgZm9udC1zaXplPSIxNCIgbGVuZ3RoQWRqdXN0PSJzcGFjaW5nIiB0ZXh0TGVuZ3RoPSIyNDciIHg9IjE5MDcuNSIgeT0iMTA5LjE4NzUiPmFwcHJvdmVfYXBwbGljYXRpb24oYXBwbGljYXRpb25faWQpPC90ZXh0PjxlbGxpcHNlIGN4PSIxODk4LjUiIGN5PSIxMTkuOTI5NyIgZmlsbD0iIzg0QkU4NCIgcng9IjMiIHJ5PSIzIiBzdHlsZT0ic3Ryb2tlOiMwMzgwNDg7c3Ryb2tlLXdpZHRoOjEuMDsiLz48dGV4dCBmaWxsPSIjMDAwMDAwIiBmb250LWZhbWlseT0ic2Fucy1zZXJpZiIgZm9udC1zaXplPSIxNCIgbGVuZ3RoQWRqdXN0PSJzcGFjaW5nIiB0ZXh0TGVuZ3RoPSIyNDAiIHg9IjE5MDcuNSIgeT0iMTI0LjE3MTkiPnJlamVjdF9hcHBsaWNhdGlvbihhcHBsaWNhdGlvbl9pZCk8L3RleHQ+PC9nPjwhLS1jbGFzcyBJbnRlcm5zaGlwLS0+PGcgaWQ9ImVsZW1fSW50ZXJuc2hpcCI+PHJlY3QgY29kZUxpbmU9IjQ5IiBmaWxsPSIjRjFGMUYxIiBoZWlnaHQ9IjI3Mi43NjU2IiBpZD0iSW50ZXJuc2hpcCIgcng9IjIuNSIgcnk9IjIuNSIgc3R5bGU9InN0cm9rZTojMTgxODE4O3N0cm9rZS13aWR0aDowLjU7IiB3aWR0aD0iMjQzIiB4PSIyMjUxLjUiIHk9IjUyMyIvPjxlbGxpcHNlIGN4PSIyMzMzLjc1IiBjeT0iNTM5IiBmaWxsPSIjQUREMUIyIiByeD0iMTEiIHJ5PSIxMSIgc3R5bGU9InN0cm9rZTojMTgxODE4O3N0cm9rZS13aWR0aDoxLjA7Ii8+PHBhdGggZD0iTTIzMzEuMzc1LDU0My4yNSBMMjMzMS4zNzUsNTQ1IEwyMzM2LjMxMjUsNTQ1IEwyMzM2LjMxMjUsNTQzLjI1IEwyMzMxLjM3NSw1NDMuMjUgWiBNMjMzMi4wNjI1LDU0My45Mzc1IFEyMzMyLjA2MjUsNTQzLjkzNzUgMjMzMi4wNjI1LDUzNC43NSBMMjMzMC4zMTI1LDUzNC43NSBRMjMzMC4zMTI1LDUzNC43NSAyMzMwLjMxMjUsNTQzLjkzNzUgTDIzMzIuMDYyNSw1NDMuOTM3NSBaIE0yMzM1LjYyNSw1NDMuOTM3NSBMMjMzNy4zNzUsNTQzLjkzNzUgUTIzMzcuMzc1LDU0My45Mzc1IDIzMzcuMzc1LDU0MS4xMjUgTDIzMzUuNjI1LDU0MS4xMjUgUTIzMzUuNjI1LDU0MS4xMjUgMjMzNS42MjUsNTQzLjkzNzUgWiBNMjMzNS42MjUsNTM0Ljc1IFEyMzM1LjYyNSw1MzQuNzUgMjMzNS42MjUsNTM3LjU2MjUgTDIzMzcuMzc1LDUzNy41NjI1IFEyMzM3LjM3NSw1MzcuNTYyNSAyMzM3LjM3NSw1MzQuNzUgTDIzMzUuNjI1LDUzNC43NSBaIE0yMzMxLjM3NSw1MzUuNDM3NSBMMjMzNi4zMTI1LDUzNS40Mzc1IEwyMzM2LjMxMjUsNTMzLjY4NzUgTDIzMzEuMzc1LDUzMy42ODc1IEwyMzMxLjM3NSw1MzUuNDM3NSBaICIgZmlsbD0iIzAwMDAwMCIvPjx0ZXh0IGZpbGw9IiMwMDAwMDAiIGZvbnQtZmFtaWx5PSJzYW5zLXNlcmlmIiBmb250LXNpemU9IjE0IiBsZW5ndGhBZGp1c3Q9InNwYWNpbmciIHRleHRMZW5ndGg9IjcwIiB4PSIyMzU0LjI1IiB5PSI1NDQuNzQyMiI+SW50ZXJuc2hpcDwvdGV4dD48bGluZSBzdHlsZT0ic3Ryb2tlOiMxODE4MTg7c3Ryb2tlLXdpZHRoOjAuNTsiIHgxPSIyMjUyLjUiIHgyPSIyNDkzLjUiIHkxPSI1NTUiIHkyPSI1NTUiLz48cmVjdCBmaWxsPSJub25lIiBoZWlnaHQ9IjYiIHN0eWxlPSJzdHJva2U6I0M4MjkzMDtzdHJva2Utd2lkdGg6MS4wOyIgd2lkdGg9IjYiIHg9IjIyNTkuNSIgeT0iNTY0Ljk5MjIiLz48dGV4dCBmaWxsPSIjMDAwMDAwIiBmb250LWZhbWlseT0ic2Fucy1zZXJpZiIgZm9udC1zaXplPSIxNCIgbGVuZ3RoQWRqdXN0PSJzcGFjaW5nIiB0ZXh0TGVuZ3RoPSI0OSIgeD0iMjI3MS41IiB5PSI1NzIuMjM0NCI+aWQ6IGludDwvdGV4dD48cmVjdCBmaWxsPSJub25lIiBoZWlnaHQ9IjYiIHN0eWxlPSJzdHJva2U6I0M4MjkzMDtzdHJva2Utd2lkdGg6MS4wOyIgd2lkdGg9IjYiIHg9IjIyNTkuNSIgeT0iNTc5Ljk3NjYiLz48dGV4dCBmaWxsPSIjMDAwMDAwIiBmb250LWZhbWlseT0ic2Fucy1zZXJpZiIgZm9udC1zaXplPSIxNCIgbGVuZ3RoQWRqdXN0PSJzcGFjaW5nIiB0ZXh0TGVuZ3RoPSI2NCIgeD0iMjI3MS41IiB5PSI1ODcuMjE4OCI+bmFtZTogc3RyPC90ZXh0PjxyZWN0IGZpbGw9Im5vbmUiIGhlaWdodD0iNiIgc3R5bGU9InN0cm9rZTojQzgyOTMwO3N0cm9rZS13aWR0aDoxLjA7IiB3aWR0aD0iNiIgeD0iMjI1OS41IiB5PSI1OTQuOTYwOSIvPjx0ZXh0IGZpbGw9IiMwMDAwMDAiIGZvbnQtZmFtaWx5PSJzYW5zLXNlcmlmIiBmb250LXNpemU9IjE0IiBsZW5ndGhBZGp1c3Q9InNwYWNpbmciIHRleHRMZW5ndGg9IjExMiIgeD0iMjI3MS41IiB5PSI2MDIuMjAzMSI+ZGVzY3JpcHRpb246IHN0cjwvdGV4dD48cmVjdCBmaWxsPSJub25lIiBoZWlnaHQ9IjYiIHN0eWxlPSJzdHJva2U6I0M4MjkzMDtzdHJva2Utd2lkdGg6MS4wOyIgd2lkdGg9IjYiIHg9IjIyNTkuNSIgeT0iNjA5Ljk0NTMiLz48dGV4dCBmaWxsPSIjMDAwMDAwIiBmb250LWZhbWlseT0ic2Fucy1zZXJpZiIgZm9udC1zaXplPSIxNCIgbGVuZ3RoQWRqdXN0PSJzcGFjaW5nIiB0ZXh0TGVuZ3RoPSIxMjAiIHg9IjIyNzEuNSIgeT0iNjE3LjE4NzUiPnJlcXVpcmVtZW50czogc3RyPC90ZXh0PjxyZWN0IGZpbGw9Im5vbmUiIGhlaWdodD0iNiIgc3R5bGU9InN0cm9rZTojQzgyOTMwO3N0cm9rZS13aWR0aDoxLjA7IiB3aWR0aD0iNiIgeD0iMjI1OS41IiB5PSI2MjQuOTI5NyIvPjx0ZXh0IGZpbGw9IiMwMDAwMDAiIGZvbnQtZmFtaWx5PSJzYW5zLXNlcmlmIiBmb250LXNpemU9IjE0IiBsZW5ndGhBZGp1c3Q9InNwYWNpbmciIHRleHRMZW5ndGg9IjkxIiB4PSIyMjcxLjUiIHk9IjYzMi4xNzE5Ij5zYWxhcnk6IGZsb2F0PC90ZXh0PjxyZWN0IGZpbGw9Im5vbmUiIGhlaWdodD0iNiIgc3R5bGU9InN0cm9rZTojQzgyOTMwO3N0cm9rZS13aWR0aDoxLjA7IiB3aWR0aD0iNiIgeD0iMjI1OS41IiB5PSI2MzkuOTE0MSIvPjx0ZXh0IGZpbGw9IiMwMDAwMDAiIGZvbnQtZmFtaWx5PSJzYW5zLXNlcmlmIiBmb250LXNpemU9IjE0IiBsZW5ndGhBZGp1c3Q9InNwYWNpbmciIHRleHRMZW5ndGg9IjkxIiB4PSIyMjcxLjUiIHk9IjY0Ny4xNTYzIj5sb2NhdGlvbjogc3RyPC90ZXh0PjxyZWN0IGZpbGw9Im5vbmUiIGhlaWdodD0iNiIgc3R5bGU9InN0cm9rZTojQzgyOTMwO3N0cm9rZS13aWR0aDoxLjA7IiB3aWR0aD0iNiIgeD0iMjI1OS41IiB5PSI2NTQuODk4NCIvPjx0ZXh0IGZpbGw9IiMwMDAwMDAiIGZvbnQtZmFtaWx5PSJzYW5zLXNlcmlmIiBmb250LXNpemU9IjE0IiBsZW5ndGhBZGp1c3Q9InNwYWNpbmciIHRleHRMZW5ndGg9IjYzIiB4PSIyMjcxLjUiIHk9IjY2Mi4xNDA2Ij50eXBlOiBzdHI8L3RleHQ+PHJlY3QgZmlsbD0ibm9uZSIgaGVpZ2h0PSI2IiBzdHlsZT0ic3Ryb2tlOiNDODI5MzA7c3Ryb2tlLXdpZHRoOjEuMDsiIHdpZHRoPSI2IiB4PSIyMjU5LjUiIHk9IjY2OS44ODI4Ii8+PHRleHQgZmlsbD0iIzAwMDAwMCIgZm9udC1mYW1pbHk9InNhbnMtc2VyaWYiIGZvbnQtc2l6ZT0iMTQiIGxlbmd0aEFkanVzdD0ic3BhY2luZyIgdGV4dExlbmd0aD0iMTU2IiB4PSIyMjcxLjUiIHk9IjY3Ny4xMjUiPnB1Ymxpc2hfdGltZTogZGF0ZXRpbWU8L3RleHQ+PHJlY3QgZmlsbD0ibm9uZSIgaGVpZ2h0PSI2IiBzdHlsZT0ic3Ryb2tlOiNDODI5MzA7c3Ryb2tlLXdpZHRoOjEuMDsiIHdpZHRoPSI2IiB4PSIyMjU5LjUiIHk9IjY4NC44NjcyIi8+PHRleHQgZmlsbD0iIzAwMDAwMCIgZm9udC1mYW1pbHk9InNhbnMtc2VyaWYiIGZvbnQtc2l6ZT0iMTQiIGxlbmd0aEFkanVzdD0ic3BhY2luZyIgdGV4dExlbmd0aD0iMTI3IiB4PSIyMjcxLjUiIHk9IjY5Mi4xMDk0Ij5kZWFkbGluZTogZGF0ZXRpbWU8L3RleHQ+PHJlY3QgZmlsbD0ibm9uZSIgaGVpZ2h0PSI2IiBzdHlsZT0ic3Ryb2tlOiNDODI5MzA7c3Ryb2tlLXdpZHRoOjEuMDsiIHdpZHRoPSI2IiB4PSIyMjU5LjUiIHk9IjY5OS44NTE2Ii8+PHRleHQgZmlsbD0iIzAwMDAwMCIgZm9udC1mYW1pbHk9InNhbnMtc2VyaWYiIGZvbnQtc2l6ZT0iMTQiIGxlbmd0aEFkanVzdD0ic3BhY2luZyIgdGV4dExlbmd0aD0iMTI2IiB4PSIyMjcxLjUiIHk9IjcwNy4wOTM4Ij5jYXRlZ29yeTogQ2F0ZWdvcnk8L3RleHQ+PHJlY3QgZmlsbD0ibm9uZSIgaGVpZ2h0PSI2IiBzdHlsZT0ic3Ryb2tlOiNDODI5MzA7c3Ryb2tlLXdpZHRoOjEuMDsiIHdpZHRoPSI2IiB4PSIyMjU5LjUiIHk9IjcxNC44MzU5Ii8+PHRleHQgZmlsbD0iIzAwMDAwMCIgZm9udC1mYW1pbHk9InNhbnMtc2VyaWYiIGZvbnQtc2l6ZT0iMTQiIGxlbmd0aEFkanVzdD0ic3BhY2luZyIgdGV4dExlbmd0aD0iMTE5IiB4PSIyMjcxLjUiIHk9IjcyMi4wNzgxIj5za2lsbHM6IExpc3Rbc3RyXTwvdGV4dD48cmVjdCBmaWxsPSJub25lIiBoZWlnaHQ9IjYiIHN0eWxlPSJzdHJva2U6I0M4MjkzMDtzdHJva2Utd2lkdGg6MS4wOyIgd2lkdGg9IjYiIHg9IjIyNTkuNSIgeT0iNzI5LjgyMDMiLz48dGV4dCBmaWxsPSIjMDAwMDAwIiBmb250LWZhbWlseT0ic2Fucy1zZXJpZiIgZm9udC1zaXplPSIxNCIgbGVuZ3RoQWRqdXN0PSJzcGFjaW5nIiB0ZXh0TGVuZ3RoPSIyMTciIHg9IjIyNzEuNSIgeT0iNzM3LjA2MjUiPmFwcGxpY2F0aW9uczogTGlzdFtBcHBsaWNhdGlvbl08L3RleHQ+PGxpbmUgc3R5bGU9InN0cm9rZTojMTgxODE4O3N0cm9rZS13aWR0aDowLjU7IiB4MT0iMjI1Mi41IiB4Mj0iMjQ5My41IiB5MT0iNzQyLjgxMjUiIHkyPSI3NDIuODEyNSIvPjxlbGxpcHNlIGN4PSIyMjYyLjUiIGN5PSI3NTUuODA0NyIgZmlsbD0iIzg0QkU4NCIgcng9IjMiIHJ5PSIzIiBzdHlsZT0ic3Ryb2tlOiMwMzgwNDg7c3Ryb2tlLXdpZHRoOjEuMDsiLz48dGV4dCBmaWxsPSIjMDAwMDAwIiBmb250LWZhbWlseT0ic2Fucy1zZXJpZiIgZm9udC1zaXplPSIxNCIgbGVuZ3RoQWRqdXN0PSJzcGFjaW5nIiB0ZXh0TGVuZ3RoPSI4NiIgeD0iMjI3MS41IiB5PSI3NjAuMDQ2OSI+Z2V0X2RldGFpbCgpPC90ZXh0PjxlbGxpcHNlIGN4PSIyMjYyLjUiIGN5PSI3NzAuNzg5MSIgZmlsbD0iIzg0QkU4NCIgcng9IjMiIHJ5PSIzIiBzdHlsZT0ic3Ryb2tlOiMwMzgwNDg7c3Ryb2tlLXdpZHRoOjEuMDsiLz48dGV4dCBmaWxsPSIjMDAwMDAwIiBmb250LWZhbWlseT0ic2Fucy1zZXJpZiIgZm9udC1zaXplPSIxNCIgbGVuZ3RoQWRqdXN0PSJzcGFjaW5nIiB0ZXh0TGVuZ3RoPSIxNTYiIHg9IjIyNzEuNSIgeT0iNzc1LjAzMTMiPnNldF9jYXRlZ29yeShjYXRlZ29yeSk8L3RleHQ+PGVsbGlwc2UgY3g9IjIyNjIuNSIgY3k9Ijc4NS43NzM0IiBmaWxsPSIjODRCRTg0IiByeD0iMyIgcnk9IjMiIHN0eWxlPSJzdHJva2U6IzAzODA0ODtzdHJva2Utd2lkdGg6MS4wOyIvPjx0ZXh0IGZpbGw9IiMwMDAwMDAiIGZvbnQtZmFtaWx5PSJzYW5zLXNlcmlmIiBmb250LXNpemU9IjE0IiBsZW5ndGhBZGp1c3Q9InNwYWNpbmciIHRleHRMZW5ndGg9IjEyOCIgeD0iMjI3MS41IiB5PSI3OTAuMDE1NiI+c2V0X3NraWxscyhza2lsbHMpPC90ZXh0PjwvZz48IS0tY2xhc3MgQXBwbGljYXRpb24tLT48ZyBpZD0iZWxlbV9BcHBsaWNhdGlvbiI+PHJlY3QgY29kZUxpbmU9IjY4IiBmaWxsPSIjRjFGMUYxIiBoZWlnaHQ9IjEzNy45MDYzIiBpZD0iQXBwbGljYXRpb24iIHJ4PSIyLjUiIHJ5PSIyLjUiIHN0eWxlPSJzdHJva2U6IzE4MTgxODtzdHJva2Utd2lkdGg6MC41OyIgd2lkdGg9IjE4MCIgeD0iMTAzNSIgeT0iODkzLjUiLz48ZWxsaXBzZSBjeD0iMTA4Mi4yNSIgY3k9IjkwOS41IiBmaWxsPSIjQUREMUIyIiByeD0iMTEiIHJ5PSIxMSIgc3R5bGU9InN0cm9rZTojMTgxODE4O3N0cm9rZS13aWR0aDoxLjA7Ii8+PHBhdGggZD0iTTEwNzkuODc1LDkxMy43NSBMMTA3OS44NzUsOTE1LjUgTDEwODQuODEyNSw5MTUuNSBMMTA4NC44MTI1LDkxMy43NSBMMTA3OS44NzUsOTEzLjc1IFogTTEwODAuNTYyNSw5MTQuNDM3NSBRMTA4MC41NjI1LDkxNC40Mzc1IDEwODAuNTYyNSw5MDUuMjUgTDEwNzguODEyNSw5MDUuMjUgUTEwNzguODEyNSw5MDUuMjUgMTA3OC44MTI1LDkxNC40Mzc1IEwxMDgwLjU2MjUsOTE0LjQzNzUgWiBNMTA4NC4xMjUsOTE0LjQzNzUgTDEwODUuODc1LDkxNC40Mzc1IFExMDg1Ljg3NSw5MTQuNDM3NSAxMDg1Ljg3NSw5MTEuNjI1IEwxMDg0LjEyNSw5MTEuNjI1IFExMDg0LjEyNSw5MTEuNjI1IDEwODQuMTI1LDkxNC40Mzc1IFogTTEwODQuMTI1LDkwNS4yNSBRMTA4NC4xMjUsOTA1LjI1IDEwODQuMTI1LDkwOC4wNjI1IEwxMDg1Ljg3NSw5MDguMDYyNSBRMTA4NS44NzUsOTA4LjA2MjUgMTA4NS44NzUsOTA1LjI1IEwxMDg0LjEyNSw5MDUuMjUgWiBNMTA3OS44NzUsOTA1LjkzNzUgTDEwODQuODEyNSw5MDUuOTM3NSBMMTA4NC44MTI1LDkwNC4xODc1IEwxMDc5Ljg3NSw5MDQuMTg3NSBMMTA3OS44NzUsOTA1LjkzNzUgWiAiIGZpbGw9IiMwMDAwMDAiLz48dGV4dCBmaWxsPSIjMDAwMDAwIiBmb250LWZhbWlseT0ic2Fucy1zZXJpZiIgZm9udC1zaXplPSIxNCIgbGVuZ3RoQWRqdXN0PSJzcGFjaW5nIiB0ZXh0TGVuZ3RoPSI3NyIgeD0iMTEwMi43NSIgeT0iOTE1LjI0MjIiPkFwcGxpY2F0aW9uPC90ZXh0PjxsaW5lIHN0eWxlPSJzdHJva2U6IzE4MTgxODtzdHJva2Utd2lkdGg6MC41OyIgeDE9IjEwMzYiIHgyPSIxMjE0IiB5MT0iOTI1LjUiIHkyPSI5MjUuNSIvPjxyZWN0IGZpbGw9Im5vbmUiIGhlaWdodD0iNiIgc3R5bGU9InN0cm9rZTojQzgyOTMwO3N0cm9rZS13aWR0aDoxLjA7IiB3aWR0aD0iNiIgeD0iMTA0MyIgeT0iOTM1LjQ5MjIiLz48dGV4dCBmaWxsPSIjMDAwMDAwIiBmb250LWZhbWlseT0ic2Fucy1zZXJpZiIgZm9udC1zaXplPSIxNCIgbGVuZ3RoQWRqdXN0PSJzcGFjaW5nIiB0ZXh0TGVuZ3RoPSI0OSIgeD0iMTA1NSIgeT0iOTQyLjczNDQiPmlkOiBpbnQ8L3RleHQ+PHJlY3QgZmlsbD0ibm9uZSIgaGVpZ2h0PSI2IiBzdHlsZT0ic3Ryb2tlOiNDODI5MzA7c3Ryb2tlLXdpZHRoOjEuMDsiIHdpZHRoPSI2IiB4PSIxMDQzIiB5PSI5NTAuNDc2NiIvPjx0ZXh0IGZpbGw9IiMwMDAwMDAiIGZvbnQtZmFtaWx5PSJzYW5zLXNlcmlmIiBmb250LXNpemU9IjE0IiBsZW5ndGhBZGp1c3Q9InNwYWNpbmciIHRleHRMZW5ndGg9IjExMiIgeD0iMTA1NSIgeT0iOTU3LjcxODgiPnN0dWRlbnQ6IFN0dWRlbnQ8L3RleHQ+PHJlY3QgZmlsbD0ibm9uZSIgaGVpZ2h0PSI2IiBzdHlsZT0ic3Ryb2tlOiNDODI5MzA7c3Ryb2tlLXdpZHRoOjEuMDsiIHdpZHRoPSI2IiB4PSIxMDQzIiB5PSI5NjUuNDYwOSIvPjx0ZXh0IGZpbGw9IiMwMDAwMDAiIGZvbnQtZmFtaWx5PSJzYW5zLXNlcmlmIiBmb250LXNpemU9IjE0IiBsZW5ndGhBZGp1c3Q9InNwYWNpbmciIHRleHRMZW5ndGg9IjE1NCIgeD0iMTA1NSIgeT0iOTcyLjcwMzEiPmludGVybnNoaXA6IEludGVybnNoaXA8L3RleHQ+PHJlY3QgZmlsbD0ibm9uZSIgaGVpZ2h0PSI2IiBzdHlsZT0ic3Ryb2tlOiNDODI5MzA7c3Ryb2tlLXdpZHRoOjEuMDsiIHdpZHRoPSI2IiB4PSIxMDQzIiB5PSI5ODAuNDQ1MyIvPjx0ZXh0IGZpbGw9IiMwMDAwMDAiIGZvbnQtZmFtaWx5PSJzYW5zLXNlcmlmIiBmb250LXNpemU9IjE0IiBsZW5ndGhBZGp1c3Q9InNwYWNpbmciIHRleHRMZW5ndGg9Ijg0IiB4PSIxMDU1IiB5PSI5ODcuNjg3NSI+Y29udGVudDogc3RyPC90ZXh0PjxyZWN0IGZpbGw9Im5vbmUiIGhlaWdodD0iNiIgc3R5bGU9InN0cm9rZTojQzgyOTMwO3N0cm9rZS13aWR0aDoxLjA7IiB3aWR0aD0iNiIgeD0iMTA0MyIgeT0iOTk1LjQyOTciLz48dGV4dCBmaWxsPSIjMDAwMDAwIiBmb250LWZhbWlseT0ic2Fucy1zZXJpZiIgZm9udC1zaXplPSIxNCIgbGVuZ3RoQWRqdXN0PSJzcGFjaW5nIiB0ZXh0TGVuZ3RoPSI3NyIgeD0iMTA1NSIgeT0iMTAwMi42NzE5Ij5zdGF0dXM6IHN0cjwvdGV4dD48bGluZSBzdHlsZT0ic3Ryb2tlOiMxODE4MTg7c3Ryb2tlLXdpZHRoOjAuNTsiIHgxPSIxMDM2IiB4Mj0iMTIxNCIgeTE9IjEwMDguNDIxOSIgeTI9IjEwMDguNDIxOSIvPjxlbGxpcHNlIGN4PSIxMDQ2IiBjeT0iMTAyMS40MTQxIiBmaWxsPSIjODRCRTg0IiByeD0iMyIgcnk9IjMiIHN0eWxlPSJzdHJva2U6IzAzODA0ODtzdHJva2Utd2lkdGg6MS4wOyIvPjx0ZXh0IGZpbGw9IiMwMDAwMDAiIGZvbnQtZmFtaWx5PSJzYW5zLXNlcmlmIiBmb250LXNpemU9IjE0IiBsZW5ndGhBZGp1c3Q9InNwYWNpbmciIHRleHRMZW5ndGg9Ijg2IiB4PSIxMDU1IiB5PSIxMDI1LjY1NjMiPmdldF9zdGF0dXMoKTwvdGV4dD48L2c+PCEtLWNsYXNzIENhdGVnb3J5LS0+PGcgaWQ9ImVsZW1fQ2F0ZWdvcnkiPjxyZWN0IGNvZGVMaW5lPSI3OCIgZmlsbD0iI0YxRjFGMSIgaGVpZ2h0PSIxMjIuOTIxOSIgaWQ9IkNhdGVnb3J5IiByeD0iMi41IiByeT0iMi41IiBzdHlsZT0ic3Ryb2tlOiMxODE4MTg7c3Ryb2tlLXdpZHRoOjAuNTsiIHdpZHRoPSIyMzIiIHg9IjE5OTAiIHk9IjkwMSIvPjxlbGxpcHNlIGN4PSIyMDczLjc1IiBjeT0iOTE3IiBmaWxsPSIjQUREMUIyIiByeD0iMTEiIHJ5PSIxMSIgc3R5bGU9InN0cm9rZTojMTgxODE4O3N0cm9rZS13aWR0aDoxLjA7Ii8+PHBhdGggZD0iTTIwNzEuMzc1LDkyMS4yNSBMMjA3MS4zNzUsOTIzIEwyMDc2LjMxMjUsOTIzIEwyMDc2LjMxMjUsOTIxLjI1IEwyMDcxLjM3NSw5MjEuMjUgWiBNMjA3Mi4wNjI1LDkyMS45Mzc1IFEyMDcyLjA2MjUsOTIxLjkzNzUgMjA3Mi4wNjI1LDkxMi43NSBMMjA3MC4zMTI1LDkxMi43NSBRMjA3MC4zMTI1LDkxMi43NSAyMDcwLjMxMjUsOTIxLjkzNzUgTDIwNzIuMDYyNSw5MjEuOTM3NSBaIE0yMDc1LjYyNSw5MjEuOTM3NSBMMjA3Ny4zNzUsOTIxLjkzNzUgUTIwNzcuMzc1LDkyMS45Mzc1IDIwNzcuMzc1LDkxOS4xMjUgTDIwNzUuNjI1LDkxOS4xMjUgUTIwNzUuNjI1LDkxOS4xMjUgMjA3NS42MjUsOTIxLjkzNzUgWiBNMjA3NS42MjUsOTEyLjc1IFEyMDc1LjYyNSw5MTIuNzUgMjA3NS42MjUsOTE1LjU2MjUgTDIwNzcuMzc1LDkxNS41NjI1IFEyMDc3LjM3NSw5MTUuNTYyNSAyMDc3LjM3NSw5MTIuNzUgTDIwNzUuNjI1LDkxMi43NSBaIE0yMDcxLjM3NSw5MTMuNDM3NSBMMjA3Ni4zMTI1LDkxMy40Mzc1IEwyMDc2LjMxMjUsOTExLjY4NzUgTDIwNzEuMzc1LDkxMS42ODc1IEwyMDcxLjM3NSw5MTMuNDM3NSBaICIgZmlsbD0iIzAwMDAwMCIvPjx0ZXh0IGZpbGw9IiMwMDAwMDAiIGZvbnQtZmFtaWx5PSJzYW5zLXNlcmlmIiBmb250LXNpemU9IjE0IiBsZW5ndGhBZGp1c3Q9InNwYWNpbmciIHRleHRMZW5ndGg9IjU2IiB4PSIyMDk0LjI1IiB5PSI5MjIuNzQyMiI+Q2F0ZWdvcnk8L3RleHQ+PGxpbmUgc3R5bGU9InN0cm9rZTojMTgxODE4O3N0cm9rZS13aWR0aDowLjU7IiB4MT0iMTk5MSIgeDI9IjIyMjEiIHkxPSI5MzMiIHkyPSI5MzMiLz48cmVjdCBmaWxsPSJub25lIiBoZWlnaHQ9IjYiIHN0eWxlPSJzdHJva2U6I0M4MjkzMDtzdHJva2Utd2lkdGg6MS4wOyIgd2lkdGg9IjYiIHg9IjE5OTgiIHk9Ijk0Mi45OTIyIi8+PHRleHQgZmlsbD0iIzAwMDAwMCIgZm9udC1mYW1pbHk9InNhbnMtc2VyaWYiIGZvbnQtc2l6ZT0iMTQiIGxlbmd0aEFkanVzdD0ic3BhY2luZyIgdGV4dExlbmd0aD0iNDkiIHg9IjIwMTAiIHk9Ijk1MC4yMzQ0Ij5pZDogaW50PC90ZXh0PjxyZWN0IGZpbGw9Im5vbmUiIGhlaWdodD0iNiIgc3R5bGU9InN0cm9rZTojQzgyOTMwO3N0cm9rZS13aWR0aDoxLjA7IiB3aWR0aD0iNiIgeD0iMTk5OCIgeT0iOTU3Ljk3NjYiLz48dGV4dCBmaWxsPSIjMDAwMDAwIiBmb250LWZhbWlseT0ic2Fucy1zZXJpZiIgZm9udC1zaXplPSIxNCIgbGVuZ3RoQWRqdXN0PSJzcGFjaW5nIiB0ZXh0TGVuZ3RoPSI2NCIgeD0iMjAxMCIgeT0iOTY1LjIxODgiPm5hbWU6IHN0cjwvdGV4dD48cmVjdCBmaWxsPSJub25lIiBoZWlnaHQ9IjYiIHN0eWxlPSJzdHJva2U6I0M4MjkzMDtzdHJva2Utd2lkdGg6MS4wOyIgd2lkdGg9IjYiIHg9IjE5OTgiIHk9Ijk3Mi45NjA5Ii8+PHRleHQgZmlsbD0iIzAwMDAwMCIgZm9udC1mYW1pbHk9InNhbnMtc2VyaWYiIGZvbnQtc2l6ZT0iMTQiIGxlbmd0aEFkanVzdD0ic3BhY2luZyIgdGV4dExlbmd0aD0iMjAzIiB4PSIyMDEwIiB5PSI5ODAuMjAzMSI+aW50ZXJuc2hpcHM6IExpc3RbSW50ZXJuc2hpcF08L3RleHQ+PGxpbmUgc3R5bGU9InN0cm9rZTojMTgxODE4O3N0cm9rZS13aWR0aDowLjU7IiB4MT0iMTk5MSIgeDI9IjIyMjEiIHkxPSI5ODUuOTUzMSIgeTI9Ijk4NS45NTMxIi8+PGVsbGlwc2UgY3g9IjIwMDEiIGN5PSI5OTguOTQ1MyIgZmlsbD0iIzg0QkU4NCIgcng9IjMiIHJ5PSIzIiBzdHlsZT0ic3Ryb2tlOiMwMzgwNDg7c3Ryb2tlLXdpZHRoOjEuMDsiLz48dGV4dCBmaWxsPSIjMDAwMDAwIiBmb250LWZhbWlseT0ic2Fucy1zZXJpZiIgZm9udC1zaXplPSIxNCIgbGVuZ3RoQWRqdXN0PSJzcGFjaW5nIiB0ZXh0TGVuZ3RoPSIxODQiIHg9IjIwMTAiIHk9IjEwMDMuMTg3NSI+YWRkX2ludGVybnNoaXAoaW50ZXJuc2hpcCk8L3RleHQ+PGVsbGlwc2UgY3g9IjIwMDEiIGN5PSIxMDEzLjkyOTciIGZpbGw9IiM4NEJFODQiIHJ4PSIzIiByeT0iMyIgc3R5bGU9InN0cm9rZTojMDM4MDQ4O3N0cm9rZS13aWR0aDoxLjA7Ii8+PHRleHQgZmlsbD0iIzAwMDAwMCIgZm9udC1mYW1pbHk9InNhbnMtc2VyaWYiIGZvbnQtc2l6ZT0iMTQiIGxlbmd0aEFkanVzdD0ic3BhY2luZyIgdGV4dExlbmd0aD0iMjA2IiB4PSIyMDEwIiB5PSIxMDE4LjE3MTkiPnJlbW92ZV9pbnRlcm5zaGlwKGludGVybnNoaXApPC90ZXh0PjwvZz48IS0tY2xhc3MgU2tpbGwtLT48ZyBpZD0iZWxlbV9Ta2lsbCI+PHJlY3QgY29kZUxpbmU9Ijg3IiBmaWxsPSIjRjFGMUYxIiBoZWlnaHQ9IjEyMi45MjE5IiBpZD0iU2tpbGwiIHJ4PSIyLjUiIHJ5PSIyLjUiIHN0eWxlPSJzdHJva2U6IzE4MTgxODtzdHJva2Utd2lkdGg6MC41OyIgd2lkdGg9IjIzMiIgeD0iMjI1NyIgeT0iOTAxIi8+PGVsbGlwc2UgY3g9IjIzNTEuMjUiIGN5PSI5MTciIGZpbGw9IiNBREQxQjIiIHJ4PSIxMSIgcnk9IjExIiBzdHlsZT0ic3Ryb2tlOiMxODE4MTg7c3Ryb2tlLXdpZHRoOjEuMDsiLz48cGF0aCBkPSJNMjM0OC44NzUsOTIxLjI1IEwyMzQ4Ljg3NSw5MjMgTDIzNTMuODEyNSw5MjMgTDIzNTMuODEyNSw5MjEuMjUgTDIzNDguODc1LDkyMS4yNSBaIE0yMzQ5LjU2MjUsOTIxLjkzNzUgUTIzNDkuNTYyNSw5MjEuOTM3NSAyMzQ5LjU2MjUsOTEyLjc1IEwyMzQ3LjgxMjUsOTEyLjc1IFEyMzQ3LjgxMjUsOTEyLjc1IDIzNDcuODEyNSw5MjEuOTM3NSBMMjM0OS41NjI1LDkyMS45Mzc1IFogTTIzNTMuMTI1LDkyMS45Mzc1IEwyMzU0Ljg3NSw5MjEuOTM3NSBRMjM1NC44NzUsOTIxLjkzNzUgMjM1NC44NzUsOTE5LjEyNSBMMjM1My4xMjUsOTE5LjEyNSBRMjM1My4xMjUsOTE5LjEyNSAyMzUzLjEyNSw5MjEuOTM3NSBaIE0yMzUzLjEyNSw5MTIuNzUgUTIzNTMuMTI1LDkxMi43NSAyMzUzLjEyNSw5MTUuNTYyNSBMMjM1NC44NzUsOTE1LjU2MjUgUTIzNTQuODc1LDkxNS41NjI1IDIzNTQuODc1LDkxMi43NSBMMjM1My4xMjUsOTEyLjc1IFogTTIzNDguODc1LDkxMy40Mzc1IEwyMzUzLjgxMjUsOTEzLjQzNzUgTDIzNTMuODEyNSw5MTEuNjg3NSBMMjM0OC44NzUsOTExLjY4NzUgTDIzNDguODc1LDkxMy40Mzc1IFogIiBmaWxsPSIjMDAwMDAwIi8+PHRleHQgZmlsbD0iIzAwMDAwMCIgZm9udC1mYW1pbHk9InNhbnMtc2VyaWYiIGZvbnQtc2l6ZT0iMTQiIGxlbmd0aEFkanVzdD0ic3BhY2luZyIgdGV4dExlbmd0aD0iMzUiIHg9IjIzNzEuNzUiIHk9IjkyMi43NDIyIj5Ta2lsbDwvdGV4dD48bGluZSBzdHlsZT0ic3Ryb2tlOiMxODE4MTg7c3Ryb2tlLXdpZHRoOjAuNTsiIHgxPSIyMjU4IiB4Mj0iMjQ4OCIgeTE9IjkzMyIgeTI9IjkzMyIvPjxyZWN0IGZpbGw9Im5vbmUiIGhlaWdodD0iNiIgc3R5bGU9InN0cm9rZTojQzgyOTMwO3N0cm9rZS13aWR0aDoxLjA7IiB3aWR0aD0iNiIgeD0iMjI2NSIgeT0iOTQyLjk5MjIiLz48dGV4dCBmaWxsPSIjMDAwMDAwIiBmb250LWZhbWlseT0ic2Fucy1zZXJpZiIgZm9udC1zaXplPSIxNCIgbGVuZ3RoQWRqdXN0PSJzcGFjaW5nIiB0ZXh0TGVuZ3RoPSI0OSIgeD0iMjI3NyIgeT0iOTUwLjIzNDQiPmlkOiBpbnQ8L3RleHQ+PHJlY3QgZmlsbD0ibm9uZSIgaGVpZ2h0PSI2IiBzdHlsZT0ic3Ryb2tlOiNDODI5MzA7c3Ryb2tlLXdpZHRoOjEuMDsiIHdpZHRoPSI2IiB4PSIyMjY1IiB5PSI5NTcuOTc2NiIvPjx0ZXh0IGZpbGw9IiMwMDAwMDAiIGZvbnQtZmFtaWx5PSJzYW5zLXNlcmlmIiBmb250LXNpemU9IjE0IiBsZW5ndGhBZGp1c3Q9InNwYWNpbmciIHRleHRMZW5ndGg9IjY0IiB4PSIyMjc3IiB5PSI5NjUuMjE4OCI+bmFtZTogc3RyPC90ZXh0PjxyZWN0IGZpbGw9Im5vbmUiIGhlaWdodD0iNiIgc3R5bGU9InN0cm9rZTojQzgyOTMwO3N0cm9rZS13aWR0aDoxLjA7IiB3aWR0aD0iNiIgeD0iMjI2NSIgeT0iOTcyLjk2MDkiLz48dGV4dCBmaWxsPSIjMDAwMDAwIiBmb250LWZhbWlseT0ic2Fucy1zZXJpZiIgZm9udC1zaXplPSIxNCIgbGVuZ3RoQWRqdXN0PSJzcGFjaW5nIiB0ZXh0TGVuZ3RoPSIyMDMiIHg9IjIyNzciIHk9Ijk4MC4yMDMxIj5pbnRlcm5zaGlwczogTGlzdFtJbnRlcm5zaGlwXTwvdGV4dD48bGluZSBzdHlsZT0ic3Ryb2tlOiMxODE4MTg7c3Ryb2tlLXdpZHRoOjAuNTsiIHgxPSIyMjU4IiB4Mj0iMjQ4OCIgeTE9Ijk4NS45NTMxIiB5Mj0iOTg1Ljk1MzEiLz48ZWxsaXBzZSBjeD0iMjI2OCIgY3k9Ijk5OC45NDUzIiBmaWxsPSIjODRCRTg0IiByeD0iMyIgcnk9IjMiIHN0eWxlPSJzdHJva2U6IzAzODA0ODtzdHJva2Utd2lkdGg6MS4wOyIvPjx0ZXh0IGZpbGw9IiMwMDAwMDAiIGZvbnQtZmFtaWx5PSJzYW5zLXNlcmlmIiBmb250LXNpemU9IjE0IiBsZW5ndGhBZGp1c3Q9InNwYWNpbmciIHRleHRMZW5ndGg9IjE4NCIgeD0iMjI3NyIgeT0iMTAwMy4xODc1Ij5hZGRfaW50ZXJuc2hpcChpbnRlcm5zaGlwKTwvdGV4dD48ZWxsaXBzZSBjeD0iMjI2OCIgY3k9IjEwMTMuOTI5NyIgZmlsbD0iIzg0QkU4NCIgcng9IjMiIHJ5PSIzIiBzdHlsZT0ic3Ryb2tlOiMwMzgwNDg7c3Ryb2tlLXdpZHRoOjEuMDsiLz48dGV4dCBmaWxsPSIjMDAwMDAwIiBmb250LWZhbWlseT0ic2Fucy1zZXJpZiIgZm9udC1zaXplPSIxNCIgbGVuZ3RoQWRqdXN0PSJzcGFjaW5nIiB0ZXh0TGVuZ3RoPSIyMDYiIHg9IjIyNzciIHk9IjEwMTguMTcxOSI+cmVtb3ZlX2ludGVybnNoaXAoaW50ZXJuc2hpcCk8L3RleHQ+PC9nPjwhLS1jbGFzcyBSZWNvbW1lbmRhdGlvblN5c3RlbS0tPjxnIGlkPSJlbGVtX1JlY29tbWVuZGF0aW9uU3lzdGVtIj48cmVjdCBjb2RlTGluZT0iOTYiIGZpbGw9IiNGMUYxRjEiIGhlaWdodD0iNzcuOTY4OCIgaWQ9IlJlY29tbWVuZGF0aW9uU3lzdGVtIiByeD0iMi41IiByeT0iMi41IiBzdHlsZT0ic3Ryb2tlOiMxODE4MTg7c3Ryb2tlLXdpZHRoOjAuNTsiIHdpZHRoPSIzOTAiIHg9IjE1NzMiIHk9IjYyMC41Ii8+PGVsbGlwc2UgY3g9IjE2OTIuMjUiIGN5PSI2MzYuNSIgZmlsbD0iI0FERDFCMiIgcng9IjExIiByeT0iMTEiIHN0eWxlPSJzdHJva2U6IzE4MTgxODtzdHJva2Utd2lkdGg6MS4wOyIvPjxwYXRoIGQ9Ik0xNjg5Ljg3NSw2NDAuNzUgTDE2ODkuODc1LDY0Mi41IEwxNjk0LjgxMjUsNjQyLjUgTDE2OTQuODEyNSw2NDAuNzUgTDE2ODkuODc1LDY0MC43NSBaIE0xNjkwLjU2MjUsNjQxLjQzNzUgUTE2OTAuNTYyNSw2NDEuNDM3NSAxNjkwLjU2MjUsNjMyLjI1IEwxNjg4LjgxMjUsNjMyLjI1IFExNjg4LjgxMjUsNjMyLjI1IDE2ODguODEyNSw2NDEuNDM3NSBMMTY5MC41NjI1LDY0MS40Mzc1IFogTTE2OTQuMTI1LDY0MS40Mzc1IEwxNjk1Ljg3NSw2NDEuNDM3NSBRMTY5NS44NzUsNjQxLjQzNzUgMTY5NS44NzUsNjM4LjYyNSBMMTY5NC4xMjUsNjM4LjYyNSBRMTY5NC4xMjUsNjM4LjYyNSAxNjk0LjEyNSw2NDEuNDM3NSBaIE0xNjk0LjEyNSw2MzIuMjUgUTE2OTQuMTI1LDYzMi4yNSAxNjk0LjEyNSw2MzUuMDYyNSBMMTY5NS44NzUsNjM1LjA2MjUgUTE2OTUuODc1LDYzNS4wNjI1IDE2OTUuODc1LDYzMi4yNSBMMTY5NC4xMjUsNjMyLjI1IFogTTE2ODkuODc1LDYzMi45Mzc1IEwxNjk0LjgxMjUsNjMyLjkzNzUgTDE2OTQuODEyNSw2MzEuMTg3NSBMMTY4OS44NzUsNjMxLjE4NzUgTDE2ODkuODc1LDYzMi45Mzc1IFogIiBmaWxsPSIjMDAwMDAwIi8+PHRleHQgZmlsbD0iIzAwMDAwMCIgZm9udC1mYW1pbHk9InNhbnMtc2VyaWYiIGZvbnQtc2l6ZT0iMTQiIGxlbmd0aEFkanVzdD0ic3BhY2luZyIgdGV4dExlbmd0aD0iMTQzIiB4PSIxNzEyLjc1IiB5PSI2NDIuMjQyMiI+UmVjb21tZW5kYXRpb25TeXN0ZW08L3RleHQ+PGxpbmUgc3R5bGU9InN0cm9rZTojMTgxODE4O3N0cm9rZS13aWR0aDowLjU7IiB4MT0iMTU3NCIgeDI9IjE5NjIiIHkxPSI2NTIuNSIgeTI9IjY1Mi41Ii8+PGxpbmUgc3R5bGU9InN0cm9rZTojMTgxODE4O3N0cm9rZS13aWR0aDowLjU7IiB4MT0iMTU3NCIgeDI9IjE5NjIiIHkxPSI2NjAuNSIgeTI9IjY2MC41Ii8+PGVsbGlwc2UgY3g9IjE1ODQiIGN5PSI2NzMuNDkyMiIgZmlsbD0iIzg0QkU4NCIgcng9IjMiIHJ5PSIzIiBzdHlsZT0ic3Ryb2tlOiMwMzgwNDg7c3Ryb2tlLXdpZHRoOjEuMDsiLz48dGV4dCBmaWxsPSIjMDAwMDAwIiBmb250LWZhbWlseT0ic2Fucy1zZXJpZiIgZm9udC1zaXplPSIxNCIgbGVuZ3RoQWRqdXN0PSJzcGFjaW5nIiB0ZXh0TGVuZ3RoPSIzNjQiIHg9IjE1OTMiIHk9IjY3Ny43MzQ0Ij5yZWNvbW1lbmRfaW50ZXJuc2hpcHMoc3R1ZGVudCwgbnVtX3JlY29tbWVuZGF0aW9ucyk8L3RleHQ+PGVsbGlwc2UgY3g9IjE1ODQiIGN5PSI2ODguNDc2NiIgZmlsbD0iIzg0QkU4NCIgcng9IjMiIHJ5PSIzIiBzdHlsZT0ic3Ryb2tlOiMwMzgwNDg7c3Ryb2tlLXdpZHRoOjEuMDsiLz48dGV4dCBmaWxsPSIjMDAwMDAwIiBmb250LWZhbWlseT0ic2Fucy1zZXJpZiIgZm9udC1zaXplPSIxNCIgbGVuZ3RoQWRqdXN0PSJzcGFjaW5nIiB0ZXh0TGVuZ3RoPSIyOTAiIHg9IjE1OTMiIHk9IjY5Mi43MTg4Ij5jYWxjdWxhdGVfc2ltaWxhcml0eShzdHVkZW50LCBpbnRlcm5zaGlwKTwvdGV4dD48L2c+PCEtLWNsYXNzIENvbW11bmljYXRpb25TeXN0ZW0tLT48ZyBpZD0iZWxlbV9Db21tdW5pY2F0aW9uU3lzdGVtIj48cmVjdCBjb2RlTGluZT0iMTAxIiBmaWxsPSIjRjFGMUYxIiBoZWlnaHQ9Ijc3Ljk2ODgiIGlkPSJDb21tdW5pY2F0aW9uU3lzdGVtIiByeD0iMi41IiByeT0iMi41IiBzdHlsZT0ic3Ryb2tlOiMxODE4MTg7c3Ryb2tlLXdpZHRoOjAuNTsiIHdpZHRoPSIzNTkiIHg9IjExNzguNSIgeT0iNjIwLjUiLz48ZWxsaXBzZSBjeD0iMTI4NS43NSIgY3k9IjYzNi41IiBmaWxsPSIjQUREMUIyIiByeD0iMTEiIHJ5PSIxMSIgc3R5bGU9InN0cm9rZTojMTgxODE4O3N0cm9rZS13aWR0aDoxLjA7Ii8+PHBhdGggZD0iTTEyODMuMzc1LDY0MC43NSBMMTI4My4zNzUsNjQyLjUgTDEyODguMzEyNSw2NDIuNSBMMTI4OC4zMTI1LDY0MC43NSBMMTI4My4zNzUsNjQwLjc1IFogTTEyODQuMDYyNSw2NDEuNDM3NSBRMTI4NC4wNjI1LDY0MS40Mzc1IDEyODQuMDYyNSw2MzIuMjUgTDEyODIuMzEyNSw2MzIuMjUgUTEyODIuMzEyNSw2MzIuMjUgMTI4Mi4zMTI1LDY0MS40Mzc1IEwxMjg0LjA2MjUsNjQxLjQzNzUgWiBNMTI4Ny42MjUsNjQxLjQzNzUgTDEyODkuMzc1LDY0MS40Mzc1IFExMjg5LjM3NSw2NDEuNDM3NSAxMjg5LjM3NSw2MzguNjI1IEwxMjg3LjYyNSw2MzguNjI1IFExMjg3LjYyNSw2MzguNjI1IDEyODcuNjI1LDY0MS40Mzc1IFogTTEyODcuNjI1LDYzMi4yNSBRMTI4Ny42MjUsNjMyLjI1IDEyODcuNjI1LDYzNS4wNjI1IEwxMjg5LjM3NSw2MzUuMDYyNSBRMTI4OS4zNzUsNjM1LjA2MjUgMTI4OS4zNzUsNjMyLjI1IEwxMjg3LjYyNSw2MzIuMjUgWiBNMTI4My4zNzUsNjMyLjkzNzUgTDEyODguMzEyNSw2MzIuOTM3NSBMMTI4OC4zMTI1LDYzMS4xODc1IEwxMjgzLjM3NSw2MzEuMTg3NSBMMTI4My4zNzUsNjMyLjkzNzUgWiAiIGZpbGw9IiMwMDAwMDAiLz48dGV4dCBmaWxsPSIjMDAwMDAwIiBmb250LWZhbWlseT0ic2Fucy1zZXJpZiIgZm9udC1zaXplPSIxNCIgbGVuZ3RoQWRqdXN0PSJzcGFjaW5nIiB0ZXh0TGVuZ3RoPSIxMzYiIHg9IjEzMDYuMjUiIHk9IjY0Mi4yNDIyIj5Db21tdW5pY2F0aW9uU3lzdGVtPC90ZXh0PjxsaW5lIHN0eWxlPSJzdHJva2U6IzE4MTgxODtzdHJva2Utd2lkdGg6MC41OyIgeDE9IjExNzkuNSIgeDI9IjE1MzYuNSIgeTE9IjY1Mi41IiB5Mj0iNjUyLjUiLz48bGluZSBzdHlsZT0ic3Ryb2tlOiMxODE4MTg7c3Ryb2tlLXdpZHRoOjAuNTsiIHgxPSIxMTc5LjUiIHgyPSIxNTM2LjUiIHkxPSI2NjAuNSIgeTI9IjY2MC41Ii8+PGVsbGlwc2UgY3g9IjExODkuNSIgY3k9IjY3My40OTIyIiBmaWxsPSIjODRCRTg0IiByeD0iMyIgcnk9IjMiIHN0eWxlPSJzdHJva2U6IzAzODA0ODtzdHJva2Utd2lkdGg6MS4wOyIvPjx0ZXh0IGZpbGw9IiMwMDAwMDAiIGZvbnQtZmFtaWx5PSJzYW5zLXNlcmlmIiBmb250LXNpemU9IjE0IiBsZW5ndGhBZGp1c3Q9InNwYWNpbmciIHRleHRMZW5ndGg9IjMzMyIgeD0iMTE5OC41IiB5PSI2NzcuNzM0NCI+c2VuZF9tZXNzYWdlKHNlbmRlciwgcmVjZWl2ZXIsIG1lc3NhZ2VfY29udGVudCk8L3RleHQ+PGVsbGlwc2UgY3g9IjExODkuNSIgY3k9IjY4OC40NzY2IiBmaWxsPSIjODRCRTg0IiByeD0iMyIgcnk9IjMiIHN0eWxlPSJzdHJva2U6IzAzODA0ODtzdHJva2Utd2lkdGg6MS4wOyIvPjx0ZXh0IGZpbGw9IiMwMDAwMDAiIGZvbnQtZmFtaWx5PSJzYW5zLXNlcmlmIiBmb250LXNpemU9IjE0IiBsZW5ndGhBZGp1c3Q9InNwYWNpbmciIHRleHRMZW5ndGg9IjEyOSIgeD0iMTE5OC41IiB5PSI2OTIuNzE4OCI+Z2V0X21lc3NhZ2VzKHVzZXIpPC90ZXh0PjwvZz48IS0tY2xhc3MgUmFua2luZ1N5c3RlbS0tPjxnIGlkPSJlbGVtX1JhbmtpbmdTeXN0ZW0iPjxyZWN0IGNvZGVMaW5lPSIxMDYiIGZpbGw9IiNGMUYxRjEiIGhlaWdodD0iNzcuOTY4OCIgaWQ9IlJhbmtpbmdTeXN0ZW0iIHJ4PSIyLjUiIHJ5PSIyLjUiIHN0eWxlPSJzdHJva2U6IzE4MTgxODtzdHJva2Utd2lkdGg6MC41OyIgd2lkdGg9IjI5NSIgeD0iMjE5NS41IiB5PSIyOS41Ii8+PGVsbGlwc2UgY3g9IjIyOTIuNzUiIGN5PSI0NS41IiBmaWxsPSIjQUREMUIyIiByeD0iMTEiIHJ5PSIxMSIgc3R5bGU9InN0cm9rZTojMTgxODE4O3N0cm9rZS13aWR0aDoxLjA7Ii8+PHBhdGggZD0iTTIyOTAuMzc1LDQ5Ljc1IEwyMjkwLjM3NSw1MS41IEwyMjk1LjMxMjUsNTEuNSBMMjI5NS4zMTI1LDQ5Ljc1IEwyMjkwLjM3NSw0OS43NSBaIE0yMjkxLjA2MjUsNTAuNDM3NSBRMjI5MS4wNjI1LDUwLjQzNzUgMjI5MS4wNjI1LDQxLjI1IEwyMjg5LjMxMjUsNDEuMjUgUTIyODkuMzEyNSw0MS4yNSAyMjg5LjMxMjUsNTAuNDM3NSBMMjI5MS4wNjI1LDUwLjQzNzUgWiBNMjI5NC42MjUsNTAuNDM3NSBMMjI5Ni4zNzUsNTAuNDM3NSBRMjI5Ni4zNzUsNTAuNDM3NSAyMjk2LjM3NSw0Ny42MjUgTDIyOTQuNjI1LDQ3LjYyNSBRMjI5NC42MjUsNDcuNjI1IDIyOTQuNjI1LDUwLjQzNzUgWiBNMjI5NC42MjUsNDEuMjUgUTIyOTQuNjI1LDQxLjI1IDIyOTQuNjI1LDQ0LjA2MjUgTDIyOTYuMzc1LDQ0LjA2MjUgUTIyOTYuMzc1LDQ0LjA2MjUgMjI5Ni4zNzUsNDEuMjUgTDIyOTQuNjI1LDQxLjI1IFogTTIyOTAuMzc1LDQxLjkzNzUgTDIyOTUuMzEyNSw0MS45Mzc1IEwyMjk1LjMxMjUsNDAuMTg3NSBMMjI5MC4zNzUsNDAuMTg3NSBMMjI5MC4zNzUsNDEuOTM3NSBaICIgZmlsbD0iIzAwMDAwMCIvPjx0ZXh0IGZpbGw9IiMwMDAwMDAiIGZvbnQtZmFtaWx5PSJzYW5zLXNlcmlmIiBmb250LXNpemU9IjE0IiBsZW5ndGhBZGp1c3Q9InNwYWNpbmciIHRleHRMZW5ndGg9IjkyIiB4PSIyMzEzLjI1IiB5PSI1MS4yNDIyIj5SYW5raW5nU3lzdGVtPC90ZXh0PjxsaW5lIHN0eWxlPSJzdHJva2U6IzE4MTgxODtzdHJva2Utd2lkdGg6MC41OyIgeDE9IjIxOTYuNSIgeDI9IjI0ODkuNSIgeTE9IjYxLjUiIHkyPSI2MS41Ii8+PGxpbmUgc3R5bGU9InN0cm9rZTojMTgxODE4O3N0cm9rZS13aWR0aDowLjU7IiB4MT0iMjE5Ni41IiB4Mj0iMjQ4OS41IiB5MT0iNjkuNSIgeTI9IjY5LjUiLz48ZWxsaXBzZSBjeD0iMjIwNi41IiBjeT0iODIuNDkyMiIgZmlsbD0iIzg0QkU4NCIgcng9IjMiIHJ5PSIzIiBzdHlsZT0ic3Ryb2tlOiMwMzgwNDg7c3Ryb2tlLXdpZHRoOjEuMDsiLz48dGV4dCBmaWxsPSIjMDAwMDAwIiBmb250LWZhbWlseT0ic2Fucy1zZXJpZiIgZm9udC1zaXplPSIxNCIgbGVuZ3RoQWRqdXN0PSJzcGFjaW5nIiB0ZXh0TGVuZ3RoPSIyNjkiIHg9IjIyMTUuNSIgeT0iODYuNzM0NCI+Z2V0X3RvcF9pbnRlcm5zaGlwcyhjYXRlZ29yeSwgbnVtX3RvcCk8L3RleHQ+PGVsbGlwc2UgY3g9IjIyMDYuNSIgY3k9Ijk3LjQ3NjYiIGZpbGw9IiM4NEJFODQiIHJ4PSIzIiByeT0iMyIgc3R5bGU9InN0cm9rZTojMDM4MDQ4O3N0cm9rZS13aWR0aDoxLjA7Ii8+PHRleHQgZmlsbD0iIzAwMDAwMCIgZm9udC1mYW1pbHk9InNhbnMtc2VyaWYiIGZvbnQtc2l6ZT0iMTQiIGxlbmd0aEFkanVzdD0ic3BhY2luZyIgdGV4dExlbmd0aD0iMjY5IiB4PSIyMjE1LjUiIHk9IjEwMS43MTg4Ij5nZXRfdHJlbmRpbmdfaW50ZXJuc2hpcHMobnVtX3RyZW5kaW5nKTwvdGV4dD48L2c+PCEtLWNsYXNzIE5vdGlmaWNhdGlvbi0tPjxnIGlkPSJlbGVtX05vdGlmaWNhdGlvbiI+PHJlY3QgY29kZUxpbmU9IjExMSIgZmlsbD0iI0YxRjFGMSIgaGVpZ2h0PSIxMjIuOTIxOSIgaWQ9Ik5vdGlmaWNhdGlvbiIgcng9IjIuNSIgcnk9IjIuNSIgc3R5bGU9InN0cm9rZTojMTgxODE4O3N0cm9rZS13aWR0aDowLjU7IiB3aWR0aD0iMTYyIiB4PSI0MjciIHk9IjU5OCIvPjxlbGxpcHNlIGN4PSI0NjIuNyIgY3k9IjYxNCIgZmlsbD0iI0FERDFCMiIgcng9IjExIiByeT0iMTEiIHN0eWxlPSJzdHJva2U6IzE4MTgxODtzdHJva2Utd2lkdGg6MS4wOyIvPjxwYXRoIGQ9Ik00NjAuMzI1LDYxOC4yNSBMNDYwLjMyNSw2MjAgTDQ2NS4yNjI1LDYyMCBMNDY1LjI2MjUsNjE4LjI1IEw0NjAuMzI1LDYxOC4yNSBaIE00NjEuMDEyNSw2MTguOTM3NSBRNDYxLjAxMjUsNjE4LjkzNzUgNDYxLjAxMjUsNjA5Ljc1IEw0NTkuMjYyNSw2MDkuNzUgUTQ1OS4yNjI1LDYwOS43NSA0NTkuMjYyNSw2MTguOTM3NSBMNDYxLjAxMjUsNjE4LjkzNzUgWiBNNDY0LjU3NSw2MTguOTM3NSBMNDY2LjMyNSw2MTguOTM3NSBRNDY2LjMyNSw2MTguOTM3NSA0NjYuMzI1LDYxNi4xMjUgTDQ2NC41NzUsNjE2LjEyNSBRNDY0LjU3NSw2MTYuMTI1IDQ2NC41NzUsNjE4LjkzNzUgWiBNNDY0LjU3NSw2MDkuNzUgUTQ2NC41NzUsNjA5Ljc1IDQ2NC41NzUsNjEyLjU2MjUgTDQ2Ni4zMjUsNjEyLjU2MjUgUTQ2Ni4zMjUsNjEyLjU2MjUgNDY2LjMyNSw2MDkuNzUgTDQ2NC41NzUsNjA5Ljc1IFogTTQ2MC4zMjUsNjEwLjQzNzUgTDQ2NS4yNjI1LDYxMC40Mzc1IEw0NjUuMjYyNSw2MDguNjg3NSBMNDYwLjMyNSw2MDguNjg3NSBMNDYwLjMyNSw2MTAuNDM3NSBaICIgZmlsbD0iIzAwMDAwMCIvPjx0ZXh0IGZpbGw9IiMwMDAwMDAiIGZvbnQtZmFtaWx5PSJzYW5zLXNlcmlmIiBmb250LXNpemU9IjE0IiBsZW5ndGhBZGp1c3Q9InNwYWNpbmciIHRleHRMZW5ndGg9Ijg0IiB4PSI0ODEuMyIgeT0iNjE5Ljc0MjIiPk5vdGlmaWNhdGlvbjwvdGV4dD48bGluZSBzdHlsZT0ic3Ryb2tlOiMxODE4MTg7c3Ryb2tlLXdpZHRoOjAuNTsiIHgxPSI0MjgiIHgyPSI1ODgiIHkxPSI2MzAiIHkyPSI2MzAiLz48cmVjdCBmaWxsPSJub25lIiBoZWlnaHQ9IjYiIHN0eWxlPSJzdHJva2U6I0M4MjkzMDtzdHJva2Utd2lkdGg6MS4wOyIgd2lkdGg9IjYiIHg9IjQzNSIgeT0iNjM5Ljk5MjIiLz48dGV4dCBmaWxsPSIjMDAwMDAwIiBmb250LWZhbWlseT0ic2Fucy1zZXJpZiIgZm9udC1zaXplPSIxNCIgbGVuZ3RoQWRqdXN0PSJzcGFjaW5nIiB0ZXh0TGVuZ3RoPSI0OSIgeD0iNDQ3IiB5PSI2NDcuMjM0NCI+aWQ6IGludDwvdGV4dD48cmVjdCBmaWxsPSJub25lIiBoZWlnaHQ9IjYiIHN0eWxlPSJzdHJva2U6I0M4MjkzMDtzdHJva2Utd2lkdGg6MS4wOyIgd2lkdGg9IjYiIHg9IjQzNSIgeT0iNjU0Ljk3NjYiLz48dGV4dCBmaWxsPSIjMDAwMDAwIiBmb250LWZhbWlseT0ic2Fucy1zZXJpZiIgZm9udC1zaXplPSIxNCIgbGVuZ3RoQWRqdXN0PSJzcGFjaW5nIiB0ZXh0TGVuZ3RoPSI4NCIgeD0iNDQ3IiB5PSI2NjIuMjE4OCI+Y29udGVudDogc3RyPC90ZXh0PjxyZWN0IGZpbGw9Im5vbmUiIGhlaWdodD0iNiIgc3R5bGU9InN0cm9rZTojQzgyOTMwO3N0cm9rZS13aWR0aDoxLjA7IiB3aWR0aD0iNiIgeD0iNDM1IiB5PSI2NjkuOTYwOSIvPjx0ZXh0IGZpbGw9IiMwMDAwMDAiIGZvbnQtZmFtaWx5PSJzYW5zLXNlcmlmIiBmb250LXNpemU9IjE0IiBsZW5ndGhBZGp1c3Q9InNwYWNpbmciIHRleHRMZW5ndGg9IjcwIiB4PSI0NDciIHk9IjY3Ny4yMDMxIj51c2VyOiBVc2VyPC90ZXh0PjxsaW5lIHN0eWxlPSJzdHJva2U6IzE4MTgxODtzdHJva2Utd2lkdGg6MC41OyIgeDE9IjQyOCIgeDI9IjU4OCIgeTE9IjY4Mi45NTMxIiB5Mj0iNjgyLjk1MzEiLz48ZWxsaXBzZSBjeD0iNDM4IiBjeT0iNjk1Ljk0NTMiIGZpbGw9IiM4NEJFODQiIHJ4PSIzIiByeT0iMyIgc3R5bGU9InN0cm9rZTojMDM4MDQ4O3N0cm9rZS13aWR0aDoxLjA7Ii8+PHRleHQgZmlsbD0iIzAwMDAwMCIgZm9udC1mYW1pbHk9InNhbnMtc2VyaWYiIGZvbnQtc2l6ZT0iMTQiIGxlbmd0aEFkanVzdD0ic3BhY2luZyIgdGV4dExlbmd0aD0iMTM2IiB4PSI0NDciIHk9IjcwMC4xODc1Ij52aWV3X25vdGlmaWNhdGlvbigpPC90ZXh0PjxlbGxpcHNlIGN4PSI0MzgiIGN5PSI3MTAuOTI5NyIgZmlsbD0iIzg0QkU4NCIgcng9IjMiIHJ5PSIzIiBzdHlsZT0ic3Ryb2tlOiMwMzgwNDg7c3Ryb2tlLXdpZHRoOjEuMDsiLz48dGV4dCBmaWxsPSIjMDAwMDAwIiBmb250LWZhbWlseT0ic2Fucy1zZXJpZiIgZm9udC1zaXplPSIxNCIgbGVuZ3RoQWRqdXN0PSJzcGFjaW5nIiB0ZXh0TGVuZ3RoPSIxMDEiIHg9IjQ0NyIgeT0iNzE1LjE3MTkiPm1hcmtfYXNfcmVhZCgpPC90ZXh0PjwvZz48IS0tY2xhc3MgUmV2aWV3LS0+PGcgaWQ9ImVsZW1fUmV2aWV3Ij48cmVjdCBjb2RlTGluZT0iMTIwIiBmaWxsPSIjRjFGMUYxIiBoZWlnaHQ9IjE2Ny44NzUiIGlkPSJSZXZpZXciIHJ4PSIyLjUiIHJ5PSIyLjUiIHN0eWxlPSJzdHJva2U6IzE4MTgxODtzdHJva2Utd2lkdGg6MC41OyIgd2lkdGg9IjIxOCIgeD0iMTk5OCIgeT0iNTc1LjUiLz48ZWxsaXBzZSBjeD0iMjA4MS4yNSIgY3k9IjU5MS41IiBmaWxsPSIjQUREMUIyIiByeD0iMTEiIHJ5PSIxMSIgc3R5bGU9InN0cm9rZTojMTgxODE4O3N0cm9rZS13aWR0aDoxLjA7Ii8+PHBhdGggZD0iTTIwNzguODc1LDU5NS43NSBMMjA3OC44NzUsNTk3LjUgTDIwODMuODEyNSw1OTcuNSBMMjA4My44MTI1LDU5NS43NSBMMjA3OC44NzUsNTk1Ljc1IFogTTIwNzkuNTYyNSw1OTYuNDM3NSBRMjA3OS41NjI1LDU5Ni40Mzc1IDIwNzkuNTYyNSw1ODcuMjUgTDIwNzcuODEyNSw1ODcuMjUgUTIwNzcuODEyNSw1ODcuMjUgMjA3Ny44MTI1LDU5Ni40Mzc1IEwyMDc5LjU2MjUsNTk2LjQzNzUgWiBNMjA4My4xMjUsNTk2LjQzNzUgTDIwODQuODc1LDU5Ni40Mzc1IFEyMDg0Ljg3NSw1OTYuNDM3NSAyMDg0Ljg3NSw1OTMuNjI1IEwyMDgzLjEyNSw1OTMuNjI1IFEyMDgzLjEyNSw1OTMuNjI1IDIwODMuMTI1LDU5Ni40Mzc1IFogTTIwODMuMTI1LDU4Ny4yNSBRMjA4My4xMjUsNTg3LjI1IDIwODMuMTI1LDU5MC4wNjI1IEwyMDg0Ljg3NSw1OTAuMDYyNSBRMjA4NC44NzUsNTkwLjA2MjUgMjA4NC44NzUsNTg3LjI1IEwyMDgzLjEyNSw1ODcuMjUgWiBNMjA3OC44NzUsNTg3LjkzNzUgTDIwODMuODEyNSw1ODcuOTM3NSBMMjA4My44MTI1LDU4Ni4xODc1IEwyMDc4Ljg3NSw1ODYuMTg3NSBMMjA3OC44NzUsNTg3LjkzNzUgWiAiIGZpbGw9IiMwMDAwMDAiLz48dGV4dCBmaWxsPSIjMDAwMDAwIiBmb250LWZhbWlseT0ic2Fucy1zZXJpZiIgZm9udC1zaXplPSIxNCIgbGVuZ3RoQWRqdXN0PSJzcGFjaW5nIiB0ZXh0TGVuZ3RoPSI0MyIgeD0iMjEwMS43NSIgeT0iNTk3LjI0MjIiPlJldmlldzwvdGV4dD48bGluZSBzdHlsZT0ic3Ryb2tlOiMxODE4MTg7c3Ryb2tlLXdpZHRoOjAuNTsiIHgxPSIxOTk5IiB4Mj0iMjIxNSIgeTE9IjYwNy41IiB5Mj0iNjA3LjUiLz48cmVjdCBmaWxsPSJub25lIiBoZWlnaHQ9IjYiIHN0eWxlPSJzdHJva2U6I0M4MjkzMDtzdHJva2Utd2lkdGg6MS4wOyIgd2lkdGg9IjYiIHg9IjIwMDYiIHk9IjYxNy40OTIyIi8+PHRleHQgZmlsbD0iIzAwMDAwMCIgZm9udC1mYW1pbHk9InNhbnMtc2VyaWYiIGZvbnQtc2l6ZT0iMTQiIGxlbmd0aEFkanVzdD0ic3BhY2luZyIgdGV4dExlbmd0aD0iNDkiIHg9IjIwMTgiIHk9IjYyNC43MzQ0Ij5pZDogaW50PC90ZXh0PjxyZWN0IGZpbGw9Im5vbmUiIGhlaWdodD0iNiIgc3R5bGU9InN0cm9rZTojQzgyOTMwO3N0cm9rZS13aWR0aDoxLjA7IiB3aWR0aD0iNiIgeD0iMjAwNiIgeT0iNjMyLjQ3NjYiLz48dGV4dCBmaWxsPSIjMDAwMDAwIiBmb250LWZhbWlseT0ic2Fucy1zZXJpZiIgZm9udC1zaXplPSIxNCIgbGVuZ3RoQWRqdXN0PSJzcGFjaW5nIiB0ZXh0TGVuZ3RoPSI4NCIgeD0iMjAxOCIgeT0iNjM5LjcxODgiPmNvbnRlbnQ6IHN0cjwvdGV4dD48cmVjdCBmaWxsPSJub25lIiBoZWlnaHQ9IjYiIHN0eWxlPSJzdHJva2U6I0M4MjkzMDtzdHJva2Utd2lkdGg6MS4wOyIgd2lkdGg9IjYiIHg9IjIwMDYiIHk9IjY0Ny40NjA5Ii8+PHRleHQgZmlsbD0iIzAwMDAwMCIgZm9udC1mYW1pbHk9InNhbnMtc2VyaWYiIGZvbnQtc2l6ZT0iMTQiIGxlbmd0aEFkanVzdD0ic3BhY2luZyIgdGV4dExlbmd0aD0iNzciIHg9IjIwMTgiIHk9IjY1NC43MDMxIj5yYXRpbmc6IGludDwvdGV4dD48cmVjdCBmaWxsPSJub25lIiBoZWlnaHQ9IjYiIHN0eWxlPSJzdHJva2U6I0M4MjkzMDtzdHJva2Utd2lkdGg6MS4wOyIgd2lkdGg9IjYiIHg9IjIwMDYiIHk9IjY2Mi40NDUzIi8+PHRleHQgZmlsbD0iIzAwMDAwMCIgZm9udC1mYW1pbHk9InNhbnMtc2VyaWYiIGZvbnQtc2l6ZT0iMTQiIGxlbmd0aEFkanVzdD0ic3BhY2luZyIgdGV4dExlbmd0aD0iNzAiIHg9IjIwMTgiIHk9IjY2OS42ODc1Ij51c2VyOiBVc2VyPC90ZXh0PjxyZWN0IGZpbGw9Im5vbmUiIGhlaWdodD0iNiIgc3R5bGU9InN0cm9rZTojQzgyOTMwO3N0cm9rZS13aWR0aDoxLjA7IiB3aWR0aD0iNiIgeD0iMjAwNiIgeT0iNjc3LjQyOTciLz48dGV4dCBmaWxsPSIjMDAwMDAwIiBmb250LWZhbWlseT0ic2Fucy1zZXJpZiIgZm9udC1zaXplPSIxNCIgbGVuZ3RoQWRqdXN0PSJzcGFjaW5nIiB0ZXh0TGVuZ3RoPSIxNTQiIHg9IjIwMTgiIHk9IjY4NC42NzE5Ij5pbnRlcm5zaGlwOiBJbnRlcm5zaGlwPC90ZXh0PjxsaW5lIHN0eWxlPSJzdHJva2U6IzE4MTgxODtzdHJva2Utd2lkdGg6MC41OyIgeDE9IjE5OTkiIHgyPSIyMjE1IiB5MT0iNjkwLjQyMTkiIHkyPSI2OTAuNDIxOSIvPjxlbGxpcHNlIGN4PSIyMDA5IiBjeT0iNzAzLjQxNDEiIGZpbGw9IiM4NEJFODQiIHJ4PSIzIiByeT0iMyIgc3R5bGU9InN0cm9rZTojMDM4MDQ4O3N0cm9rZS13aWR0aDoxLjA7Ii8+PHRleHQgZmlsbD0iIzAwMDAwMCIgZm9udC1mYW1pbHk9InNhbnMtc2VyaWYiIGZvbnQtc2l6ZT0iMTQiIGxlbmd0aEFkanVzdD0ic3BhY2luZyIgdGV4dExlbmd0aD0iOTUiIHg9IjIwMTgiIHk9IjcwNy42NTYzIj52aWV3X3JldmlldygpPC90ZXh0PjxlbGxpcHNlIGN4PSIyMDA5IiBjeT0iNzE4LjM5ODQiIGZpbGw9IiM4NEJFODQiIHJ4PSIzIiByeT0iMyIgc3R5bGU9InN0cm9rZTojMDM4MDQ4O3N0cm9rZS13aWR0aDoxLjA7Ii8+PHRleHQgZmlsbD0iIzAwMDAwMCIgZm9udC1mYW1pbHk9InNhbnMtc2VyaWYiIGZvbnQtc2l6ZT0iMTQiIGxlbmd0aEFkanVzdD0ic3BhY2luZyIgdGV4dExlbmd0aD0iMTkyIiB4PSIyMDE4IiB5PSI3MjIuNjQwNiI+ZWRpdF9yZXZpZXcodXBkYXRlZF9maWVsZHMpPC90ZXh0PjxlbGxpcHNlIGN4PSIyMDA5IiBjeT0iNzMzLjM4MjgiIGZpbGw9IiM4NEJFODQiIHJ4PSIzIiByeT0iMyIgc3R5bGU9InN0cm9rZTojMDM4MDQ4O3N0cm9rZS13aWR0aDoxLjA7Ii8+PHRleHQgZmlsbD0iIzAwMDAwMCIgZm9udC1mYW1pbHk9InNhbnMtc2VyaWYiIGZvbnQtc2l6ZT0iMTQiIGxlbmd0aEFkanVzdD0ic3BhY2luZyIgdGV4dExlbmd0aD0iMTA4IiB4PSIyMDE4IiB5PSI3MzcuNjI1Ij5kZWxldGVfcmV2aWV3KCk8L3RleHQ+PC9nPjwhLS1jbGFzcyBDb21wYW55LS0+PGcgaWQ9ImVsZW1fQ29tcGFueSI+PHJlY3QgY29kZUxpbmU9IjEzMiIgZmlsbD0iI0YxRjFGMSIgaGVpZ2h0PSIxNjcuODc1IiBpZD0iQ29tcGFueSIgcng9IjIuNSIgcnk9IjIuNSIgc3R5bGU9InN0cm9rZTojMTgxODE4O3N0cm9rZS13aWR0aDowLjU7IiB3aWR0aD0iMjI5IiB4PSIyMTczLjUiIHk9IjI0Mi41Ii8+PGVsbGlwc2UgY3g9IjIyNTguNzUiIGN5PSIyNTguNSIgZmlsbD0iI0FERDFCMiIgcng9IjExIiByeT0iMTEiIHN0eWxlPSJzdHJva2U6IzE4MTgxODtzdHJva2Utd2lkdGg6MS4wOyIvPjxwYXRoIGQ9Ik0yMjU2LjM3NSwyNjIuNzUgTDIyNTYuMzc1LDI2NC41IEwyMjYxLjMxMjUsMjY0LjUgTDIyNjEuMzEyNSwyNjIuNzUgTDIyNTYuMzc1LDI2Mi43NSBaIE0yMjU3LjA2MjUsMjYzLjQzNzUgUTIyNTcuMDYyNSwyNjMuNDM3NSAyMjU3LjA2MjUsMjU0LjI1IEwyMjU1LjMxMjUsMjU0LjI1IFEyMjU1LjMxMjUsMjU0LjI1IDIyNTUuMzEyNSwyNjMuNDM3NSBMMjI1Ny4wNjI1LDI2My40Mzc1IFogTTIyNjAuNjI1LDI2My40Mzc1IEwyMjYyLjM3NSwyNjMuNDM3NSBRMjI2Mi4zNzUsMjYzLjQzNzUgMjI2Mi4zNzUsMjYwLjYyNSBMMjI2MC42MjUsMjYwLjYyNSBRMjI2MC42MjUsMjYwLjYyNSAyMjYwLjYyNSwyNjMuNDM3NSBaIE0yMjYwLjYyNSwyNTQuMjUgUTIyNjAuNjI1LDI1NC4yNSAyMjYwLjYyNSwyNTcuMDYyNSBMMjI2Mi4zNzUsMjU3LjA2MjUgUTIyNjIuMzc1LDI1Ny4wNjI1IDIyNjIuMzc1LDI1NC4yNSBMMjI2MC42MjUsMjU0LjI1IFogTTIyNTYuMzc1LDI1NC45Mzc1IEwyMjYxLjMxMjUsMjU0LjkzNzUgTDIyNjEuMzEyNSwyNTMuMTg3NSBMMjI1Ni4zNzUsMjUzLjE4NzUgTDIyNTYuMzc1LDI1NC45Mzc1IFogIiBmaWxsPSIjMDAwMDAwIi8+PHRleHQgZmlsbD0iIzAwMDAwMCIgZm9udC1mYW1pbHk9InNhbnMtc2VyaWYiIGZvbnQtc2l6ZT0iMTQiIGxlbmd0aEFkanVzdD0ic3BhY2luZyIgdGV4dExlbmd0aD0iNTAiIHg9IjIyNzkuMjUiIHk9IjI2NC4yNDIyIj5Db21wYW55PC90ZXh0PjxsaW5lIHN0eWxlPSJzdHJva2U6IzE4MTgxODtzdHJva2Utd2lkdGg6MC41OyIgeDE9IjIxNzQuNSIgeDI9IjI0MDEuNSIgeTE9IjI3NC41IiB5Mj0iMjc0LjUiLz48cmVjdCBmaWxsPSJub25lIiBoZWlnaHQ9IjYiIHN0eWxlPSJzdHJva2U6I0M4MjkzMDtzdHJva2Utd2lkdGg6MS4wOyIgd2lkdGg9IjYiIHg9IjIxODEuNSIgeT0iMjg0LjQ5MjIiLz48dGV4dCBmaWxsPSIjMDAwMDAwIiBmb250LWZhbWlseT0ic2Fucy1zZXJpZiIgZm9udC1zaXplPSIxNCIgbGVuZ3RoQWRqdXN0PSJzcGFjaW5nIiB0ZXh0TGVuZ3RoPSI0OSIgeD0iMjE5My41IiB5PSIyOTEuNzM0NCI+aWQ6IGludDwvdGV4dD48cmVjdCBmaWxsPSJub25lIiBoZWlnaHQ9IjYiIHN0eWxlPSJzdHJva2U6I0M4MjkzMDtzdHJva2Utd2lkdGg6MS4wOyIgd2lkdGg9IjYiIHg9IjIxODEuNSIgeT0iMjk5LjQ3NjYiLz48dGV4dCBmaWxsPSIjMDAwMDAwIiBmb250LWZhbWlseT0ic2Fucy1zZXJpZiIgZm9udC1zaXplPSIxNCIgbGVuZ3RoQWRqdXN0PSJzcGFjaW5nIiB0ZXh0TGVuZ3RoPSI2NCIgeD0iMjE5My41IiB5PSIzMDYuNzE4OCI+bmFtZTogc3RyPC90ZXh0PjxyZWN0IGZpbGw9Im5vbmUiIGhlaWdodD0iNiIgc3R5bGU9InN0cm9rZTojQzgyOTMwO3N0cm9rZS13aWR0aDoxLjA7IiB3aWR0aD0iNiIgeD0iMjE4MS41IiB5PSIzMTQuNDYwOSIvPjx0ZXh0IGZpbGw9IiMwMDAwMDAiIGZvbnQtZmFtaWx5PSJzYW5zLXNlcmlmIiBmb250LXNpemU9IjE0IiBsZW5ndGhBZGp1c3Q9InNwYWNpbmciIHRleHRMZW5ndGg9IjExMiIgeD0iMjE5My41IiB5PSIzMjEuNzAzMSI+ZGVzY3JpcHRpb246IHN0cjwvdGV4dD48cmVjdCBmaWxsPSJub25lIiBoZWlnaHQ9IjYiIHN0eWxlPSJzdHJva2U6I0M4MjkzMDtzdHJva2Utd2lkdGg6MS4wOyIgd2lkdGg9IjYiIHg9IjIxODEuNSIgeT0iMzI5LjQ0NTMiLz48dGV4dCBmaWxsPSIjMDAwMDAwIiBmb250LWZhbWlseT0ic2Fucy1zZXJpZiIgZm9udC1zaXplPSIxNCIgbGVuZ3RoQWRqdXN0PSJzcGFjaW5nIiB0ZXh0TGVuZ3RoPSI4NSIgeD0iMjE5My41IiB5PSIzMzYuNjg3NSI+d2Vic2l0ZTogc3RyPC90ZXh0PjxyZWN0IGZpbGw9Im5vbmUiIGhlaWdodD0iNiIgc3R5bGU9InN0cm9rZTojQzgyOTMwO3N0cm9rZS13aWR0aDoxLjA7IiB3aWR0aD0iNiIgeD0iMjE4MS41IiB5PSIzNDQuNDI5NyIvPjx0ZXh0IGZpbGw9IiMwMDAwMDAiIGZvbnQtZmFtaWx5PSJzYW5zLXNlcmlmIiBmb250LXNpemU9IjE0IiBsZW5ndGhBZGp1c3Q9InNwYWNpbmciIHRleHRMZW5ndGg9IjIwMyIgeD0iMjE5My41IiB5PSIzNTEuNjcxOSI+aW50ZXJuc2hpcHM6IExpc3RbSW50ZXJuc2hpcF08L3RleHQ+PHJlY3QgZmlsbD0ibm9uZSIgaGVpZ2h0PSI2IiBzdHlsZT0ic3Ryb2tlOiNDODI5MzA7c3Ryb2tlLXdpZHRoOjEuMDsiIHdpZHRoPSI2IiB4PSIyMTgxLjUiIHk9IjM1OS40MTQxIi8+PHRleHQgZmlsbD0iIzAwMDAwMCIgZm9udC1mYW1pbHk9InNhbnMtc2VyaWYiIGZvbnQtc2l6ZT0iMTQiIGxlbmd0aEFkanVzdD0ic3BhY2luZyIgdGV4dExlbmd0aD0iMTQ5IiB4PSIyMTkzLjUiIHk9IjM2Ni42NTYzIj5yZXZpZXdzOiBMaXN0W1Jldmlld108L3RleHQ+PGxpbmUgc3R5bGU9InN0cm9rZTojMTgxODE4O3N0cm9rZS13aWR0aDowLjU7IiB4MT0iMjE3NC41IiB4Mj0iMjQwMS41IiB5MT0iMzcyLjQwNjMiIHkyPSIzNzIuNDA2MyIvPjxlbGxpcHNlIGN4PSIyMTg0LjUiIGN5PSIzODUuMzk4NCIgZmlsbD0iIzg0QkU4NCIgcng9IjMiIHJ5PSIzIiBzdHlsZT0ic3Ryb2tlOiMwMzgwNDg7c3Ryb2tlLXdpZHRoOjEuMDsiLz48dGV4dCBmaWxsPSIjMDAwMDAwIiBmb250LWZhbWlseT0ic2Fucy1zZXJpZiIgZm9udC1zaXplPSIxNCIgbGVuZ3RoQWRqdXN0PSJzcGFjaW5nIiB0ZXh0TGVuZ3RoPSIxMDEiIHg9IjIxOTMuNSIgeT0iMzg5LjY0MDYiPnZpZXdfcHJvZmlsZSgpPC90ZXh0PjxlbGxpcHNlIGN4PSIyMTg0LjUiIGN5PSI0MDAuMzgyOCIgZmlsbD0iIzg0QkU4NCIgcng9IjMiIHJ5PSIzIiBzdHlsZT0ic3Ryb2tlOiMwMzgwNDg7c3Ryb2tlLXdpZHRoOjEuMDsiLz48dGV4dCBmaWxsPSIjMDAwMDAwIiBmb250LWZhbWlseT0ic2Fucy1zZXJpZiIgZm9udC1zaXplPSIxNCIgbGVuZ3RoQWRqdXN0PSJzcGFjaW5nIiB0ZXh0TGVuZ3RoPSIxOTgiIHg9IjIxOTMuNSIgeT0iNDA0LjYyNSI+ZWRpdF9wcm9maWxlKHVwZGF0ZWRfZmllbGRzKTwvdGV4dD48L2c+PCEtLWNsYXNzIE1lc3NhZ2UtLT48ZyBpZD0iZWxlbV9NZXNzYWdlIj48cmVjdCBjb2RlTGluZT0iMTQ0IiBmaWxsPSIjRjFGMUYxIiBoZWlnaHQ9IjE1Mi44OTA2IiBpZD0iTWVzc2FnZSIgcng9IjIuNSIgcnk9IjIuNSIgc3R5bGU9InN0cm9rZTojMTgxODE4O3N0cm9rZS13aWR0aDowLjU7IiB3aWR0aD0iMTYyIiB4PSI2MjQiIHk9IjU4MyIvPjxlbGxpcHNlIGN4PSI2NzYuMjUiIGN5PSI1OTkiIGZpbGw9IiNBREQxQjIiIHJ4PSIxMSIgcnk9IjExIiBzdHlsZT0ic3Ryb2tlOiMxODE4MTg7c3Ryb2tlLXdpZHRoOjEuMDsiLz48cGF0aCBkPSJNNjczLjg3NSw2MDMuMjUgTDY3My44NzUsNjA1IEw2NzguODEyNSw2MDUgTDY3OC44MTI1LDYwMy4yNSBMNjczLjg3NSw2MDMuMjUgWiBNNjc0LjU2MjUsNjAzLjkzNzUgUTY3NC41NjI1LDYwMy45Mzc1IDY3NC41NjI1LDU5NC43NSBMNjcyLjgxMjUsNTk0Ljc1IFE2NzIuODEyNSw1OTQuNzUgNjcyLjgxMjUsNjAzLjkzNzUgTDY3NC41NjI1LDYwMy45Mzc1IFogTTY3OC4xMjUsNjAzLjkzNzUgTDY3OS44NzUsNjAzLjkzNzUgUTY3OS44NzUsNjAzLjkzNzUgNjc5Ljg3NSw2MDEuMTI1IEw2NzguMTI1LDYwMS4xMjUgUTY3OC4xMjUsNjAxLjEyNSA2NzguMTI1LDYwMy45Mzc1IFogTTY3OC4xMjUsNTk0Ljc1IFE2NzguMTI1LDU5NC43NSA2NzguMTI1LDU5Ny41NjI1IEw2NzkuODc1LDU5Ny41NjI1IFE2NzkuODc1LDU5Ny41NjI1IDY3OS44NzUsNTk0Ljc1IEw2NzguMTI1LDU5NC43NSBaIE02NzMuODc1LDU5NS40Mzc1IEw2NzguODEyNSw1OTUuNDM3NSBMNjc4LjgxMjUsNTkzLjY4NzUgTDY3My44NzUsNTkzLjY4NzUgTDY3My44NzUsNTk1LjQzNzUgWiAiIGZpbGw9IiMwMDAwMDAiLz48dGV4dCBmaWxsPSIjMDAwMDAwIiBmb250LWZhbWlseT0ic2Fucy1zZXJpZiIgZm9udC1zaXplPSIxNCIgbGVuZ3RoQWRqdXN0PSJzcGFjaW5nIiB0ZXh0TGVuZ3RoPSI0OSIgeD0iNjk2Ljc1IiB5PSI2MDQuNzQyMiI+TWVzc2FnZTwvdGV4dD48bGluZSBzdHlsZT0ic3Ryb2tlOiMxODE4MTg7c3Ryb2tlLXdpZHRoOjAuNTsiIHgxPSI2MjUiIHgyPSI3ODUiIHkxPSI2MTUiIHkyPSI2MTUiLz48cmVjdCBmaWxsPSJub25lIiBoZWlnaHQ9IjYiIHN0eWxlPSJzdHJva2U6I0M4MjkzMDtzdHJva2Utd2lkdGg6MS4wOyIgd2lkdGg9IjYiIHg9IjYzMiIgeT0iNjI0Ljk5MjIiLz48dGV4dCBmaWxsPSIjMDAwMDAwIiBmb250LWZhbWlseT0ic2Fucy1zZXJpZiIgZm9udC1zaXplPSIxNCIgbGVuZ3RoQWRqdXN0PSJzcGFjaW5nIiB0ZXh0TGVuZ3RoPSI0OSIgeD0iNjQ0IiB5PSI2MzIuMjM0NCI+aWQ6IGludDwvdGV4dD48cmVjdCBmaWxsPSJub25lIiBoZWlnaHQ9IjYiIHN0eWxlPSJzdHJva2U6I0M4MjkzMDtzdHJva2Utd2lkdGg6MS4wOyIgd2lkdGg9IjYiIHg9IjYzMiIgeT0iNjM5Ljk3NjYiLz48dGV4dCBmaWxsPSIjMDAwMDAwIiBmb250LWZhbWlseT0ic2Fucy1zZXJpZiIgZm9udC1zaXplPSIxNCIgbGVuZ3RoQWRqdXN0PSJzcGFjaW5nIiB0ZXh0TGVuZ3RoPSI4NCIgeD0iNjQ0IiB5PSI2NDcuMjE4OCI+c2VuZGVyOiBVc2VyPC90ZXh0PjxyZWN0IGZpbGw9Im5vbmUiIGhlaWdodD0iNiIgc3R5bGU9InN0cm9rZTojQzgyOTMwO3N0cm9rZS13aWR0aDoxLjA7IiB3aWR0aD0iNiIgeD0iNjMyIiB5PSI2NTQuOTYwOSIvPjx0ZXh0IGZpbGw9IiMwMDAwMDAiIGZvbnQtZmFtaWx5PSJzYW5zLXNlcmlmIiBmb250LXNpemU9IjE0IiBsZW5ndGhBZGp1c3Q9InNwYWNpbmciIHRleHRMZW5ndGg9Ijk4IiB4PSI2NDQiIHk9IjY2Mi4yMDMxIj5yZWNlaXZlcjogVXNlcjwvdGV4dD48cmVjdCBmaWxsPSJub25lIiBoZWlnaHQ9IjYiIHN0eWxlPSJzdHJva2U6I0M4MjkzMDtzdHJva2Utd2lkdGg6MS4wOyIgd2lkdGg9IjYiIHg9IjYzMiIgeT0iNjY5Ljk0NTMiLz48dGV4dCBmaWxsPSIjMDAwMDAwIiBmb250LWZhbWlseT0ic2Fucy1zZXJpZiIgZm9udC1zaXplPSIxNCIgbGVuZ3RoQWRqdXN0PSJzcGFjaW5nIiB0ZXh0TGVuZ3RoPSI4NCIgeD0iNjQ0IiB5PSI2NzcuMTg3NSI+Y29udGVudDogc3RyPC90ZXh0PjxyZWN0IGZpbGw9Im5vbmUiIGhlaWdodD0iNiIgc3R5bGU9InN0cm9rZTojQzgyOTMwO3N0cm9rZS13aWR0aDoxLjA7IiB3aWR0aD0iNiIgeD0iNjMyIiB5PSI2ODQuOTI5NyIvPjx0ZXh0IGZpbGw9IiMwMDAwMDAiIGZvbnQtZmFtaWx5PSJzYW5zLXNlcmlmIiBmb250LXNpemU9IjE0IiBsZW5ndGhBZGp1c3Q9InNwYWNpbmciIHRleHRMZW5ndGg9IjEzNiIgeD0iNjQ0IiB5PSI2OTIuMTcxOSI+dGltZXN0YW1wOiBkYXRldGltZTwvdGV4dD48bGluZSBzdHlsZT0ic3Ryb2tlOiMxODE4MTg7c3Ryb2tlLXdpZHRoOjAuNTsiIHgxPSI2MjUiIHgyPSI3ODUiIHkxPSI2OTcuOTIxOSIgeTI9IjY5Ny45MjE5Ii8+PGVsbGlwc2UgY3g9IjYzNSIgY3k9IjcxMC45MTQxIiBmaWxsPSIjODRCRTg0IiByeD0iMyIgcnk9IjMiIHN0eWxlPSJzdHJva2U6IzAzODA0ODtzdHJva2Utd2lkdGg6MS4wOyIvPjx0ZXh0IGZpbGw9IiMwMDAwMDAiIGZvbnQtZmFtaWx5PSJzYW5zLXNlcmlmIiBmb250LXNpemU9IjE0IiBsZW5ndGhBZGp1c3Q9InNwYWNpbmciIHRleHRMZW5ndGg9IjEwMiIgeD0iNjQ0IiB5PSI3MTUuMTU2MyI+dmlld19tZXNzYWdlKCk8L3RleHQ+PGVsbGlwc2UgY3g9IjYzNSIgY3k9IjcyNS44OTg0IiBmaWxsPSIjODRCRTg0IiByeD0iMyIgcnk9IjMiIHN0eWxlPSJzdHJva2U6IzAzODA0ODtzdHJva2Utd2lkdGg6MS4wOyIvPjx0ZXh0IGZpbGw9IiMwMDAwMDAiIGZvbnQtZmFtaWx5PSJzYW5zLXNlcmlmIiBmb250LXNpemU9IjE0IiBsZW5ndGhBZGp1c3Q9InNwYWNpbmciIHRleHRMZW5ndGg9IjUxIiB4PSI2NDQiIHk9IjczMC4xNDA2Ij5yZXBseSgpPC90ZXh0PjwvZz48IS0tY2xhc3MgQ29udmVyc2F0aW9uLS0+PGcgaWQ9ImVsZW1fQ29udmVyc2F0aW9uIj48cmVjdCBjb2RlTGluZT0iMTU1IiBmaWxsPSIjRjFGMUYxIiBoZWlnaHQ9IjEyMi45MjE5IiBpZD0iQ29udmVyc2F0aW9uIiByeD0iMi41IiByeT0iMi41IiBzdHlsZT0ic3Ryb2tlOiMxODE4MTg7c3Ryb2tlLXdpZHRoOjAuNTsiIHdpZHRoPSIzNTkiIHg9IjUyNS41IiB5PSI5MDEiLz48ZWxsaXBzZSBjeD0iNjU4Ljc1IiBjeT0iOTE3IiBmaWxsPSIjQUREMUIyIiByeD0iMTEiIHJ5PSIxMSIgc3R5bGU9InN0cm9rZTojMTgxODE4O3N0cm9rZS13aWR0aDoxLjA7Ii8+PHBhdGggZD0iTTY1Ni4zNzUsOTIxLjI1IEw2NTYuMzc1LDkyMyBMNjYxLjMxMjUsOTIzIEw2NjEuMzEyNSw5MjEuMjUgTDY1Ni4zNzUsOTIxLjI1IFogTTY1Ny4wNjI1LDkyMS45Mzc1IFE2NTcuMDYyNSw5MjEuOTM3NSA2NTcuMDYyNSw5MTIuNzUgTDY1NS4zMTI1LDkxMi43NSBRNjU1LjMxMjUsOTEyLjc1IDY1NS4zMTI1LDkyMS45Mzc1IEw2NTcuMDYyNSw5MjEuOTM3NSBaIE02NjAuNjI1LDkyMS45Mzc1IEw2NjIuMzc1LDkyMS45Mzc1IFE2NjIuMzc1LDkyMS45Mzc1IDY2Mi4zNzUsOTE5LjEyNSBMNjYwLjYyNSw5MTkuMTI1IFE2NjAuNjI1LDkxOS4xMjUgNjYwLjYyNSw5MjEuOTM3NSBaIE02NjAuNjI1LDkxMi43NSBRNjYwLjYyNSw5MTIuNzUgNjYwLjYyNSw5MTUuNTYyNSBMNjYyLjM3NSw5MTUuNTYyNSBRNjYyLjM3NSw5MTUuNTYyNSA2NjIuMzc1LDkxMi43NSBMNjYwLjYyNSw5MTIuNzUgWiBNNjU2LjM3NSw5MTMuNDM3NSBMNjYxLjMxMjUsOTEzLjQzNzUgTDY2MS4zMTI1LDkxMS42ODc1IEw2NTYuMzc1LDkxMS42ODc1IEw2NTYuMzc1LDkxMy40Mzc1IFogIiBmaWxsPSIjMDAwMDAwIi8+PHRleHQgZmlsbD0iIzAwMDAwMCIgZm9udC1mYW1pbHk9InNhbnMtc2VyaWYiIGZvbnQtc2l6ZT0iMTQiIGxlbmd0aEFkanVzdD0ic3BhY2luZyIgdGV4dExlbmd0aD0iODQiIHg9IjY3OS4yNSIgeT0iOTIyLjc0MjIiPkNvbnZlcnNhdGlvbjwvdGV4dD48bGluZSBzdHlsZT0ic3Ryb2tlOiMxODE4MTg7c3Ryb2tlLXdpZHRoOjAuNTsiIHgxPSI1MjYuNSIgeDI9Ijg4My41IiB5MT0iOTMzIiB5Mj0iOTMzIi8+PHJlY3QgZmlsbD0ibm9uZSIgaGVpZ2h0PSI2IiBzdHlsZT0ic3Ryb2tlOiNDODI5MzA7c3Ryb2tlLXdpZHRoOjEuMDsiIHdpZHRoPSI2IiB4PSI1MzMuNSIgeT0iOTQyLjk5MjIiLz48dGV4dCBmaWxsPSIjMDAwMDAwIiBmb250LWZhbWlseT0ic2Fucy1zZXJpZiIgZm9udC1zaXplPSIxNCIgbGVuZ3RoQWRqdXN0PSJzcGFjaW5nIiB0ZXh0TGVuZ3RoPSI0OSIgeD0iNTQ1LjUiIHk9Ijk1MC4yMzQ0Ij5pZDogaW50PC90ZXh0PjxyZWN0IGZpbGw9Im5vbmUiIGhlaWdodD0iNiIgc3R5bGU9InN0cm9rZTojQzgyOTMwO3N0cm9rZS13aWR0aDoxLjA7IiB3aWR0aD0iNiIgeD0iNTMzLjUiIHk9Ijk1Ny45NzY2Ii8+PHRleHQgZmlsbD0iIzAwMDAwMCIgZm9udC1mYW1pbHk9InNhbnMtc2VyaWYiIGZvbnQtc2l6ZT0iMTQiIGxlbmd0aEFkanVzdD0ic3BhY2luZyIgdGV4dExlbmd0aD0iMTE5IiB4PSI1NDUuNSIgeT0iOTY1LjIxODgiPnVzZXJzOiBMaXN0W1VzZXJdPC90ZXh0PjxyZWN0IGZpbGw9Im5vbmUiIGhlaWdodD0iNiIgc3R5bGU9InN0cm9rZTojQzgyOTMwO3N0cm9rZS13aWR0aDoxLjA7IiB3aWR0aD0iNiIgeD0iNTMzLjUiIHk9Ijk3Mi45NjA5Ii8+PHRleHQgZmlsbD0iIzAwMDAwMCIgZm9udC1mYW1pbHk9InNhbnMtc2VyaWYiIGZvbnQtc2l6ZT0iMTQiIGxlbmd0aEFkanVzdD0ic3BhY2luZyIgdGV4dExlbmd0aD0iMTYyIiB4PSI1NDUuNSIgeT0iOTgwLjIwMzEiPm1lc3NhZ2VzOiBMaXN0W01lc3NhZ2VdPC90ZXh0PjxsaW5lIHN0eWxlPSJzdHJva2U6IzE4MTgxODtzdHJva2Utd2lkdGg6MC41OyIgeDE9IjUyNi41IiB4Mj0iODgzLjUiIHkxPSI5ODUuOTUzMSIgeTI9Ijk4NS45NTMxIi8+PGVsbGlwc2UgY3g9IjUzNi41IiBjeT0iOTk4Ljk0NTMiIGZpbGw9IiM4NEJFODQiIHJ4PSIzIiByeT0iMyIgc3R5bGU9InN0cm9rZTojMDM4MDQ4O3N0cm9rZS13aWR0aDoxLjA7Ii8+PHRleHQgZmlsbD0iIzAwMDAwMCIgZm9udC1mYW1pbHk9InNhbnMtc2VyaWYiIGZvbnQtc2l6ZT0iMTQiIGxlbmd0aEFkanVzdD0ic3BhY2luZyIgdGV4dExlbmd0aD0iMTM2IiB4PSI1NDUuNSIgeT0iMTAwMy4xODc1Ij52aWV3X2NvbnZlcnNhdGlvbigpPC90ZXh0PjxlbGxpcHNlIGN4PSI1MzYuNSIgY3k9IjEwMTMuOTI5NyIgZmlsbD0iIzg0QkU4NCIgcng9IjMiIHJ5PSIzIiBzdHlsZT0ic3Ryb2tlOiMwMzgwNDg7c3Ryb2tlLXdpZHRoOjEuMDsiLz48dGV4dCBmaWxsPSIjMDAwMDAwIiBmb250LWZhbWlseT0ic2Fucy1zZXJpZiIgZm9udC1zaXplPSIxNCIgbGVuZ3RoQWRqdXN0PSJzcGFjaW5nIiB0ZXh0TGVuZ3RoPSIzMzMiIHg9IjU0NS41IiB5PSIxMDE4LjE3MTkiPnNlbmRfbWVzc2FnZShzZW5kZXIsIHJlY2VpdmVyLCBtZXNzYWdlX2NvbnRlbnQpPC90ZXh0PjwvZz48IS0tY2xhc3MgRXZlbnQtLT48ZyBpZD0iZWxlbV9FdmVudCI+PHJlY3QgY29kZUxpbmU9IjE2NCIgZmlsbD0iI0YxRjFGMSIgaGVpZ2h0PSIyMTIuODI4MSIgaWQ9IkV2ZW50IiByeD0iMi41IiByeT0iMi41IiBzdHlsZT0ic3Ryb2tlOiMxODE4MTg7c3Ryb2tlLXdpZHRoOjAuNTsiIHdpZHRoPSIyMTAiIHg9IjciIHk9Ijg1NiIvPjxlbGxpcHNlIGN4PSI5MC4yNSIgY3k9Ijg3MiIgZmlsbD0iI0FERDFCMiIgcng9IjExIiByeT0iMTEiIHN0eWxlPSJzdHJva2U6IzE4MTgxODtzdHJva2Utd2lkdGg6MS4wOyIvPjxwYXRoIGQ9Ik04Ny44NzUsODc2LjI1IEw4Ny44NzUsODc4IEw5Mi44MTI1LDg3OCBMOTIuODEyNSw4NzYuMjUgTDg3Ljg3NSw4NzYuMjUgWiBNODguNTYyNSw4NzYuOTM3NSBRODguNTYyNSw4NzYuOTM3NSA4OC41NjI1LDg2Ny43NSBMODYuODEyNSw4NjcuNzUgUTg2LjgxMjUsODY3Ljc1IDg2LjgxMjUsODc2LjkzNzUgTDg4LjU2MjUsODc2LjkzNzUgWiBNOTIuMTI1LDg3Ni45Mzc1IEw5My44NzUsODc2LjkzNzUgUTkzLjg3NSw4NzYuOTM3NSA5My44NzUsODc0LjEyNSBMOTIuMTI1LDg3NC4xMjUgUTkyLjEyNSw4NzQuMTI1IDkyLjEyNSw4NzYuOTM3NSBaIE05Mi4xMjUsODY3Ljc1IFE5Mi4xMjUsODY3Ljc1IDkyLjEyNSw4NzAuNTYyNSBMOTMuODc1LDg3MC41NjI1IFE5My44NzUsODcwLjU2MjUgOTMuODc1LDg2Ny43NSBMOTIuMTI1LDg2Ny43NSBaIE04Ny44NzUsODY4LjQzNzUgTDkyLjgxMjUsODY4LjQzNzUgTDkyLjgxMjUsODY2LjY4NzUgTDg3Ljg3NSw4NjYuNjg3NSBMODcuODc1LDg2OC40Mzc1IFogIiBmaWxsPSIjMDAwMDAwIi8+PHRleHQgZmlsbD0iIzAwMDAwMCIgZm9udC1mYW1pbHk9InNhbnMtc2VyaWYiIGZvbnQtc2l6ZT0iMTQiIGxlbmd0aEFkanVzdD0ic3BhY2luZyIgdGV4dExlbmd0aD0iMzUiIHg9IjExMC43NSIgeT0iODc3Ljc0MjIiPkV2ZW50PC90ZXh0PjxsaW5lIHN0eWxlPSJzdHJva2U6IzE4MTgxODtzdHJva2Utd2lkdGg6MC41OyIgeDE9IjgiIHgyPSIyMTYiIHkxPSI4ODgiIHkyPSI4ODgiLz48cmVjdCBmaWxsPSJub25lIiBoZWlnaHQ9IjYiIHN0eWxlPSJzdHJva2U6I0M4MjkzMDtzdHJva2Utd2lkdGg6MS4wOyIgd2lkdGg9IjYiIHg9IjE1IiB5PSI4OTcuOTkyMiIvPjx0ZXh0IGZpbGw9IiMwMDAwMDAiIGZvbnQtZmFtaWx5PSJzYW5zLXNlcmlmIiBmb250LXNpemU9IjE0IiBsZW5ndGhBZGp1c3Q9InNwYWNpbmciIHRleHRMZW5ndGg9IjQ5IiB4PSIyNyIgeT0iOTA1LjIzNDQiPmlkOiBpbnQ8L3RleHQ+PHJlY3QgZmlsbD0ibm9uZSIgaGVpZ2h0PSI2IiBzdHlsZT0ic3Ryb2tlOiNDODI5MzA7c3Ryb2tlLXdpZHRoOjEuMDsiIHdpZHRoPSI2IiB4PSIxNSIgeT0iOTEyLjk3NjYiLz48dGV4dCBmaWxsPSIjMDAwMDAwIiBmb250LWZhbWlseT0ic2Fucy1zZXJpZiIgZm9udC1zaXplPSIxNCIgbGVuZ3RoQWRqdXN0PSJzcGFjaW5nIiB0ZXh0TGVuZ3RoPSI2NCIgeD0iMjciIHk9IjkyMC4yMTg4Ij5uYW1lOiBzdHI8L3RleHQ+PHJlY3QgZmlsbD0ibm9uZSIgaGVpZ2h0PSI2IiBzdHlsZT0ic3Ryb2tlOiNDODI5MzA7c3Ryb2tlLXdpZHRoOjEuMDsiIHdpZHRoPSI2IiB4PSIxNSIgeT0iOTI3Ljk2MDkiLz48dGV4dCBmaWxsPSIjMDAwMDAwIiBmb250LWZhbWlseT0ic2Fucy1zZXJpZiIgZm9udC1zaXplPSIxNCIgbGVuZ3RoQWRqdXN0PSJzcGFjaW5nIiB0ZXh0TGVuZ3RoPSIxMTIiIHg9IjI3IiB5PSI5MzUuMjAzMSI+ZGVzY3JpcHRpb246IHN0cjwvdGV4dD48cmVjdCBmaWxsPSJub25lIiBoZWlnaHQ9IjYiIHN0eWxlPSJzdHJva2U6I0M4MjkzMDtzdHJva2Utd2lkdGg6MS4wOyIgd2lkdGg9IjYiIHg9IjE1IiB5PSI5NDIuOTQ1MyIvPjx0ZXh0IGZpbGw9IiMwMDAwMDAiIGZvbnQtZmFtaWx5PSJzYW5zLXNlcmlmIiBmb250LXNpemU9IjE0IiBsZW5ndGhBZGp1c3Q9InNwYWNpbmciIHRleHRMZW5ndGg9IjkxIiB4PSIyNyIgeT0iOTUwLjE4NzUiPmxvY2F0aW9uOiBzdHI8L3RleHQ+PHJlY3QgZmlsbD0ibm9uZSIgaGVpZ2h0PSI2IiBzdHlsZT0ic3Ryb2tlOiNDODI5MzA7c3Ryb2tlLXdpZHRoOjEuMDsiIHdpZHRoPSI2IiB4PSIxNSIgeT0iOTU3LjkyOTciLz48dGV4dCBmaWxsPSIjMDAwMDAwIiBmb250LWZhbWlseT0ic2Fucy1zZXJpZiIgZm9udC1zaXplPSIxNCIgbGVuZ3RoQWRqdXN0PSJzcGFjaW5nIiB0ZXh0TGVuZ3RoPSIxNDIiIHg9IjI3IiB5PSI5NjUuMTcxOSI+c3RhcnRfdGltZTogZGF0ZXRpbWU8L3RleHQ+PHJlY3QgZmlsbD0ibm9uZSIgaGVpZ2h0PSI2IiBzdHlsZT0ic3Ryb2tlOiNDODI5MzA7c3Ryb2tlLXdpZHRoOjEuMDsiIHdpZHRoPSI2IiB4PSIxNSIgeT0iOTcyLjkxNDEiLz48dGV4dCBmaWxsPSIjMDAwMDAwIiBmb250LWZhbWlseT0ic2Fucy1zZXJpZiIgZm9udC1zaXplPSIxNCIgbGVuZ3RoQWRqdXN0PSJzcGFjaW5nIiB0ZXh0TGVuZ3RoPSIxMjgiIHg9IjI3IiB5PSI5ODAuMTU2MyI+ZW5kX3RpbWU6IGRhdGV0aW1lPC90ZXh0PjxyZWN0IGZpbGw9Im5vbmUiIGhlaWdodD0iNiIgc3R5bGU9InN0cm9rZTojQzgyOTMwO3N0cm9rZS13aWR0aDoxLjA7IiB3aWR0aD0iNiIgeD0iMTUiIHk9Ijk4Ny44OTg0Ii8+PHRleHQgZmlsbD0iIzAwMDAwMCIgZm9udC1mYW1pbHk9InNhbnMtc2VyaWYiIGZvbnQtc2l6ZT0iMTQiIGxlbmd0aEFkanVzdD0ic3BhY2luZyIgdGV4dExlbmd0aD0iMTA1IiB4PSIyNyIgeT0iOTk1LjE0MDYiPm9yZ2FuaXplcjogVXNlcjwvdGV4dD48cmVjdCBmaWxsPSJub25lIiBoZWlnaHQ9IjYiIHN0eWxlPSJzdHJva2U6I0M4MjkzMDtzdHJva2Utd2lkdGg6MS4wOyIgd2lkdGg9IjYiIHg9IjE1IiB5PSIxMDAyLjg4MjgiLz48dGV4dCBmaWxsPSIjMDAwMDAwIiBmb250LWZhbWlseT0ic2Fucy1zZXJpZiIgZm9udC1zaXplPSIxNCIgbGVuZ3RoQWRqdXN0PSJzcGFjaW5nIiB0ZXh0TGVuZ3RoPSIxNDciIHg9IjI3IiB5PSIxMDEwLjEyNSI+YXR0ZW5kZWVzOiBMaXN0W1VzZXJdPC90ZXh0PjxsaW5lIHN0eWxlPSJzdHJva2U6IzE4MTgxODtzdHJva2Utd2lkdGg6MC41OyIgeDE9IjgiIHgyPSIyMTYiIHkxPSIxMDE1Ljg3NSIgeTI9IjEwMTUuODc1Ii8+PGVsbGlwc2UgY3g9IjE4IiBjeT0iMTAyOC44NjcyIiBmaWxsPSIjODRCRTg0IiByeD0iMyIgcnk9IjMiIHN0eWxlPSJzdHJva2U6IzAzODA0ODtzdHJva2Utd2lkdGg6MS4wOyIvPjx0ZXh0IGZpbGw9IiMwMDAwMDAiIGZvbnQtZmFtaWx5PSJzYW5zLXNlcmlmIiBmb250LXNpemU9IjE0IiBsZW5ndGhBZGp1c3Q9InNwYWNpbmciIHRleHRMZW5ndGg9Ijg3IiB4PSIyNyIgeT0iMTAzMy4xMDk0Ij52aWV3X2V2ZW50KCk8L3RleHQ+PGVsbGlwc2UgY3g9IjE4IiBjeT0iMTA0My44NTE2IiBmaWxsPSIjODRCRTg0IiByeD0iMyIgcnk9IjMiIHN0eWxlPSJzdHJva2U6IzAzODA0ODtzdHJva2Utd2lkdGg6MS4wOyIvPjx0ZXh0IGZpbGw9IiMwMDAwMDAiIGZvbnQtZmFtaWx5PSJzYW5zLXNlcmlmIiBmb250LXNpemU9IjE0IiBsZW5ndGhBZGp1c3Q9InNwYWNpbmciIHRleHRMZW5ndGg9IjE4NCIgeD0iMjciIHk9IjEwNDguMDkzOCI+ZWRpdF9ldmVudCh1cGRhdGVkX2ZpZWxkcyk8L3RleHQ+PGVsbGlwc2UgY3g9IjE4IiBjeT0iMTA1OC44MzU5IiBmaWxsPSIjODRCRTg0IiByeD0iMyIgcnk9IjMiIHN0eWxlPSJzdHJva2U6IzAzODA0ODtzdHJva2Utd2lkdGg6MS4wOyIvPjx0ZXh0IGZpbGw9IiMwMDAwMDAiIGZvbnQtZmFtaWx5PSJzYW5zLXNlcmlmIiBmb250LXNpemU9IjE0IiBsZW5ndGhBZGp1c3Q9InNwYWNpbmciIHRleHRMZW5ndGg9IjEwMCIgeD0iMjciIHk9IjEwNjMuMDc4MSI+Y2FuY2VsX2V2ZW50KCk8L3RleHQ+PC9nPjwhLS1jbGFzcyBHcm91cC0tPjxnIGlkPSJlbGVtX0dyb3VwIj48cmVjdCBjb2RlTGluZT0iMTc5IiBmaWxsPSIjRjFGMUYxIiBoZWlnaHQ9IjE4Mi44NTk0IiBpZD0iR3JvdXAiIHJ4PSIyLjUiIHJ5PSIyLjUiIHN0eWxlPSJzdHJva2U6IzE4MTgxODtzdHJva2Utd2lkdGg6MC41OyIgd2lkdGg9IjIxMCIgeD0iMTgyIiB5PSI1NjgiLz48ZWxsaXBzZSBjeD0iMjY1LjI1IiBjeT0iNTg0IiBmaWxsPSIjQUREMUIyIiByeD0iMTEiIHJ5PSIxMSIgc3R5bGU9InN0cm9rZTojMTgxODE4O3N0cm9rZS13aWR0aDoxLjA7Ii8+PHBhdGggZD0iTTI2Mi44NzUsNTg4LjI1IEwyNjIuODc1LDU5MCBMMjY3LjgxMjUsNTkwIEwyNjcuODEyNSw1ODguMjUgTDI2Mi44NzUsNTg4LjI1IFogTTI2My41NjI1LDU4OC45Mzc1IFEyNjMuNTYyNSw1ODguOTM3NSAyNjMuNTYyNSw1NzkuNzUgTDI2MS44MTI1LDU3OS43NSBRMjYxLjgxMjUsNTc5Ljc1IDI2MS44MTI1LDU4OC45Mzc1IEwyNjMuNTYyNSw1ODguOTM3NSBaIE0yNjcuMTI1LDU4OC45Mzc1IEwyNjguODc1LDU4OC45Mzc1IFEyNjguODc1LDU4OC45Mzc1IDI2OC44NzUsNTg2LjEyNSBMMjY3LjEyNSw1ODYuMTI1IFEyNjcuMTI1LDU4Ni4xMjUgMjY3LjEyNSw1ODguOTM3NSBaIE0yNjcuMTI1LDU3OS43NSBRMjY3LjEyNSw1NzkuNzUgMjY3LjEyNSw1ODIuNTYyNSBMMjY4Ljg3NSw1ODIuNTYyNSBRMjY4Ljg3NSw1ODIuNTYyNSAyNjguODc1LDU3OS43NSBMMjY3LjEyNSw1NzkuNzUgWiBNMjYyLjg3NSw1ODAuNDM3NSBMMjY3LjgxMjUsNTgwLjQzNzUgTDI2Ny44MTI1LDU3OC42ODc1IEwyNjIuODc1LDU3OC42ODc1IEwyNjIuODc1LDU4MC40Mzc1IFogIiBmaWxsPSIjMDAwMDAwIi8+PHRleHQgZmlsbD0iIzAwMDAwMCIgZm9udC1mYW1pbHk9InNhbnMtc2VyaWYiIGZvbnQtc2l6ZT0iMTQiIGxlbmd0aEFkanVzdD0ic3BhY2luZyIgdGV4dExlbmd0aD0iMzUiIHg9IjI4NS43NSIgeT0iNTg5Ljc0MjIiPkdyb3VwPC90ZXh0PjxsaW5lIHN0eWxlPSJzdHJva2U6IzE4MTgxODtzdHJva2Utd2lkdGg6MC41OyIgeDE9IjE4MyIgeDI9IjM5MSIgeTE9IjYwMCIgeTI9IjYwMCIvPjxyZWN0IGZpbGw9Im5vbmUiIGhlaWdodD0iNiIgc3R5bGU9InN0cm9rZTojQzgyOTMwO3N0cm9rZS13aWR0aDoxLjA7IiB3aWR0aD0iNiIgeD0iMTkwIiB5PSI2MDkuOTkyMiIvPjx0ZXh0IGZpbGw9IiMwMDAwMDAiIGZvbnQtZmFtaWx5PSJzYW5zLXNlcmlmIiBmb250LXNpemU9IjE0IiBsZW5ndGhBZGp1c3Q9InNwYWNpbmciIHRleHRMZW5ndGg9IjQ5IiB4PSIyMDIiIHk9IjYxNy4yMzQ0Ij5pZDogaW50PC90ZXh0PjxyZWN0IGZpbGw9Im5vbmUiIGhlaWdodD0iNiIgc3R5bGU9InN0cm9rZTojQzgyOTMwO3N0cm9rZS13aWR0aDoxLjA7IiB3aWR0aD0iNiIgeD0iMTkwIiB5PSI2MjQuOTc2NiIvPjx0ZXh0IGZpbGw9IiMwMDAwMDAiIGZvbnQtZmFtaWx5PSJzYW5zLXNlcmlmIiBmb250LXNpemU9IjE0IiBsZW5ndGhBZGp1c3Q9InNwYWNpbmciIHRleHRMZW5ndGg9IjY0IiB4PSIyMDIiIHk9IjYzMi4yMTg4Ij5uYW1lOiBzdHI8L3RleHQ+PHJlY3QgZmlsbD0ibm9uZSIgaGVpZ2h0PSI2IiBzdHlsZT0ic3Ryb2tlOiNDODI5MzA7c3Ryb2tlLXdpZHRoOjEuMDsiIHdpZHRoPSI2IiB4PSIxOTAiIHk9IjYzOS45NjA5Ii8+PHRleHQgZmlsbD0iIzAwMDAwMCIgZm9udC1mYW1pbHk9InNhbnMtc2VyaWYiIGZvbnQtc2l6ZT0iMTQiIGxlbmd0aEFkanVzdD0ic3BhY2luZyIgdGV4dExlbmd0aD0iMTEyIiB4PSIyMDIiIHk9IjY0Ny4yMDMxIj5kZXNjcmlwdGlvbjogc3RyPC90ZXh0PjxyZWN0IGZpbGw9Im5vbmUiIGhlaWdodD0iNiIgc3R5bGU9InN0cm9rZTojQzgyOTMwO3N0cm9rZS13aWR0aDoxLjA7IiB3aWR0aD0iNiIgeD0iMTkwIiB5PSI2NTQuOTQ1MyIvPjx0ZXh0IGZpbGw9IiMwMDAwMDAiIGZvbnQtZmFtaWx5PSJzYW5zLXNlcmlmIiBmb250LXNpemU9IjE0IiBsZW5ndGhBZGp1c3Q9InNwYWNpbmciIHRleHRMZW5ndGg9IjEzNSIgeD0iMjAyIiB5PSI2NjIuMTg3NSI+bWVtYmVyczogTGlzdFtVc2VyXTwvdGV4dD48cmVjdCBmaWxsPSJub25lIiBoZWlnaHQ9IjYiIHN0eWxlPSJzdHJva2U6I0M4MjkzMDtzdHJva2Utd2lkdGg6MS4wOyIgd2lkdGg9IjYiIHg9IjE5MCIgeT0iNjY5LjkyOTciLz48dGV4dCBmaWxsPSIjMDAwMDAwIiBmb250LWZhbWlseT0ic2Fucy1zZXJpZiIgZm9udC1zaXplPSIxNCIgbGVuZ3RoQWRqdXN0PSJzcGFjaW5nIiB0ZXh0TGVuZ3RoPSIxMzMiIHg9IjIwMiIgeT0iNjc3LjE3MTkiPmV2ZW50czogTGlzdFtFdmVudF08L3RleHQ+PGxpbmUgc3R5bGU9InN0cm9rZTojMTgxODE4O3N0cm9rZS13aWR0aDowLjU7IiB4MT0iMTgzIiB4Mj0iMzkxIiB5MT0iNjgyLjkyMTkiIHkyPSI2ODIuOTIxOSIvPjxlbGxpcHNlIGN4PSIxOTMiIGN5PSI2OTUuOTE0MSIgZmlsbD0iIzg0QkU4NCIgcng9IjMiIHJ5PSIzIiBzdHlsZT0ic3Ryb2tlOiMwMzgwNDg7c3Ryb2tlLXdpZHRoOjEuMDsiLz48dGV4dCBmaWxsPSIjMDAwMDAwIiBmb250LWZhbWlseT0ic2Fucy1zZXJpZiIgZm9udC1zaXplPSIxNCIgbGVuZ3RoQWRqdXN0PSJzcGFjaW5nIiB0ZXh0TGVuZ3RoPSI4NyIgeD0iMjAyIiB5PSI3MDAuMTU2MyI+dmlld19ncm91cCgpPC90ZXh0PjxlbGxpcHNlIGN4PSIxOTMiIGN5PSI3MTAuODk4NCIgZmlsbD0iIzg0QkU4NCIgcng9IjMiIHJ5PSIzIiBzdHlsZT0ic3Ryb2tlOiMwMzgwNDg7c3Ryb2tlLXdpZHRoOjEuMDsiLz48dGV4dCBmaWxsPSIjMDAwMDAwIiBmb250LWZhbWlseT0ic2Fucy1zZXJpZiIgZm9udC1zaXplPSIxNCIgbGVuZ3RoQWRqdXN0PSJzcGFjaW5nIiB0ZXh0TGVuZ3RoPSIxODQiIHg9IjIwMiIgeT0iNzE1LjE0MDYiPmVkaXRfZ3JvdXAodXBkYXRlZF9maWVsZHMpPC90ZXh0PjxlbGxpcHNlIGN4PSIxOTMiIGN5PSI3MjUuODgyOCIgZmlsbD0iIzg0QkU4NCIgcng9IjMiIHJ5PSIzIiBzdHlsZT0ic3Ryb2tlOiMwMzgwNDg7c3Ryb2tlLXdpZHRoOjEuMDsiLz48dGV4dCBmaWxsPSIjMDAwMDAwIiBmb250LWZhbWlseT0ic2Fucy1zZXJpZiIgZm9udC1zaXplPSIxNCIgbGVuZ3RoQWRqdXN0PSJzcGFjaW5nIiB0ZXh0TGVuZ3RoPSIxMzIiIHg9IjIwMiIgeT0iNzMwLjEyNSI+YWRkX21lbWJlcihtZW1iZXIpPC90ZXh0PjxlbGxpcHNlIGN4PSIxOTMiIGN5PSI3NDAuODY3MiIgZmlsbD0iIzg0QkU4NCIgcng9IjMiIHJ5PSIzIiBzdHlsZT0ic3Ryb2tlOiMwMzgwNDg7c3Ryb2tlLXdpZHRoOjEuMDsiLz48dGV4dCBmaWxsPSIjMDAwMDAwIiBmb250LWZhbWlseT0ic2Fucy1zZXJpZiIgZm9udC1zaXplPSIxNCIgbGVuZ3RoQWRqdXN0PSJzcGFjaW5nIiB0ZXh0TGVuZ3RoPSIxNTQiIHg9IjIwMiIgeT0iNzQ1LjEwOTQiPnJlbW92ZV9tZW1iZXIobWVtYmVyKTwvdGV4dD48L2c+PCEtLWNsYXNzIEJvb2ttYXJrLS0+PGcgaWQ9ImVsZW1fQm9va21hcmsiPjxyZWN0IGNvZGVMaW5lPSIxOTIiIGZpbGw9IiNGMUYxRjEiIGhlaWdodD0iMTIyLjkyMTkiIGlkPSJCb29rbWFyayIgcng9IjIuNSIgcnk9IjIuNSIgc3R5bGU9InN0cm9rZTojMTgxODE4O3N0cm9rZS13aWR0aDowLjU7IiB3aWR0aD0iMTgwIiB4PSI4OTIiIHk9IjU5OCIvPjxlbGxpcHNlIGN4PSI5NDkuMjUiIGN5PSI2MTQiIGZpbGw9IiNBREQxQjIiIHJ4PSIxMSIgcnk9IjExIiBzdHlsZT0ic3Ryb2tlOiMxODE4MTg7c3Ryb2tlLXdpZHRoOjEuMDsiLz48cGF0aCBkPSJNOTQ2Ljg3NSw2MTguMjUgTDk0Ni44NzUsNjIwIEw5NTEuODEyNSw2MjAgTDk1MS44MTI1LDYxOC4yNSBMOTQ2Ljg3NSw2MTguMjUgWiBNOTQ3LjU2MjUsNjE4LjkzNzUgUTk0Ny41NjI1LDYxOC45Mzc1IDk0Ny41NjI1LDYwOS43NSBMOTQ1LjgxMjUsNjA5Ljc1IFE5NDUuODEyNSw2MDkuNzUgOTQ1LjgxMjUsNjE4LjkzNzUgTDk0Ny41NjI1LDYxOC45Mzc1IFogTTk1MS4xMjUsNjE4LjkzNzUgTDk1Mi44NzUsNjE4LjkzNzUgUTk1Mi44NzUsNjE4LjkzNzUgOTUyLjg3NSw2MTYuMTI1IEw5NTEuMTI1LDYxNi4xMjUgUTk1MS4xMjUsNjE2LjEyNSA5NTEuMTI1LDYxOC45Mzc1IFogTTk1MS4xMjUsNjA5Ljc1IFE5NTEuMTI1LDYwOS43NSA5NTEuMTI1LDYxMi41NjI1IEw5NTIuODc1LDYxMi41NjI1IFE5NTIuODc1LDYxMi41NjI1IDk1Mi44NzUsNjA5Ljc1IEw5NTEuMTI1LDYwOS43NSBaIE05NDYuODc1LDYxMC40Mzc1IEw5NTEuODEyNSw2MTAuNDM3NSBMOTUxLjgxMjUsNjA4LjY4NzUgTDk0Ni44NzUsNjA4LjY4NzUgTDk0Ni44NzUsNjEwLjQzNzUgWiAiIGZpbGw9IiMwMDAwMDAiLz48dGV4dCBmaWxsPSIjMDAwMDAwIiBmb250LWZhbWlseT0ic2Fucy1zZXJpZiIgZm9udC1zaXplPSIxNCIgbGVuZ3RoQWRqdXN0PSJzcGFjaW5nIiB0ZXh0TGVuZ3RoPSI1NyIgeD0iOTY5Ljc1IiB5PSI2MTkuNzQyMiI+Qm9va21hcms8L3RleHQ+PGxpbmUgc3R5bGU9InN0cm9rZTojMTgxODE4O3N0cm9rZS13aWR0aDowLjU7IiB4MT0iODkzIiB4Mj0iMTA3MSIgeTE9IjYzMCIgeTI9IjYzMCIvPjxyZWN0IGZpbGw9Im5vbmUiIGhlaWdodD0iNiIgc3R5bGU9InN0cm9rZTojQzgyOTMwO3N0cm9rZS13aWR0aDoxLjA7IiB3aWR0aD0iNiIgeD0iOTAwIiB5PSI2MzkuOTkyMiIvPjx0ZXh0IGZpbGw9IiMwMDAwMDAiIGZvbnQtZmFtaWx5PSJzYW5zLXNlcmlmIiBmb250LXNpemU9IjE0IiBsZW5ndGhBZGp1c3Q9InNwYWNpbmciIHRleHRMZW5ndGg9IjQ5IiB4PSI5MTIiIHk9IjY0Ny4yMzQ0Ij5pZDogaW50PC90ZXh0PjxyZWN0IGZpbGw9Im5vbmUiIGhlaWdodD0iNiIgc3R5bGU9InN0cm9rZTojQzgyOTMwO3N0cm9rZS13aWR0aDoxLjA7IiB3aWR0aD0iNiIgeD0iOTAwIiB5PSI2NTQuOTc2NiIvPjx0ZXh0IGZpbGw9IiMwMDAwMDAiIGZvbnQtZmFtaWx5PSJzYW5zLXNlcmlmIiBmb250LXNpemU9IjE0IiBsZW5ndGhBZGp1c3Q9InNwYWNpbmciIHRleHRMZW5ndGg9IjcwIiB4PSI5MTIiIHk9IjY2Mi4yMTg4Ij51c2VyOiBVc2VyPC90ZXh0PjxyZWN0IGZpbGw9Im5vbmUiIGhlaWdodD0iNiIgc3R5bGU9InN0cm9rZTojQzgyOTMwO3N0cm9rZS13aWR0aDoxLjA7IiB3aWR0aD0iNiIgeD0iOTAwIiB5PSI2NjkuOTYwOSIvPjx0ZXh0IGZpbGw9IiMwMDAwMDAiIGZvbnQtZmFtaWx5PSJzYW5zLXNlcmlmIiBmb250LXNpemU9IjE0IiBsZW5ndGhBZGp1c3Q9InNwYWNpbmciIHRleHRMZW5ndGg9IjE1NCIgeD0iOTEyIiB5PSI2NzcuMjAzMSI+aW50ZXJuc2hpcDogSW50ZXJuc2hpcDwvdGV4dD48bGluZSBzdHlsZT0ic3Ryb2tlOiMxODE4MTg7c3Ryb2tlLXdpZHRoOjAuNTsiIHgxPSI4OTMiIHgyPSIxMDcxIiB5MT0iNjgyLjk1MzEiIHkyPSI2ODIuOTUzMSIvPjxlbGxpcHNlIGN4PSI5MDMiIGN5PSI2OTUuOTQ1MyIgZmlsbD0iIzg0QkU4NCIgcng9IjMiIHJ5PSIzIiBzdHlsZT0ic3Ryb2tlOiMwMzgwNDg7c3Ryb2tlLXdpZHRoOjEuMDsiLz48dGV4dCBmaWxsPSIjMDAwMDAwIiBmb250LWZhbWlseT0ic2Fucy1zZXJpZiIgZm9udC1zaXplPSIxNCIgbGVuZ3RoQWRqdXN0PSJzcGFjaW5nIiB0ZXh0TGVuZ3RoPSIxMDkiIHg9IjkxMiIgeT0iNzAwLjE4NzUiPnZpZXdfYm9va21hcmsoKTwvdGV4dD48ZWxsaXBzZSBjeD0iOTAzIiBjeT0iNzEwLjkyOTciIGZpbGw9IiM4NEJFODQiIHJ4PSIzIiByeT0iMyIgc3R5bGU9InN0cm9rZTojMDM4MDQ4O3N0cm9rZS13aWR0aDoxLjA7Ii8+PHRleHQgZmlsbD0iIzAwMDAwMCIgZm9udC1mYW1pbHk9InNhbnMtc2VyaWYiIGZvbnQtc2l6ZT0iMTQiIGxlbmd0aEFkanVzdD0ic3BhY2luZyIgdGV4dExlbmd0aD0iMTIzIiB4PSI5MTIiIHk9IjcxNS4xNzE5Ij5yZW1vdmVfYm9va21hcmsoKTwvdGV4dD48L2c+PCEtLWNsYXNzIFRhZy0tPjxnIGlkPSJlbGVtX1RhZyI+PHJlY3QgY29kZUxpbmU9IjIwMSIgZmlsbD0iI0YxRjFGMSIgaGVpZ2h0PSIxMjIuOTIxOSIgaWQ9IlRhZyIgcng9IjIuNSIgcnk9IjIuNSIgc3R5bGU9InN0cm9rZTojMTgxODE4O3N0cm9rZS13aWR0aDowLjU7IiB3aWR0aD0iMjM5IiB4PSIyNTI0LjUiIHk9IjkwMSIvPjxlbGxpcHNlIGN4PSIyNjI5LjI1IiBjeT0iOTE3IiBmaWxsPSIjQUREMUIyIiByeD0iMTEiIHJ5PSIxMSIgc3R5bGU9InN0cm9rZTojMTgxODE4O3N0cm9rZS13aWR0aDoxLjA7Ii8+PHBhdGggZD0iTTI2MjYuODc1LDkyMS4yNSBMMjYyNi44NzUsOTIzIEwyNjMxLjgxMjUsOTIzIEwyNjMxLjgxMjUsOTIxLjI1IEwyNjI2Ljg3NSw5MjEuMjUgWiBNMjYyNy41NjI1LDkyMS45Mzc1IFEyNjI3LjU2MjUsOTIxLjkzNzUgMjYyNy41NjI1LDkxMi43NSBMMjYyNS44MTI1LDkxMi43NSBRMjYyNS44MTI1LDkxMi43NSAyNjI1LjgxMjUsOTIxLjkzNzUgTDI2MjcuNTYyNSw5MjEuOTM3NSBaIE0yNjMxLjEyNSw5MjEuOTM3NSBMMjYzMi44NzUsOTIxLjkzNzUgUTI2MzIuODc1LDkyMS45Mzc1IDI2MzIuODc1LDkxOS4xMjUgTDI2MzEuMTI1LDkxOS4xMjUgUTI2MzEuMTI1LDkxOS4xMjUgMjYzMS4xMjUsOTIxLjkzNzUgWiBNMjYzMS4xMjUsOTEyLjc1IFEyNjMxLjEyNSw5MTIuNzUgMjYzMS4xMjUsOTE1LjU2MjUgTDI2MzIuODc1LDkxNS41NjI1IFEyNjMyLjg3NSw5MTUuNTYyNSAyNjMyLjg3NSw5MTIuNzUgTDI2MzEuMTI1LDkxMi43NSBaIE0yNjI2Ljg3NSw5MTMuNDM3NSBMMjYzMS44MTI1LDkxMy40Mzc1IEwyNjMxLjgxMjUsOTExLjY4NzUgTDI2MjYuODc1LDkxMS42ODc1IEwyNjI2Ljg3NSw5MTMuNDM3NSBaICIgZmlsbD0iIzAwMDAwMCIvPjx0ZXh0IGZpbGw9IiMwMDAwMDAiIGZvbnQtZmFtaWx5PSJzYW5zLXNlcmlmIiBmb250LXNpemU9IjE0IiBsZW5ndGhBZGp1c3Q9InNwYWNpbmciIHRleHRMZW5ndGg9IjIxIiB4PSIyNjQ5Ljc1IiB5PSI5MjIuNzQyMiI+VGFnPC90ZXh0PjxsaW5lIHN0eWxlPSJzdHJva2U6IzE4MTgxODtzdHJva2Utd2lkdGg6MC41OyIgeDE9IjI1MjUuNSIgeDI9IjI3NjIuNSIgeTE9IjkzMyIgeTI9IjkzMyIvPjxyZWN0IGZpbGw9Im5vbmUiIGhlaWdodD0iNiIgc3R5bGU9InN0cm9rZTojQzgyOTMwO3N0cm9rZS13aWR0aDoxLjA7IiB3aWR0aD0iNiIgeD0iMjUzMi41IiB5PSI5NDIuOTkyMiIvPjx0ZXh0IGZpbGw9IiMwMDAwMDAiIGZvbnQtZmFtaWx5PSJzYW5zLXNlcmlmIiBmb250LXNpemU9IjE0IiBsZW5ndGhBZGp1c3Q9InNwYWNpbmciIHRleHRMZW5ndGg9IjQ5IiB4PSIyNTQ0LjUiIHk9Ijk1MC4yMzQ0Ij5pZDogaW50PC90ZXh0PjxyZWN0IGZpbGw9Im5vbmUiIGhlaWdodD0iNiIgc3R5bGU9InN0cm9rZTojQzgyOTMwO3N0cm9rZS13aWR0aDoxLjA7IiB3aWR0aD0iNiIgeD0iMjUzMi41IiB5PSI5NTcuOTc2NiIvPjx0ZXh0IGZpbGw9IiMwMDAwMDAiIGZvbnQtZmFtaWx5PSJzYW5zLXNlcmlmIiBmb250LXNpemU9IjE0IiBsZW5ndGhBZGp1c3Q9InNwYWNpbmciIHRleHRMZW5ndGg9IjY0IiB4PSIyNTQ0LjUiIHk9Ijk2NS4yMTg4Ij5uYW1lOiBzdHI8L3RleHQ+PHJlY3QgZmlsbD0ibm9uZSIgaGVpZ2h0PSI2IiBzdHlsZT0ic3Ryb2tlOiNDODI5MzA7c3Ryb2tlLXdpZHRoOjEuMDsiIHdpZHRoPSI2IiB4PSIyNTMyLjUiIHk9Ijk3Mi45NjA5Ii8+PHRleHQgZmlsbD0iIzAwMDAwMCIgZm9udC1mYW1pbHk9InNhbnMtc2VyaWYiIGZvbnQtc2l6ZT0iMTQiIGxlbmd0aEFkanVzdD0ic3BhY2luZyIgdGV4dExlbmd0aD0iMjAzIiB4PSIyNTQ0LjUiIHk9Ijk4MC4yMDMxIj5pbnRlcm5zaGlwczogTGlzdFtJbnRlcm5zaGlwXTwvdGV4dD48bGluZSBzdHlsZT0ic3Ryb2tlOiMxODE4MTg7c3Ryb2tlLXdpZHRoOjAuNTsiIHgxPSIyNTI1LjUiIHgyPSIyNzYyLjUiIHkxPSI5ODUuOTUzMSIgeTI9Ijk4NS45NTMxIi8+PGVsbGlwc2UgY3g9IjI1MzUuNSIgY3k9Ijk5OC45NDUzIiBmaWxsPSIjODRCRTg0IiByeD0iMyIgcnk9IjMiIHN0eWxlPSJzdHJva2U6IzAzODA0ODtzdHJva2Utd2lkdGg6MS4wOyIvPjx0ZXh0IGZpbGw9IiMwMDAwMDAiIGZvbnQtZmFtaWx5PSJzYW5zLXNlcmlmIiBmb250LXNpemU9IjE0IiBsZW5ndGhBZGp1c3Q9InNwYWNpbmciIHRleHRMZW5ndGg9IjE4NCIgeD0iMjU0NC41IiB5PSIxMDAzLjE4NzUiPmFkZF9pbnRlcm5zaGlwKGludGVybnNoaXApPC90ZXh0PjxlbGxpcHNlIGN4PSIyNTM1LjUiIGN5PSIxMDEzLjkyOTciIGZpbGw9IiM4NEJFODQiIHJ4PSIzIiByeT0iMyIgc3R5bGU9InN0cm9rZTojMDM4MDQ4O3N0cm9rZS13aWR0aDoxLjA7Ii8+PHRleHQgZmlsbD0iIzAwMDAwMCIgZm9udC1mYW1pbHk9InNhbnMtc2VyaWYiIGZvbnQtc2l6ZT0iMTQiIGxlbmd0aEFkanVzdD0ic3BhY2luZyIgdGV4dExlbmd0aD0iMjEzIiB4PSIyNTQ0LjUiIHk9IjEwMTguMTcxOSI+cmVtb3ZlX2ludGVybnNoaXAoaW50dGVybnNoaXApPC90ZXh0PjwvZz48IS0tbGluayBVc2VyIHRvIEFwcGxpY2F0aW9uLS0+PGcgaWQ9ImxpbmtfVXNlcl9BcHBsaWNhdGlvbiI+PHBhdGggY29kZUxpbmU9IjIxMCIgZD0iTTU2Ny4yNSwzNTAuOTUgQzYzNC44MywzODAuNzcgNzQzLjczLDQzOC43MSA4MDQsNTIzIEM4NzYuOTIsNjI0Ljk4IDgwMi4xMyw2OTMuOTggODc1LDc5NiBDOTE0LjA2LDg1MC42OSA5NzcuMzIsODkyLjMxIDEwMzAuNDMsOTIwLjE0ICIgZmlsbD0ibm9uZSIgaWQ9IlVzZXItdG8tQXBwbGljYXRpb24iIHN0eWxlPSJzdHJva2U6IzE4MTgxODtzdHJva2Utd2lkdGg6MS4wOyIvPjxwb2x5Z29uIGZpbGw9IiMxODE4MTgiIHBvaW50cz0iMTAzNC44OCw5MjIuNDUsMTAyOC43MzY1LDkxNC43NTIxLDEwMzAuNDQyNyw5MjAuMTQ1NSwxMDI1LjA0OTMsOTIxLjg1MTcsMTAzNC44OCw5MjIuNDUiIHN0eWxlPSJzdHJva2U6IzE4MTgxODtzdHJva2Utd2lkdGg6MS4wOyIvPjwvZz48IS0tbGluayBVc2VyIHRvIE5vdGlmaWNhdGlvbi0tPjxnIGlkPSJsaW5rX1VzZXJfTm90aWZpY2F0aW9uIj48cGF0aCBjb2RlTGluZT0iMjExIiBkPSJNNTA4LDM4OC4yMSBDNTA4LDQ0Ni4wOSA1MDgsNTMzLjAzIDUwOCw1OTIuNTggIiBmaWxsPSJub25lIiBpZD0iVXNlci10by1Ob3RpZmljYXRpb24iIHN0eWxlPSJzdHJva2U6IzE4MTgxODtzdHJva2Utd2lkdGg6MS4wOyIvPjxwb2x5Z29uIGZpbGw9IiMxODE4MTgiIHBvaW50cz0iNTA4LDU5Ny44OSw1MTIsNTg4Ljg5LDUwOCw1OTIuODksNTA0LDU4OC44OSw1MDgsNTk3Ljg5IiBzdHlsZT0ic3Ryb2tlOiMxODE4MTg7c3Ryb2tlLXdpZHRoOjEuMDsiLz48dGV4dCBmaWxsPSIjMDAwMDAwIiBmb250LWZhbWlseT0ic2Fucy1zZXJpZiIgZm9udC1zaXplPSIxMyIgbGVuZ3RoQWRqdXN0PSJzcGFjaW5nIiB0ZXh0TGVuZ3RoPSI3IiB4PSI1MDAuNjE3MiIgeT0iNDA4LjAxMzgiPjE8L3RleHQ+PHRleHQgZmlsbD0iIzAwMDAwMCIgZm9udC1mYW1pbHk9InNhbnMtc2VyaWYiIGZvbnQtc2l6ZT0iMTMiIGxlbmd0aEFkanVzdD0ic3BhY2luZyIgdGV4dExlbmd0aD0iNiIgeD0iNTAxLjYxNTYiIHk9IjU4OC41MTYiPio8L3RleHQ+PC9nPjwhLS1saW5rIFVzZXIgdG8gUmV2aWV3LS0+PGcgaWQ9ImxpbmtfVXNlcl9SZXZpZXciPjxwYXRoIGNvZGVMaW5lPSIyMTIiIGQ9Ik01NjcuMzQsMzQzLjIyIEM2NzguMzEsMzcxLjk3IDkyNS4yMiw0MzIuODIgMTEzNyw0NjMgQzEzMjMuMTUsNDg5LjUzIDE4MTEuMzksNDQxLjgzIDE5ODEsNTIzIEMyMDA0Ljc3LDUzNC4zNyAyMDI2LjI0LDU1Mi4zNyAyMDQ0LjQ1LDU3MS41OCAiIGZpbGw9Im5vbmUiIGlkPSJVc2VyLXRvLVJldmlldyIgc3R5bGU9InN0cm9rZTojMTgxODE4O3N0cm9rZS13aWR0aDoxLjA7Ii8+PHBvbHlnb24gZmlsbD0iIzE4MTgxOCIgcG9pbnRzPSIyMDQ4LjA1LDU3NS40NCwyMDQ0LjgzMjEsNTY2LjEzMTcsMjA0NC42Mzc5LDU3MS43ODUyLDIwMzguOTg0NCw1NzEuNTkxLDIwNDguMDUsNTc1LjQ0IiBzdHlsZT0ic3Ryb2tlOiMxODE4MTg7c3Ryb2tlLXdpZHRoOjEuMDsiLz48dGV4dCBmaWxsPSIjMDAwMDAwIiBmb250LWZhbWlseT0ic2Fucy1zZXJpZiIgZm9udC1zaXplPSIxMyIgbGVuZ3RoQWRqdXN0PSJzcGFjaW5nIiB0ZXh0TGVuZ3RoPSI3IiB4PSI1NzQuOTk4NiIgeT0iMzQzLjgxNTEiPjE8L3RleHQ+PHRleHQgZmlsbD0iIzAwMDAwMCIgZm9udC1mYW1pbHk9InNhbnMtc2VyaWYiIGZvbnQtc2l6ZT0iMTMiIGxlbmd0aEFkanVzdD0ic3BhY2luZyIgdGV4dExlbmd0aD0iNiIgeD0iMjAzNS45NTE4IiB5PSI1NjUuODY1NyI+KjwvdGV4dD48L2c+PCEtLWxpbmsgVXNlciB0byBNZXNzYWdlLS0+PGcgaWQ9ImxpbmtfVXNlcl9NZXNzYWdlIj48cGF0aCBjb2RlTGluZT0iMjEzIiBkPSJNNTQ0LjEzLDM4OC4yMSBDNTc1LjkxLDQ0MS42IDYyMi4zOSw1MTkuNyA2NTcuMjMsNTc4LjIzICIgZmlsbD0ibm9uZSIgaWQ9IlVzZXItdG8tTWVzc2FnZSIgc3R5bGU9InN0cm9rZTojMTgxODE4O3N0cm9rZS13aWR0aDoxLjA7Ii8+PHBvbHlnb24gZmlsbD0iIzE4MTgxOCIgcG9pbnRzPSI2NTkuOTMsNTgyLjc3LDY1OC43Njc4LDU3Mi45OSw2NTcuMzc0Myw1NzguNDcyNSw2NTEuODkxOCw1NzcuMDc5LDY1OS45Myw1ODIuNzciIHN0eWxlPSJzdHJva2U6IzE4MTgxODtzdHJva2Utd2lkdGg6MS4wOyIvPjx0ZXh0IGZpbGw9IiMwMDAwMDAiIGZvbnQtZmFtaWx5PSJzYW5zLXNlcmlmIiBmb250LXNpemU9IjEzIiBsZW5ndGhBZGp1c3Q9InNwYWNpbmciIHRleHRMZW5ndGg9IjciIHg9IjU0MC42OTg5IiB5PSI0MDguMDEzOCI+MTwvdGV4dD48dGV4dCBmaWxsPSIjMDAwMDAwIiBmb250LWZhbWlseT0ic2Fucy1zZXJpZiIgZm9udC1zaXplPSIxMyIgbGVuZ3RoQWRqdXN0PSJzcGFjaW5nIiB0ZXh0TGVuZ3RoPSI2IiB4PSI2NDguOTcyOCIgeT0iNTczLjUyODciPio8L3RleHQ+PC9nPjwhLS1saW5rIFVzZXIgdG8gR3JvdXAtLT48ZyBpZD0ibGlua19Vc2VyX0dyb3VwIj48cGF0aCBjb2RlTGluZT0iMjE0IiBkPSJNNDU3LjMzLDM4OC4yMSBDNDIxLjczLDQzNy4yMyAzNzQuNTgsNTA3LjA5IDMzOC43Nyw1NjMuNSAiIGZpbGw9Im5vbmUiIGlkPSJVc2VyLXRvLUdyb3VwIiBzdHlsZT0ic3Ryb2tlOiMxODE4MTg7c3Ryb2tlLXdpZHRoOjEuMDsiLz48cG9seWdvbiBmaWxsPSIjMTgxODE4IiBwb2ludHM9IjMzNS45OSw1NjcuODksMzQ0LjIwMDEsNTYyLjQ0OTksMzM4LjY3NzIsNTYzLjY3MzUsMzM3LjQ1MzYsNTU4LjE1MDUsMzM1Ljk5LDU2Ny44OSIgc3R5bGU9InN0cm9rZTojMTgxODE4O3N0cm9rZS13aWR0aDoxLjA7Ii8+PHRleHQgZmlsbD0iIzAwMDAwMCIgZm9udC1mYW1pbHk9InNhbnMtc2VyaWYiIGZvbnQtc2l6ZT0iMTMiIGxlbmd0aEFkanVzdD0ic3BhY2luZyIgdGV4dExlbmd0aD0iNyIgeD0iNDQ0LjQwNTIiIHk9IjQwOC4wMTM4Ij4xPC90ZXh0Pjx0ZXh0IGZpbGw9IiMwMDAwMDAiIGZvbnQtZmFtaWx5PSJzYW5zLXNlcmlmIiBmb250LXNpemU9IjEzIiBsZW5ndGhBZGp1c3Q9InNwYWNpbmciIHRleHRMZW5ndGg9IjYiIHg9IjMzNC4wODYiIHk9IjU1OC40ODgxIj4qPC90ZXh0PjwvZz48IS0tbGluayBHcm91cCB0byBVc2VyLS0+PGcgaWQ9ImxpbmtfR3JvdXBfVXNlciI+PHBhdGggY29kZUxpbmU9IjI0NCIgZD0iTTM1OS42OSw1NjcuODkgQzM5OC44MSw1MTIuNDIgNDQ0Ljk0LDQ0Mi43MyA0NzUuNDcsMzkyLjY5ICIgZmlsbD0ibm9uZSIgaWQ9Ikdyb3VwLXRvLVVzZXIiIHN0eWxlPSJzdHJva2U6IzE4MTgxODtzdHJva2Utd2lkdGg6MS4wOyIvPjxwb2x5Z29uIGZpbGw9IiMxODE4MTgiIHBvaW50cz0iNDc4LjE5LDM4OC4yMSw0NzAuMDkzNywzOTMuODE4LDQ3NS41OTAzLDM5Mi40ODEsNDc2LjkyNzMsMzk3Ljk3NzYsNDc4LjE5LDM4OC4yMSIgc3R5bGU9InN0cm9rZTojMTgxODE4O3N0cm9rZS13aWR0aDoxLjA7Ii8+PHRleHQgZmlsbD0iIzAwMDAwMCIgZm9udC1mYW1pbHk9InNhbnMtc2VyaWYiIGZvbnQtc2l6ZT0iMTMiIGxlbmd0aEFkanVzdD0ic3BhY2luZyIgdGV4dExlbmd0aD0iNyIgeD0iMzU4Ljg1MjIiIHk9IjU1OC40ODgxIj4xPC90ZXh0Pjx0ZXh0IGZpbGw9IiMwMDAwMDAiIGZvbnQtZmFtaWx5PSJzYW5zLXNlcmlmIiBmb250LXNpemU9IjEzIiBsZW5ndGhBZGp1c3Q9InNwYWNpbmciIHRleHRMZW5ndGg9IjYiIHg9IjQ2OC42MDE0IiB5PSI0MDguMDEzOCI+KjwvdGV4dD48L2c+PCEtLWxpbmsgVXNlciB0byBCb29rbWFyay0tPjxnIGlkPSJsaW5rX1VzZXJfQm9va21hcmsiPjxwYXRoIGNvZGVMaW5lPSIyMTUiIGQ9Ik01NjcuMjMsMzUyLjAxIEM2NDEuNDQsMzg0LjQzIDc3MC4zNCw0NDYuNDkgODY1LDUyMyBDODkwLjI1LDU0My40MSA5MTQuMzcsNTY5LjcyIDkzNC4wOSw1OTMuNzIgIiBmaWxsPSJub25lIiBpZD0iVXNlci10by1Cb29rbWFyayIgc3R5bGU9InN0cm9rZTojMTgxODE4O3N0cm9rZS13aWR0aDoxLjA7Ii8+PHBvbHlnb24gZmlsbD0iIzE4MTgxOCIgcG9pbnRzPSI5MzcuNDYsNTk3Ljg2LDkzNC44NTEsNTg4LjM2Myw5MzQuMjkxNSw1OTMuOTkyMSw5MjguNjYyNCw1OTMuNDMyNiw5MzcuNDYsNTk3Ljg2IiBzdHlsZT0ic3Ryb2tlOiMxODE4MTg7c3Ryb2tlLXdpZHRoOjEuMDsiLz48dGV4dCBmaWxsPSIjMDAwMDAwIiBmb250LWZhbWlseT0ic2Fucy1zZXJpZiIgZm9udC1zaXplPSIxMyIgbGVuZ3RoQWRqdXN0PSJzcGFjaW5nIiB0ZXh0TGVuZ3RoPSI3IiB4PSI1NzQuODc1MiIgeT0iMzY4LjI2MDciPjE8L3RleHQ+PHRleHQgZmlsbD0iIzAwMDAwMCIgZm9udC1mYW1pbHk9InNhbnMtc2VyaWYiIGZvbnQtc2l6ZT0iMTMiIGxlbmd0aEFkanVzdD0ic3BhY2luZyIgdGV4dExlbmd0aD0iNiIgeD0iOTI1LjM2ODkiIHk9IjU4OC40ODIyIj4qPC90ZXh0PjwvZz48IS0tbGluayBTdHVkZW50IHRvIFJlY29tbWVuZGF0aW9uU3lzdGVtLS0+PGcgaWQ9ImxpbmtfU3R1ZGVudF9SZWNvbW1lbmRhdGlvblN5c3RlbSI+PHBhdGggY29kZUxpbmU9IjIxNyIgZD0iTTE1MjUuOTUsNDYzLjA5IEMxNTk0LjU2LDUxOC40OCAxNjY4LjkxLDU3OC41IDE3MTYuODQsNjE3LjIgIiBmaWxsPSJub25lIiBpZD0iU3R1ZGVudC10by1SZWNvbW1lbmRhdGlvblN5c3RlbSIgc3R5bGU9InN0cm9rZTojMTgxODE4O3N0cm9rZS13aWR0aDoxLjA7Ii8+PHBvbHlnb24gZmlsbD0iIzE4MTgxOCIgcG9pbnRzPSIxNzIwLjgyLDYyMC40MSwxNzE2LjMzNzksNjExLjY0MDEsMTcxNi45MzI0LDYxNy4yNjU3LDE3MTEuMzA2OSw2MTcuODYwMiwxNzIwLjgyLDYyMC40MSIgc3R5bGU9InN0cm9rZTojMTgxODE4O3N0cm9rZS13aWR0aDoxLjA7Ii8+PC9nPjwhLS1saW5rIFN0dWRlbnQgdG8gQ29tbXVuaWNhdGlvblN5c3RlbS0tPjxnIGlkPSJsaW5rX1N0dWRlbnRfQ29tbXVuaWNhdGlvblN5c3RlbSI+PHBhdGggY29kZUxpbmU9IjIxOCIgZD0iTTEzNTgsNDYzLjA5IEMxMzU4LDUxNy41OSAxMzU4LDU3Ni41NyAxMzU4LDYxNS4zMiAiIGZpbGw9Im5vbmUiIGlkPSJTdHVkZW50LXRvLUNvbW11bmljYXRpb25TeXN0ZW0iIHN0eWxlPSJzdHJva2U6IzE4MTgxODtzdHJva2Utd2lkdGg6MS4wOyIvPjxwb2x5Z29uIGZpbGw9IiMxODE4MTgiIHBvaW50cz0iMTM1OCw2MjAuNDEsMTM2Miw2MTEuNDEsMTM1OCw2MTUuNDEsMTM1NCw2MTEuNDEsMTM1OCw2MjAuNDEiIHN0eWxlPSJzdHJva2U6IzE4MTgxODtzdHJva2Utd2lkdGg6MS4wOyIvPjwvZz48IS0tbGluayBTdHVkZW50IHRvIEFwcGxpY2F0aW9uLS0+PGcgaWQ9ImxpbmtfU3R1ZGVudF9BcHBsaWNhdGlvbiI+PHBhdGggY29kZUxpbmU9IjIxOSIgZD0iTTExOTguNzQsNDYzLjE0IEMxMTgzLjkyLDQ4MS44NCAxMTcwLjgxLDUwMS45MiAxMTYxLDUyMyBDMTEwNS44LDY0MS42IDExMDguMzUsNzk3Ljc3IDExMTYuMDgsODg4LjE2ICIgZmlsbD0ibm9uZSIgaWQ9IlN0dWRlbnQtdG8tQXBwbGljYXRpb24iIHN0eWxlPSJzdHJva2U6IzE4MTgxODtzdHJva2Utd2lkdGg6MS4wOyIvPjxwb2x5Z29uIGZpbGw9IiMxODE4MTgiIHBvaW50cz0iMTExNi41Miw4OTMuMjEsMTExOS43MzQ1LDg4My45MDA1LDExMTYuMDkxOCw4ODguMjI4NCwxMTExLjc2MzksODg0LjU4NTYsMTExNi41Miw4OTMuMjEiIHN0eWxlPSJzdHJva2U6IzE4MTgxODtzdHJva2Utd2lkdGg6MS4wOyIvPjx0ZXh0IGZpbGw9IiMwMDAwMDAiIGZvbnQtZmFtaWx5PSJzYW5zLXNlcmlmIiBmb250LXNpemU9IjEzIiBsZW5ndGhBZGp1c3Q9InNwYWNpbmciIHRleHRMZW5ndGg9IjciIHg9IjExODMuMzQ3NyIgeT0iNDgyLjgzOTMiPjE8L3RleHQ+PHRleHQgZmlsbD0iIzAwMDAwMCIgZm9udC1mYW1pbHk9InNhbnMtc2VyaWYiIGZvbnQtc2l6ZT0iMTMiIGxlbmd0aEFkanVzdD0ic3BhY2luZyIgdGV4dExlbmd0aD0iNiIgeD0iMTEwOS4xOTI2IiB5PSI4ODMuNzk0MSI+KjwvdGV4dD48L2c+PCEtLWxpbmsgU3R1ZGVudCB0byBCb29rbWFyay0tPjxnIGlkPSJsaW5rX1N0dWRlbnRfQm9va21hcmsiPjxwYXRoIGNvZGVMaW5lPSIyMjAiIGQ9Ik0xMTY4LjQ4LDQ2My4xMSBDMTE0NC40NCw0ODIuNDUgMTEyMC42OSw1MDIuNjkgMTA5OSw1MjMgQzEwNzUuOTUsNTQ0LjU5IDEwNTIuNzYsNTcwLjM5IDEwMzMuMTgsNTkzLjY2ICIgZmlsbD0ibm9uZSIgaWQ9IlN0dWRlbnQtdG8tQm9va21hcmsiIHN0eWxlPSJzdHJva2U6IzE4MTgxODtzdHJva2Utd2lkdGg6MS4wOyIvPjxwb2x5Z29uIGZpbGw9IiMxODE4MTgiIHBvaW50cz0iMTAyOS44MSw1OTcuNjcsMTAzOC42NTI1LDU5My4zMzI5LDEwMzMuMDE3OSw1OTMuODM0NywxMDMyLjUxNjEsNTg4LjIwMDIsMTAyOS44MSw1OTcuNjciIHN0eWxlPSJzdHJva2U6IzE4MTgxODtzdHJva2Utd2lkdGg6MS4wOyIvPjx0ZXh0IGZpbGw9IiMwMDAwMDAiIGZvbnQtZmFtaWx5PSJzYW5zLXNlcmlmIiBmb250LXNpemU9IjEzIiBsZW5ndGhBZGp1c3Q9InNwYWNpbmciIHRleHRMZW5ndGg9IjciIHg9IjExNTAuOTI0MiIgeT0iNDgzLjI1NjgiPjE8L3RleHQ+PHRleHQgZmlsbD0iIzAwMDAwMCIgZm9udC1mYW1pbHk9InNhbnMtc2VyaWYiIGZvbnQtc2l6ZT0iMTMiIGxlbmd0aEFkanVzdD0ic3BhY2luZyIgdGV4dExlbmd0aD0iNiIgeD0iMTAyOS41NTEzIiB5PSI1ODguMjY3OCI+KjwvdGV4dD48L2c+PCEtLWxpbmsgRW1wbG95ZXIgdG8gSW50ZXJuc2hpcC0tPjxnIGlkPSJsaW5rX0VtcGxveWVyX0ludGVybnNoaXAiPjxwYXRoIGNvZGVMaW5lPSIyMjIiIGQ9Ik0yMTA4Ljg4LDQxOC4yNSBDMjEyNC4yLDQzMy41NyAyMTQwLjMsNDQ5LjAzIDIxNTYsNDYzIEMyMTg4LjY4LDQ5Mi4wNyAyMjAwLjk1LDQ5NC4zNSAyMjM0LDUyMyBDMjIzOC40OCw1MjYuODggMjI0Mi45OSw1MzAuODcgMjI0Ny41Miw1MzQuOTMgIiBmaWxsPSJub25lIiBpZD0iRW1wbG95ZXItdG8tSW50ZXJuc2hpcCIgc3R5bGU9InN0cm9rZTojMTgxODE4O3N0cm9rZS13aWR0aDoxLjA7Ii8+PHBvbHlnb24gZmlsbD0iIzE4MTgxOCIgcG9pbnRzPSIyMjUxLjMzLDUzOC4zNSwyMjQ3LjMxNjIsNTI5LjM1NjEsMjI0Ny42MTM1LDUzNS4wMDUyLDIyNDEuOTY0NSw1MzUuMzAyNSwyMjUxLjMzLDUzOC4zNSIgc3R5bGU9InN0cm9rZTojMTgxODE4O3N0cm9rZS13aWR0aDoxLjA7Ii8+PC9nPjwhLS1saW5rIEVtcGxveWVyIHRvIFJldmlldy0tPjxnIGlkPSJsaW5rX0VtcGxveWVyX1JldmlldyI+PHBhdGggY29kZUxpbmU9IjIyMyIgZD0iTTIwNDYuNzksNDE4LjM5IEMyMDU4LjY3LDQ2NS43NSAyMDczLjEzLDUyMy40MyAyMDg0LjksNTcwLjM4ICIgZmlsbD0ibm9uZSIgaWQ9IkVtcGxveWVyLXRvLVJldmlldyIgc3R5bGU9InN0cm9rZTojMTgxODE4O3N0cm9rZS13aWR0aDoxLjA7Ii8+PHBvbHlnb24gZmlsbD0iIzE4MTgxOCIgcG9pbnRzPSIyMDg2LjE4LDU3NS40NywyMDg3Ljg3MSw1NjUuNzY3NCwyMDg0Ljk2NCw1NzAuNjIwMSwyMDgwLjExMTIsNTY3LjcxMzEsMjA4Ni4xOCw1NzUuNDciIHN0eWxlPSJzdHJva2U6IzE4MTgxODtzdHJva2Utd2lkdGg6MS4wOyIvPjx0ZXh0IGZpbGw9IiMwMDAwMDAiIGZvbnQtZmFtaWx5PSJzYW5zLXNlcmlmIiBmb250LXNpemU9IjEzIiBsZW5ndGhBZGp1c3Q9InNwYWNpbmciIHRleHRMZW5ndGg9IjciIHg9IjIwNDEuMjY2OSIgeT0iNDM4LjI1MjQiPjE8L3RleHQ+PHRleHQgZmlsbD0iIzAwMDAwMCIgZm9udC1mYW1pbHk9InNhbnMtc2VyaWYiIGZvbnQtc2l6ZT0iMTMiIGxlbmd0aEFkanVzdD0ic3BhY2luZyIgdGV4dExlbmd0aD0iNiIgeD0iMjA3Ny44MzUyIiB5PSI1NjUuODk4NyI+KjwvdGV4dD48L2c+PCEtLWxpbmsgQWRtaW4gdG8gU3R1ZGVudC0tPjxnIGlkPSJsaW5rX0FkbWluX1N0dWRlbnQiPjxwYXRoIGNvZGVMaW5lPSIyMjUiIGQ9Ik0xODg3LjIyLDEyMi4wOCBDMTc5NC44NSwxNTcuNTggMTY3MS4xNiwyMDUuMTIgMTU2Ni42LDI0NS4zMiAiIGZpbGw9Im5vbmUiIGlkPSJBZG1pbi10by1TdHVkZW50IiBzdHlsZT0ic3Ryb2tlOiMxODE4MTg7c3Ryb2tlLXdpZHRoOjEuMDsiLz48cG9seWdvbiBmaWxsPSIjMTgxODE4IiBwb2ludHM9IjE1NjEuNjMsMjQ3LjIzLDE1NzEuNDY2MywyNDcuNzI2NSwxNTY2LjI5NTYsMjQ1LjQzMjIsMTU2OC41ODk5LDI0MC4yNjE1LDE1NjEuNjMsMjQ3LjIzIiBzdHlsZT0ic3Ryb2tlOiMxODE4MTg7c3Ryb2tlLXdpZHRoOjEuMDsiLz48L2c+PCEtLWxpbmsgQWRtaW4gdG8gRW1wbG95ZXItLT48ZyBpZD0ibGlua19BZG1pbl9FbXBsb3llciI+PHBhdGggY29kZUxpbmU9IjIyNiIgZD0iTTIwMjQsMTMwLjE3IEMyMDI0LDE1OS43OCAyMDI0LDE5Ni4xMiAyMDI0LDIyOS4zOCAiIGZpbGw9Im5vbmUiIGlkPSJBZG1pbi10by1FbXBsb3llciIgc3R5bGU9InN0cm9rZTojMTgxODE4O3N0cm9rZS13aWR0aDoxLjA7Ii8+PHBvbHlnb24gZmlsbD0iIzE4MTgxOCIgcG9pbnRzPSIyMDI0LDIzNC43LDIwMjguMDI1NywyMjUuNzExNSwyMDI0LjAxNDMsMjI5LjcsMjAyMC4wMjU3LDIyNS42ODg2LDIwMjQsMjM0LjciIHN0eWxlPSJzdHJva2U6IzE4MTgxODtzdHJva2Utd2lkdGg6MS4wOyIvPjwvZz48IS0tbGluayBBZG1pbiB0byBJbnRlcm5zaGlwLS0+PGcgaWQ9ImxpbmtfQWRtaW5fSW50ZXJuc2hpcCI+PHBhdGggY29kZUxpbmU9IjIyNyIgZD0iTTIxNjAuNTMsMTI0LjIxIEMyMTY2LjQxLDEyNi4yMyAyMTcyLjI1LDEyOC4xNyAyMTc4LDEzMCBDMjI4My41NywxNjMuNjcgMjM1MS43MiwxMDIuNzIgMjQyMCwxOTAgQzI0OTEuNzcsMjgxLjc0IDI0NjkuMDksNDE2LjQ5IDI0MzQuODYsNTE3Ljk2ICIgZmlsbD0ibm9uZSIgaWQ9IkFkbWluLXRvLUludGVybnNoaXAiIHN0eWxlPSJzdHJva2U6IzE4MTgxODtzdHJva2Utd2lkdGg6MS4wOyIvPjxwb2x5Z29uIGZpbGw9IiMxODE4MTgiIHBvaW50cz0iMjQzMy4yMiw1MjIuNzcsMjQzOS45MTMyLDUxNS41NDUsMjQzNC44MzU0LDUxOC4wMzgxLDI0MzIuMzQyMiw1MTIuOTYwMywyNDMzLjIyLDUyMi43NyIgc3R5bGU9InN0cm9rZTojMTgxODE4O3N0cm9rZS13aWR0aDoxLjA7Ii8+PC9nPjwhLS1saW5rIEludGVybnNoaXAgdG8gQ2F0ZWdvcnktLT48ZyBpZD0ibGlua19JbnRlcm5zaGlwX0NhdGVnb3J5Ij48cGF0aCBjb2RlTGluZT0iMjI5IiBkPSJNMjI1Mi43OCw3OTYuMDMgQzIyMjEuNjUsODMxLjEyIDIxODkuNTUsODY3LjMyIDIxNjMuMzMsODk2Ljg3ICIgZmlsbD0ibm9uZSIgaWQ9IkludGVybnNoaXAtdG8tQ2F0ZWdvcnkiIHN0eWxlPSJzdHJva2U6IzE4MTgxODtzdHJva2Utd2lkdGg6MS4wOyIvPjxwb2x5Z29uIGZpbGw9IiMxODE4MTgiIHBvaW50cz0iMjE1OS44NCw5MDAuODEsMjE2OC44MDg5LDg5Ni43NDA4LDIxNjMuMTYxOCw4OTcuMDczLDIxNjIuODI5Niw4OTEuNDI1OSwyMTU5Ljg0LDkwMC44MSIgc3R5bGU9InN0cm9rZTojMTgxODE4O3N0cm9rZS13aWR0aDoxLjA7Ii8+PHRleHQgZmlsbD0iIzAwMDAwMCIgZm9udC1mYW1pbHk9InNhbnMtc2VyaWYiIGZvbnQtc2l6ZT0iMTMiIGxlbmd0aEFkanVzdD0ic3BhY2luZyIgdGV4dExlbmd0aD0iNyIgeD0iMjIzOS4wMTQxIiB5PSI4MTYuMTcyNCI+MTwvdGV4dD48dGV4dCBmaWxsPSIjMDAwMDAwIiBmb250LWZhbWlseT0ic2Fucy1zZXJpZiIgZm9udC1zaXplPSIxMyIgbGVuZ3RoQWRqdXN0PSJzcGFjaW5nIiB0ZXh0TGVuZ3RoPSI3IiB4PSIyMTU5LjI4OTgiIHk9Ijg5MS40MjU4Ij4xPC90ZXh0PjwvZz48IS0tbGluayBJbnRlcm5zaGlwIHRvIFNraWxsLS0+PGcgaWQ9ImxpbmtfSW50ZXJuc2hpcF9Ta2lsbCI+PHBhdGggY29kZUxpbmU9IjIzMCIgZD0iTTIzNzMsNzk2LjAzIEMyMzczLDgzMC43IDIzNzMsODY2LjQzIDIzNzMsODk1Ljc4ICIgZmlsbD0ibm9uZSIgaWQ9IkludGVybnNoaXAtdG8tU2tpbGwiIHN0eWxlPSJzdHJva2U6IzE4MTgxODtzdHJva2Utd2lkdGg6MS4wOyIvPjxwb2x5Z29uIGZpbGw9IiMxODE4MTgiIHBvaW50cz0iMjM3Myw5MDAuODEsMjM3Nyw4OTEuODEsMjM3Myw4OTUuODEsMjM2OSw4OTEuODEsMjM3Myw5MDAuODEiIHN0eWxlPSJzdHJva2U6IzE4MTgxODtzdHJva2Utd2lkdGg6MS4wOyIvPjx0ZXh0IGZpbGw9IiMwMDAwMDAiIGZvbnQtZmFtaWx5PSJzYW5zLXNlcmlmIiBmb250LXNpemU9IjEzIiBsZW5ndGhBZGp1c3Q9InNwYWNpbmciIHRleHRMZW5ndGg9IjciIHg9IjIzNjUuODA4NiIgeT0iODE2LjE3MjQiPjE8L3RleHQ+PHRleHQgZmlsbD0iIzAwMDAwMCIgZm9udC1mYW1pbHk9InNhbnMtc2VyaWYiIGZvbnQtc2l6ZT0iMTMiIGxlbmd0aEFkanVzdD0ic3BhY2luZyIgdGV4dExlbmd0aD0iNiIgeD0iMjM2Ni42MTU2IiB5PSI4OTEuNDI1OCI+KjwvdGV4dD48L2c+PCEtLWxpbmsgSW50ZXJuc2hpcCB0byBBcHBsaWNhdGlvbi0tPjxnIGlkPSJsaW5rX0ludGVybnNoaXBfQXBwbGljYXRpb24iPjxwYXRoIGNvZGVMaW5lPSIyMzEiIGQ9Ik0yMjUxLjM3LDc4Ni4yOSBDMjI0NS42OCw3ODkuODIgMjIzOS44OSw3OTMuMDggMjIzNCw3OTYgQzIxNDMuNjEsODQwLjgzIDE0NzIuMjcsOTIxLjU5IDEyMjAuMjQsOTUwLjY5ICIgZmlsbD0ibm9uZSIgaWQ9IkludGVybnNoaXAtdG8tQXBwbGljYXRpb24iIHN0eWxlPSJzdHJva2U6IzE4MTgxODtzdHJva2Utd2lkdGg6MS4wOyIvPjxwb2x5Z29uIGZpbGw9IiMxODE4MTgiIHBvaW50cz0iMTIxNS4wOSw5NTEuMjgsMTIyNC40ODc5LDk1NC4yMjYxLDEyMjAuMDU3Myw5NTAuNzA5LDEyMjMuNTc0NCw5NDYuMjc4NCwxMjE1LjA5LDk1MS4yOCIgc3R5bGU9InN0cm9rZTojMTgxODE4O3N0cm9rZS13aWR0aDoxLjA7Ii8+PHRleHQgZmlsbD0iIzAwMDAwMCIgZm9udC1mYW1pbHk9InNhbnMtc2VyaWYiIGZvbnQtc2l6ZT0iMTMiIGxlbmd0aEFkanVzdD0ic3BhY2luZyIgdGV4dExlbmd0aD0iNyIgeD0iMjIzNi4zNTM5IiB5PSI3OTMuMzIxOSI+MTwvdGV4dD48dGV4dCBmaWxsPSIjMDAwMDAwIiBmb250LWZhbWlseT0ic2Fucy1zZXJpZiIgZm9udC1zaXplPSIxMyIgbGVuZ3RoQWRqdXN0PSJzcGFjaW5nIiB0ZXh0TGVuZ3RoPSI2IiB4PSIxMjIzLjA4OTkiIHk9Ijk0OS4wODk2Ij4qPC90ZXh0PjwvZz48IS0tbGluayBJbnRlcm5zaGlwIHRvIFRhZy0tPjxnIGlkPSJsaW5rX0ludGVybnNoaXBfVGFnIj48cGF0aCBjb2RlTGluZT0iMjMyIiBkPSJNMjQ5NC42Myw3OTUuNTkgQzI1MjYuNDEsODMwLjg5IDI1NTkuMjIsODY3LjMzIDI1ODUuOTYsODk3LjA0ICIgZmlsbD0ibm9uZSIgaWQ9IkludGVybnNoaXAtdG8tVGFnIiBzdHlsZT0ic3Ryb2tlOiMxODE4MTg7c3Ryb2tlLXdpZHRoOjEuMDsiLz48cG9seWdvbiBmaWxsPSIjMTgxODE4IiBwb2ludHM9IjI1ODkuNTMsOTAxLDI1ODYuNDgyNSw4OTEuNjM0NSwyNTg2LjE4NTIsODk3LjI4MzUsMjU4MC41MzYxLDg5Ni45ODYyLDI1ODkuNTMsOTAxIiBzdHlsZT0ic3Ryb2tlOiMxODE4MTg7c3Ryb2tlLXdpZHRoOjEuMDsiLz48dGV4dCBmaWxsPSIjMDAwMDAwIiBmb250LWZhbWlseT0ic2Fucy1zZXJpZiIgZm9udC1zaXplPSIxMyIgbGVuZ3RoQWRqdXN0PSJzcGFjaW5nIiB0ZXh0TGVuZ3RoPSI3IiB4PSIyNDk0LjQ1OTQiIHk9IjgxNi4xNTU3Ij4xPC90ZXh0Pjx0ZXh0IGZpbGw9IiMwMDAwMDAiIGZvbnQtZmFtaWx5PSJzYW5zLXNlcmlmIiBmb250LXNpemU9IjEzIiBsZW5ndGhBZGp1c3Q9InNwYWNpbmciIHRleHRMZW5ndGg9IjYiIHg9IjI1NzUuODA3NSIgeT0iODkxLjIxODIiPio8L3RleHQ+PC9nPjwhLS1saW5rIENvbXBhbnkgdG8gSW50ZXJuc2hpcC0tPjxnIGlkPSJsaW5rX0NvbXBhbnlfSW50ZXJuc2hpcCI+PHBhdGggY29kZUxpbmU9IjIzNCIgZD0iTTIzMDkuMzQsNDEwLjYgQzIzMTcuNjksNDQzLjEzIDIzMjcuNTEsNDgxLjM2IDIzMzYuOSw1MTcuOTMgIiBmaWxsPSJub25lIiBpZD0iQ29tcGFueS10by1JbnRlcm5zaGlwIiBzdHlsZT0ic3Ryb2tlOiMxODE4MTg7c3Ryb2tlLXdpZHRoOjEuMDsiLz48cG9seWdvbiBmaWxsPSIjMTgxODE4IiBwb2ludHM9IjIzMzguMTcsNTIyLjg1LDIzMzkuODA3Miw1MTMuMTM4MiwyMzM2LjkyNzEsNTE4LjAwNjksMjMzMi4wNTgzLDUxNS4xMjY4LDIzMzguMTcsNTIyLjg1IiBzdHlsZT0ic3Ryb2tlOiMxODE4MTg7c3Ryb2tlLXdpZHRoOjEuMDsiLz48L2c+PCEtLWxpbmsgQ29tcGFueSB0byBSZXZpZXctLT48ZyBpZD0ibGlua19Db21wYW55X1JldmlldyI+PHBhdGggY29kZUxpbmU9IjIzNSIgZD0iTTIyNDIuNTYsNDEwLjYgQzIyMTUuODMsNDU5LjQ5IDIxODIuMDUsNTIxLjI2IDIxNTQuOSw1NzAuOTEgIiBmaWxsPSJub25lIiBpZD0iQ29tcGFueS10by1SZXZpZXciIHN0eWxlPSJzdHJva2U6IzE4MTgxODtzdHJva2Utd2lkdGg6MS4wOyIvPjxwb2x5Z29uIGZpbGw9IiMxODE4MTgiIHBvaW50cz0iMjE1Mi40Niw1NzUuMzcsMjE2MC4yODk0LDU2OS4zOTUxLDIxNTQuODYwMyw1NzAuOTgzOCwyMTUzLjI3MTUsNTY1LjU1NDYsMjE1Mi40Niw1NzUuMzciIHN0eWxlPSJzdHJva2U6IzE4MTgxODtzdHJva2Utd2lkdGg6MS4wOyIvPjwvZz48IS0tbGluayBNZXNzYWdlIHRvIENvbnZlcnNhdGlvbi0tPjxnIGlkPSJsaW5rX01lc3NhZ2VfQ29udmVyc2F0aW9uIj48cGF0aCBjb2RlTGluZT0iMjM3IiBkPSJNNjkzLjc3LDczNi4wNyBDNjkxLjYsNzg1LjEzIDY5MS43NSw4NDguNDYgNjk0LjI0LDg5NS40OSAiIGZpbGw9Im5vbmUiIGlkPSJNZXNzYWdlLXRvLUNvbnZlcnNhdGlvbiIgc3R5bGU9InN0cm9rZTojMTgxODE4O3N0cm9rZS13aWR0aDoxLjA7Ii8+PHBvbHlnb24gZmlsbD0iIzE4MTgxOCIgcG9pbnRzPSI2OTQuNTIsOTAwLjU3LDY5OC4wMjYzLDg5MS4zNjY0LDY5NC4yNDksODk1LjU3NzQsNjkwLjAzOCw4OTEuODAwMSw2OTQuNTIsOTAwLjU3IiBzdHlsZT0ic3Ryb2tlOiMxODE4MTg7c3Ryb2tlLXdpZHRoOjEuMDsiLz48dGV4dCBmaWxsPSIjMDAwMDAwIiBmb250LWZhbWlseT0ic2Fucy1zZXJpZiIgZm9udC1zaXplPSIxMyIgbGVuZ3RoQWRqdXN0PSJzcGFjaW5nIiB0ZXh0TGVuZ3RoPSI3IiB4PSI2ODUuNDEyMSIgeT0iNzU2LjA2NDMiPjE8L3RleHQ+PHRleHQgZmlsbD0iIzAwMDAwMCIgZm9udC1mYW1pbHk9InNhbnMtc2VyaWYiIGZvbnQtc2l6ZT0iMTMiIGxlbmd0aEFkanVzdD0ic3BhY2luZyIgdGV4dExlbmd0aD0iNyIgeD0iNjg1LjgxNjIiIHk9Ijg5MS41Nzk2Ij4xPC90ZXh0PjwvZz48IS0tbGluayBDb252ZXJzYXRpb24gdG8gTWVzc2FnZS0tPjxnIGlkPSJsaW5rX0NvbnZlcnNhdGlvbl9NZXNzYWdlIj48cGF0aCBjb2RlTGluZT0iMjM5IiBkPSJNNzE2LjEsOTAwLjU3IEM3MTguOTIsODU0LjY3IDcxOS4yNSw3OTEuMjkgNzE3LjEyLDc0MS4xOCAiIGZpbGw9Im5vbmUiIGlkPSJDb252ZXJzYXRpb24tdG8tTWVzc2FnZSIgc3R5bGU9InN0cm9rZTojMTgxODE4O3N0cm9rZS13aWR0aDoxLjA7Ii8+PHBvbHlnb24gZmlsbD0iIzE4MTgxOCIgcG9pbnRzPSI3MTYuODksNzM2LjA3LDcxMy4zMDUyLDc0NS4yNDMzLDcxNy4xMTgzLDc0MS4wNjQ4LDcyMS4yOTY4LDc0NC44Nzc5LDcxNi44OSw3MzYuMDciIHN0eWxlPSJzdHJva2U6IzE4MTgxODtzdHJva2Utd2lkdGg6MS4wOyIvPjx0ZXh0IGZpbGw9IiMwMDAwMDAiIGZvbnQtZmFtaWx5PSJzYW5zLXNlcmlmIiBmb250LXNpemU9IjEzIiBsZW5ndGhBZGp1c3Q9InNwYWNpbmciIHRleHRMZW5ndGg9IjciIHg9IjcxMC4wMjYzIiB5PSI4OTEuNTc5NiI+MjwvdGV4dD48dGV4dCBmaWxsPSIjMDAwMDAwIiBmb250LWZhbWlseT0ic2Fucy1zZXJpZiIgZm9udC1zaXplPSIxMyIgbGVuZ3RoQWRqdXN0PSJzcGFjaW5nIiB0ZXh0TGVuZ3RoPSI2IiB4PSI3MTEuNzA5NSIgeT0iNzU2LjA2NDMiPio8L3RleHQ+PC9nPjwhLS1saW5rIEV2ZW50IHRvIFVzZXItLT48ZyBpZD0ibGlua19FdmVudF9Vc2VyIj48cGF0aCBjb2RlTGluZT0iMjQxIiBkPSJNODUuODksODU1LjkgQzc2LjEyLDc2MC45NyA4MS41LDYyMS42OCAxNDcsNTIzIEMyMTUuOTEsNDE5LjE5IDM1OS44NywzNjQuMzQgNDQzLjk4LDM0MS4xOSAiIGZpbGw9Im5vbmUiIGlkPSJFdmVudC10by1Vc2VyIiBzdHlsZT0ic3Ryb2tlOiMxODE4MTg7c3Ryb2tlLXdpZHRoOjEuMDsiLz48cG9seWdvbiBmaWxsPSIjMTgxODE4IiBwb2ludHM9IjQ0OC45MywzMzkuODQsNDM5LjE5OTYsMzM4LjMxNzMsNDQ0LjEwMTksMzQxLjEzOTksNDQxLjI3OTQsMzQ2LjA0MjIsNDQ4LjkzLDMzOS44NCIgc3R5bGU9InN0cm9rZTojMTgxODE4O3N0cm9rZS13aWR0aDoxLjA7Ii8+PC9nPjwhLS1saW5rIEV2ZW50IHRvIFVzZXItLT48ZyBpZD0ibGlua19FdmVudF9Vc2VyIj48cGF0aCBjb2RlTGluZT0iMjQyIiBkPSJNMTEzLjE5LDg1NS45IEMxMTEuMTIsNzYwLjk3IDExNi41LDYyMS42OCAxODIsNTIzIEMyNDQuMjcsNDI5LjIgMzY3LjgxLDM3NS4zNyA0NDMuOTIsMzQ4Ljc4ICIgZmlsbD0ibm9uZSIgaWQ9IkV2ZW50LXRvLVVzZXItMSIgc3R5bGU9InN0cm9rZTojMTgxODE4O3N0cm9rZS13aWR0aDoxLjA7Ii8+PHBvbHlnb24gZmlsbD0iIzE4MTgxOCIgcG9pbnRzPSI0NDguODYsMzQ3LjA3LDQzOS4wNDgsMzQ2LjIxODgsNDQ0LjEzMjUsMzQ4LjY5ODIsNDQxLjY1MzEsMzUzLjc4MjcsNDQ4Ljg2LDM0Ny4wNyIgc3R5bGU9InN0cm9rZTojMTgxODE4O3N0cm9rZS13aWR0aDoxLjA7Ii8+PHRleHQgZmlsbD0iIzAwMDAwMCIgZm9udC1mYW1pbHk9InNhbnMtc2VyaWYiIGZvbnQtc2l6ZT0iMTMiIGxlbmd0aEFkanVzdD0ic3BhY2luZyIgdGV4dExlbmd0aD0iNyIgeD0iMTA2LjAwNTkiIHk9Ijg0Ni4yMTk3Ij4xPC90ZXh0Pjx0ZXh0IGZpbGw9IiMwMDAwMDAiIGZvbnQtZmFtaWx5PSJzYW5zLXNlcmlmIiBmb250LXNpemU9IjEzIiBsZW5ndGhBZGp1c3Q9InNwYWNpbmciIHRleHRMZW5ndGg9IjYiIHg9IjQzNC44OTgzIiB5PSIzNDguMjI1MyI+KjwvdGV4dD48L2c+PCEtLWxpbmsgR3JvdXAgdG8gRXZlbnQtLT48ZyBpZD0ibGlua19Hcm91cF9FdmVudCI+PHBhdGggY29kZUxpbmU9IjI0NSIgZD0iTTIzNC4yNiw3NTEuMjIgQzIxNS45MSw3ODIuNzggMTk1LjEzLDgxOC41MiAxNzUuOTcsODUxLjQ3ICIgZmlsbD0ibm9uZSIgaWQ9Ikdyb3VwLXRvLUV2ZW50IiBzdHlsZT0ic3Ryb2tlOiMxODE4MTg7c3Ryb2tlLXdpZHRoOjEuMDsiLz48cG9seWdvbiBmaWxsPSIjMTgxODE4IiBwb2ludHM9IjE3My40LDg1NS44OSwxODEuMzg3Niw4NTAuMTI4MiwxNzUuOTE3Niw4NTEuNTcwMSwxNzQuNDc1Nyw4NDYuMTAwMSwxNzMuNCw4NTUuODkiIHN0eWxlPSJzdHJva2U6IzE4MTgxODtzdHJva2Utd2lkdGg6MS4wOyIvPjx0ZXh0IGZpbGw9IiMwMDAwMDAiIGZvbnQtZmFtaWx5PSJzYW5zLXNlcmlmIiBmb250LXNpemU9IjEzIiBsZW5ndGhBZGp1c3Q9InNwYWNpbmciIHRleHRMZW5ndGg9IjciIHg9IjIyMi45NTQxIiB5PSI3NzEuMDY5NCI+MTwvdGV4dD48dGV4dCBmaWxsPSIjMDAwMDAwIiBmb250LWZhbWlseT0ic2Fucy1zZXJpZiIgZm9udC1zaXplPSIxMyIgbGVuZ3RoQWRqdXN0PSJzcGFjaW5nIiB0ZXh0TGVuZ3RoPSI2IiB4PSIxNzIuMDUzOCIgeT0iODQ2LjIwODkiPio8L3RleHQ+PC9nPjwhLS1TUkM9W3BMVDlSem1zNUJ4aExtWHBLYmh4YTFwZEsyMERXZzkwY3FFVGRlZjB1OFpGQ2NFQUw0ZEFuaEplVm96dEZNZ1BaazQyeExvYS1IeFZsYjRUOXJoTmxzZkd6UHpMUk4tdERRRjdjV2FKX3FzTTlDVzBucmVSNVI3SHlabkJISjQ2MHM0UzBxaG9vRkhOTE5MVXBQc1BBMFlwZXNjZmZHVDFHTTY0ejgwUExZaDcxb2FBNFJmeGFCOHVDZjJsaWYxZm5PNDJSVkluX2ViZnl2a2JWNGRTWnVwcDNQb0M4c1NUQ0tvQUg3cV9HcnlnVi1wUi1lZDFTcGlnVVN5dUQ2eVkyOUlQMzR1WjlHUGVVeS0wS3ZzRXdFYXFzNEQ4SS1FRDVGZzFaSXNaRHpZMGpmRU05YW5ZeGc3V1JCS1hQajhEWFhYekN3VmF1cDFvVVR4RF9aOGRndjFKcTlyWWVuRUN1TVN1UU1QVzVNWmxHbWhRWm5idlRTbjZnS3F4UXEwMUd4dy1mbUNKcVQ2ZUllVUFyNWNOSG80NlBHNFozcEIxMWJSOTlvWW9qR25zRUFkV0F0SmN1aTVpd0hvUEFfRW9hbU81bHF6Q21VMVNCRmcyU0FCRW5fZ1VJdjk0U1hhaW1VVkNVSW1SVnBmbmZYelFtdm53Ym1adGJjcVdiM0VuOWJZdnE0a2R4cUR5LXRTUXBES3cxTUNoQ2dUM01vWWZRejhCOVdRTEpOWldzZlpieHVHeWJpZW5KUjVMTUh6SHNmQmRlSmNCcUZrNjMwWm84X09maVlaNXdpZUFrQWd6MkFMeE5QQUFUNzNMXzQtVFRFVjJ6dHlxeDFWZXY2M0JkVmZDdGZzcldJNXRsNGg0ZWZEWk5jemdDR3NqQWxacFVFYTh4b1BrNHo5Z0RaM1JFeW9TUHlQRElwdk9FUEU4OVJLbUgzaVIxajNRQmhINi1wTHR1d20zemtKVThjTGhqNFVJUmpuUW5kdUp5U1g0bHozWkU4bVMydFRKS21IX0JITUJEeWVRTy1LSzdGdlM5MjJMZHdIWHp2VFJQZ0Z5ZFRyN1Z6eWVIaHYwbWQ4cDNxR3pqYUpSZjEzUTU0YnNGRFZoTDVRaXc5VU5jY1o1bkl4NjlZZ2xqTG5BNFRsVUlIR3VzOGg5VkJXcUhZQkVobmxqQnp3bVFJQ3VRbjh6SEY4THNwVnh6N0NlcEJ0UDZRem9BRUFmdDBqbTh0YmtaelpYRThuZWhNMXBLbmxEV3NCYXZwQlFtZ2hIYi1oS2JLQ0FZUkNjMUlqck1vSDU3eWptVEtXeU1hQ2xRXzN2RWxQcV9WcnVmcDJzemhXRGUzQlJNempQa2FjR2dZVTJfUjc4NDM3NmtHRGJrOGhCYXRFWGg5dTBSTlQ5SHFHN0Y3RmJJRm9XdkZKQXN5eTBtc2F4aUx2UjhsWU9icHhxSmRkZkd1MnNWTjNSQW9YaG1jRW5qSFFxeEVGdEtad3c4TlVYQjV5d2ZLdkhQQkNtMFU1UF9NVklfX1N4bDVZVF9abHF6bE94VjFxQnVFN2ptSENFdG5vQXBSRWNYZmNzbmNGdGhXYy1xalBtSWF2TGZTek1IemN3TzFHN0RsUC1mY0Zuc0NDai1nbS1Wdzh2NGFmeG5aVXloeUF0WmFGSlROTDY0WUUyUzNNWFp1eWlzSnhwdE5zQlJaTnhFLTRVNE5reFN5SE1Pck1iclJZbTJTRjlteEhuMlhsSEM3UjJxRUdfbDVrTkdYTjZoT0R6YnVNX3NBWG1LR2NwUThNbE9JX1dSbTAwXS0tPjwvZz48L3N2Zz4=;" vertex="1" parent="1">
            <mxGeometry x="-1405" y="-606" width="2770" height="1075" as="geometry" />
          </mxCell>
        </UserObject>
      </root>
    </mxGraphModel>
  </diagram>
</mxfile>
